<svg width="110" height="48" viewBox="0 0 110 48" fill="none" xmlns="http://www.w3.org/2000/svg">
<g clip-path="url(#clip0_368_5449)">
<mask id="mask0_368_5449" style="mask-type:luminance" maskUnits="userSpaceOnUse" x="0" y="0" width="32" height="48">
<path d="M31.1289 0H0.96875V47.4725H31.1289V0Z" fill="white"/>
</mask>
<g mask="url(#mask0_368_5449)">
<path d="M0.96875 24.4408V7.60383C0.96875 3.40433 4.37368 0 8.57388 0H25.4138C30.4953 0 33.0401 6.14284 29.4468 9.7353L10.7057 28.4732C7.11265 32.0658 0.96875 29.5213 0.96875 24.4408Z" fill="url(#paint0_linear_368_5449)"/>
<path d="M0.96875 41.7583V25.9704L21.8635 17.3174H25.4138C30.4953 17.3174 33.0401 23.4602 29.4468 27.0527L10.7057 45.7908C7.11265 49.3835 0.96875 46.8389 0.96875 41.7583Z" fill="url(#paint1_linear_368_5449)"/>
<g style="mix-blend-mode:multiply">
<path opacity="0.1" d="M13.1508 32.9661L26.3657 19.2082C27.0477 18.4982 26.5445 17.3174 25.5598 17.3174H21.8635C19.2157 19.0065 6.54053 22.4918 0.96875 24.2874V29.9635C0.96875 35.0441 9.55753 36.5588 13.1508 32.9661Z" fill="white"/>
<path opacity="0.1" d="M25.5511 17.3174H24.3531C24.3512 17.318 21.8592 17.3189 21.8565 17.3197C19.1997 19.009 6.53458 22.4923 0.96875 24.2874V29.9498C0.96875 35.0346 9.55422 36.5448 13.146 32.9524L26.3498 19.2067C27.0295 18.4991 26.5322 17.3174 25.5511 17.3174Z" fill="white"/>
<path opacity="0.11" d="M25.5423 17.3175H24.3447C24.3409 17.3189 21.8547 17.3204 21.8493 17.3222C19.1838 19.0115 6.52878 22.4931 0.96875 24.2876V29.9361C0.96875 35.0251 9.5511 36.5311 13.141 32.9387L26.3338 19.2049C27.0112 18.4996 26.5203 17.3175 25.5423 17.3175Z" fill="#FFFEFF"/>
<path opacity="0.11" d="M25.5337 17.3175H24.3366C24.3308 17.3195 21.8506 17.3218 21.8423 17.3245C19.1678 19.0138 6.52286 22.4936 0.96875 24.2876V29.9224C0.96875 35.0159 9.54779 36.5174 13.1362 32.9253L26.3179 19.2032C26.9932 18.5004 26.5083 17.3175 25.5337 17.3175Z" fill="#FEFEFF"/>
<path opacity="0.11" d="M25.525 17.3174H24.3282C24.3204 17.32 21.8461 17.3232 21.8352 17.3266C19.1519 19.0159 6.5169 22.4939 0.96875 24.2874V29.9084C0.96875 35.0061 9.54448 36.5031 13.1315 32.9116L26.3021 19.2016C26.975 18.5011 26.4964 17.3174 25.525 17.3174Z" fill="#FEFEFF"/>
<path opacity="0.11" d="M25.5162 17.3174H24.3199C24.3104 17.3207 21.8418 17.3245 21.8281 17.3289C19.1359 19.0184 6.51095 22.4946 0.96875 24.2874V29.8947C0.96875 34.9967 9.54118 36.4894 13.1267 32.8981L26.2862 19.1999C26.9568 18.5017 26.4843 17.3174 25.5162 17.3174Z" fill="#FEFDFF"/>
<path opacity="0.12" d="M25.5076 17.3175H24.3117C24.3001 17.3215 21.8375 17.3261 21.821 17.3314C19.1199 19.0209 6.50516 22.4952 0.96875 24.2876V29.881C0.96875 34.9872 9.53787 36.4757 13.1219 32.8844L26.2704 19.1983C26.9386 18.5025 26.4724 17.3175 25.5076 17.3175Z" fill="#FEFDFF"/>
<path opacity="0.12" d="M25.4989 17.3175H24.3032C24.2897 17.3222 21.8331 17.3276 21.8139 17.3337C19.104 19.0232 6.49923 22.4959 0.96875 24.2876V29.8672C0.96875 34.9777 9.53472 36.462 13.1171 32.8707L26.2545 19.1966C26.9206 18.5032 26.4605 17.3175 25.4989 17.3175Z" fill="#FDFDFE"/>
<path opacity="0.12" d="M25.4901 17.3174H24.295C24.2796 17.3225 21.8288 17.3288 21.8068 17.3359C19.088 19.0255 6.49328 22.4962 0.96875 24.2874V29.8535C0.96875 34.9682 9.53144 36.448 13.1121 32.857L26.2385 19.195C26.9023 18.5039 26.4485 17.3174 25.4901 17.3174Z" fill="#FDFCFE"/>
<path opacity="0.13" d="M25.4813 17.3174H24.2866C24.2692 17.3232 21.8243 17.3303 21.7997 17.3382C19.072 19.0278 6.48732 22.4969 0.96875 24.2874V29.8398C0.96875 34.9587 9.52813 36.4343 13.1073 32.8435L26.2226 19.1933C26.8841 18.5045 26.4364 17.3174 25.4813 17.3174Z" fill="#FDFCFE"/>
<path opacity="0.13" d="M25.4727 17.3174H24.2785C24.2591 17.3238 21.8202 17.3318 21.7928 17.3405C19.0561 19.0301 6.48153 22.4974 0.96875 24.2874V29.8258C0.96875 34.9489 9.52483 36.42 13.1025 32.8295L26.2068 19.1915C26.8661 18.5052 26.4245 17.3174 25.4727 17.3174Z" fill="#FDFCFE"/>
<path opacity="0.13" d="M25.464 17.3174H24.27C24.2489 17.3245 21.8157 17.3331 21.7855 17.3428C19.0401 19.0326 6.4756 22.4981 0.96875 24.2874V29.8121C0.96875 34.9394 9.52152 36.4063 13.0978 32.8161L26.1909 19.1899C26.8479 18.5059 26.4126 17.3174 25.464 17.3174Z" fill="#FCFBFE"/>
<path opacity="0.14" d="M25.4552 17.3174H24.2618C24.2387 17.3251 21.8114 17.3346 21.7785 17.3451C19.0242 19.0349 6.46965 22.4985 0.96875 24.2874V29.7984C0.96875 34.9302 9.51837 36.3926 13.093 32.8026L26.1751 19.1884C26.8298 18.5067 26.4004 17.3174 25.4552 17.3174Z" fill="#FCFBFE"/>
<path opacity="0.14" d="M25.4467 17.3174H24.2535C24.2284 17.3258 21.8071 17.3361 21.7715 17.3474C19.0082 19.0372 6.4637 22.4992 0.96875 24.2874V29.7847C0.96875 34.9204 9.51507 36.3786 13.088 32.7889L26.159 19.1865C26.8114 18.5073 26.3887 17.3174 25.4467 17.3174Z" fill="#FCFBFE"/>
<path opacity="0.14" d="M25.4379 17.3174H24.2452C24.2183 17.3265 21.8028 17.3374 21.7645 17.3498C18.9922 19.0395 6.45793 22.4997 0.96875 24.2874V29.771C0.96875 34.9109 9.51176 36.3649 13.0832 32.7752L26.1432 19.1849C26.7934 18.508 26.3766 17.3174 25.4379 17.3174Z" fill="#FCFAFE"/>
<path opacity="0.14" d="M25.4291 17.3174H24.2368C24.2079 17.3271 21.7985 17.3389 21.7572 17.3521C18.9763 19.042 6.45198 22.5004 0.96875 24.2874V29.7573C0.96875 34.9014 9.50848 36.3509 13.0784 32.7615L26.1273 19.1832C26.7752 18.5087 26.3645 17.3174 25.4291 17.3174Z" fill="#FBFAFE"/>
<path opacity="0.15" d="M25.4205 17.3174H24.2287C24.1978 17.3278 21.7944 17.3402 21.7503 17.3544C18.9603 19.0443 6.44603 22.5009 0.96875 24.2874V29.7436C0.96875 34.8919 9.50533 36.3372 13.0736 32.748L26.1114 19.1816C26.7571 18.5093 26.3528 17.3174 25.4205 17.3174Z" fill="#FBFAFE"/>
<path opacity="0.15" d="M25.4118 17.3174H24.2203C24.1876 17.3285 21.7899 17.3417 21.7432 17.3567C18.9443 19.0466 6.44007 22.5015 0.96875 24.2874V29.7298C0.96875 34.8825 9.50202 36.3232 13.0688 32.7343L26.0956 19.1799C26.7391 18.5101 26.3406 17.3174 25.4118 17.3174Z" fill="#FBF9FE"/>
<path opacity="0.15" d="M25.403 17.3174H24.212C24.1774 17.3291 21.7857 17.3431 21.7361 17.359C18.9284 19.0491 6.43431 22.502 0.96875 24.2874V29.7161C0.96875 34.873 9.49871 36.3095 13.064 32.7209L26.0797 19.1783C26.7209 18.5108 26.3287 17.3174 25.403 17.3174Z" fill="#FBF9FE"/>
<path opacity="0.16" d="M25.3943 17.3174H24.2036C24.167 17.3298 21.7812 17.3445 21.7288 17.3613C18.9124 19.0514 6.42835 22.5027 0.96875 24.2874V29.7021C0.96875 34.8632 9.49541 36.2956 13.0591 32.7072L26.0637 19.1766C26.7026 18.5114 26.3166 17.3174 25.3943 17.3174Z" fill="#FBF9FD"/>
<path opacity="0.16" d="M25.3857 17.3174H24.1955C24.157 17.3304 21.7771 17.346 21.7221 17.3636C18.8964 19.0537 6.4224 22.5032 0.96875 24.2874V29.6884C0.96875 34.854 9.4921 36.2818 13.0543 32.6934L26.048 19.175C26.6845 18.5121 26.3047 17.3174 25.3857 17.3174Z" fill="#FAF8FD"/>
<path opacity="0.16" d="M25.3769 17.3174H24.1871C24.1466 17.3311 21.7726 17.3474 21.7148 17.3659C18.8805 19.0562 6.41645 22.5038 0.96875 24.2874V29.6747C0.96875 34.8442 9.48898 36.2681 13.0495 32.6797L26.0321 19.1733C26.6665 18.513 26.2928 17.3174 25.3769 17.3174Z" fill="#FAF8FD"/>
<path opacity="0.17" d="M25.3682 17.3174H24.1788C24.1364 17.3316 21.7683 17.3488 21.7079 17.3683C18.8645 19.0585 6.41068 22.5043 0.96875 24.2874V29.661C0.96875 34.835 9.48567 36.2541 13.0447 32.6663L26.0163 19.1717C26.6484 18.5136 26.2808 17.3174 25.3682 17.3174Z" fill="#FAF8FD"/>
<path opacity="0.17" d="M25.3596 17.3175H24.1706C24.1263 17.3324 21.764 17.3504 21.7007 17.3707C18.8486 19.061 6.40473 22.5052 0.96875 24.2876V29.6473C0.96875 34.8255 9.48236 36.2404 13.0399 32.6528L26.0004 19.17C26.6302 18.5143 26.2689 17.3175 25.3596 17.3175Z" fill="#FAF7FD"/>
<path opacity="0.17" d="M25.3508 17.3174H24.1621C24.1159 17.3329 21.7595 17.3517 21.6935 17.3729C18.8326 19.0632 6.39878 22.5055 0.96875 24.2874V29.6333C0.96875 34.8157 9.47906 36.2265 13.035 32.6391L25.9844 19.1684C26.612 18.5151 26.2568 17.3174 25.3508 17.3174Z" fill="#F9F7FD"/>
<path opacity="0.17" d="M25.3421 17.3175H24.1539C24.1057 17.3337 21.7553 17.3532 21.6865 17.3754C18.8165 19.0658 6.39282 22.5063 0.96875 24.2876V29.6199C0.96875 34.8065 9.47591 36.2127 13.0302 32.6254L25.9685 19.1667C26.5939 18.5157 26.2448 17.3175 25.3421 17.3175Z" fill="#F9F7FD"/>
<path opacity="0.18" d="M25.3333 17.3174H24.1455C24.0954 17.3342 21.7508 17.3545 21.6793 17.3775C18.8007 19.068 6.38687 22.5066 0.96875 24.2874V29.6061C0.96875 34.797 9.47263 36.1988 13.0254 32.6117L25.9527 19.1651C26.5757 18.5164 26.2327 17.3174 25.3333 17.3174Z" fill="#F9F6FD"/>
<path opacity="0.18" d="M25.3247 17.3174H24.1374C24.0853 17.3349 21.7467 17.356 21.6725 17.3798C18.7847 19.0703 6.3811 22.5073 0.96875 24.2874V29.5924C0.96875 34.7872 9.46932 36.185 13.0206 32.5982L25.9368 19.1634C26.5575 18.5171 26.221 17.3174 25.3247 17.3174Z" fill="#F9F6FD"/>
<path opacity="0.18" d="M25.316 17.3175H24.1289C24.0749 17.3357 21.7422 17.3575 21.6652 17.3823C18.7687 19.0729 6.37515 22.5079 0.96875 24.2876V29.5787C0.96875 34.778 9.46601 36.1713 13.0158 32.5845L25.921 19.1618C26.5395 18.5179 26.2088 17.3175 25.316 17.3175Z" fill="#F8F6FD"/>
<path opacity="0.19" d="M25.3072 17.3175H24.1207C24.0648 17.3364 21.7379 17.359 21.6581 17.3846C18.7528 19.0752 6.3692 22.5084 0.96875 24.2876V29.565C0.96875 34.7685 9.46271 36.1574 13.0108 32.5711L25.9049 19.1601C26.5212 18.5186 26.1969 17.3175 25.3072 17.3175Z" fill="#F8F5FD"/>
<path opacity="0.19" d="M25.2986 17.3174H24.1124C24.0546 17.3369 21.7336 17.3603 21.6512 17.3868C18.7368 19.0774 6.36324 22.509 0.96875 24.2874V29.551C0.96875 34.7588 9.45956 36.1434 13.0061 32.5574L25.8891 19.1585C26.503 18.5192 26.1851 17.3174 25.2986 17.3174Z" fill="#F8F5FD"/>
<path opacity="0.19" d="M25.2899 17.3174H24.1042C24.0444 17.3375 21.7293 17.3617 21.6441 17.3891C18.7207 19.0799 6.35748 22.5095 0.96875 24.2874V29.5373C0.96875 34.7493 9.45625 36.1297 13.0013 32.5436L25.8732 19.1568C26.485 18.52 26.1729 17.3174 25.2899 17.3174Z" fill="#F8F5FC"/>
<path opacity="0.2" d="M25.2811 17.3175H24.0957C24.0341 17.3384 21.7249 17.3633 21.6368 17.3915C18.7049 19.0823 6.35152 22.5103 0.96875 24.2876V29.5236C0.96875 34.74 9.45295 36.1159 12.9965 32.5299L25.8574 19.155C26.4668 18.5205 26.161 17.3175 25.2811 17.3175Z" fill="#F7F4FC"/>
<path opacity="0.2" d="M25.2725 17.3174H24.0877C24.024 17.3389 21.7207 17.3646 21.63 17.3937C18.6888 19.0845 6.34557 22.5106 0.96875 24.2874V29.5096C0.96875 34.7303 9.44966 36.102 12.9917 32.5162L25.8415 19.1534C26.4486 18.5212 26.1491 17.3174 25.2725 17.3174Z" fill="#F7F4FC"/>
<path opacity="0.2" d="M25.2638 17.3174H24.0792C24.0137 17.3395 21.7163 17.3659 21.6228 17.396C18.673 19.0868 6.33962 22.5113 0.96875 24.2874V29.4959C0.96875 34.7208 9.44636 36.088 12.9869 32.5028L25.8256 19.1517C26.4306 18.5219 26.137 17.3174 25.2638 17.3174Z" fill="#F7F4FC"/>
<path opacity="0.2" d="M25.255 17.3174H24.071C24.0036 17.3402 21.712 17.3674 21.6158 17.3983C18.657 19.0893 6.33385 22.5117 0.96875 24.2874V29.4822C0.96875 34.7113 9.44321 36.0743 12.982 32.4893L25.8096 19.1502C26.4123 18.5229 26.125 17.3174 25.255 17.3174Z" fill="#F7F3FC"/>
<path opacity="0.21" d="M25.2463 17.3175H24.0625C23.9931 17.3408 21.7075 17.3691 21.6086 17.4008C18.641 19.0917 6.3279 22.5126 0.96875 24.2876V29.4685C0.96875 34.7018 9.4399 36.0603 12.9772 32.4756L25.7937 19.1484C26.3941 18.5233 26.1129 17.3175 25.2463 17.3175Z" fill="#F7F3FC"/>
<path opacity="0.21" d="M25.2377 17.3174H24.0544C23.9831 17.3413 21.7034 17.3702 21.6016 17.4029C18.6251 19.0939 6.32195 22.5129 0.96875 24.2874V29.4548C0.96875 34.6923 9.43659 36.0466 12.9724 32.4619L25.7779 19.1467C26.3759 18.524 26.1012 17.3174 25.2377 17.3174Z" fill="#F6F3FC"/>
<path opacity="0.21" d="M25.2289 17.3174H24.046C23.9728 17.342 21.6989 17.3717 21.5945 17.4051C18.6091 19.0964 6.31599 22.5136 0.96875 24.2874V29.441C0.96875 34.6825 9.43329 36.0326 12.9676 32.4482L25.762 19.1451C26.3579 18.5248 26.0891 17.3174 25.2289 17.3174Z" fill="#F6F2FC"/>
<path opacity="0.22" d="M25.2201 17.3174H24.0378C23.9626 17.3426 21.6946 17.3732 21.5874 17.4074C18.593 19.0987 6.31023 22.5141 0.96875 24.2874V29.4273C0.96875 34.6733 9.43017 36.0189 12.9628 32.4347L25.7462 19.1436C26.3398 18.5257 26.0771 17.3174 25.2201 17.3174Z" fill="#F6F2FC"/>
<path opacity="0.22" d="M25.2116 17.3174H24.0295C23.9524 17.3433 21.6903 17.3745 21.5805 17.4097C18.5772 19.101 6.30427 22.5147 0.96875 24.2874V29.4136C0.96875 34.6638 9.42686 36.0049 12.9578 32.421L25.7301 19.1418C26.3214 18.5262 26.0652 17.3174 25.2116 17.3174Z" fill="#F6F2FC"/>
<path opacity="0.22" d="M25.2028 17.3174H24.0211C23.9421 17.344 21.6859 17.376 21.5732 17.412C18.5611 19.1035 6.29832 22.5152 0.96875 24.2874V29.3996C0.96875 34.6541 9.42355 35.9909 12.953 32.4073L25.7143 19.1401C26.3034 18.5268 26.0533 17.3174 25.2028 17.3174Z" fill="#F5F1FC"/>
<path opacity="0.23" d="M25.194 17.3174H24.0128C23.9319 17.3446 21.6816 17.3775 21.5661 17.4143C18.5451 19.1058 6.29237 22.5159 0.96875 24.2874V29.3859C0.96875 34.6446 9.42024 35.9772 12.9482 32.3938L25.6986 19.1385C26.2854 18.5276 26.0411 17.3174 25.194 17.3174Z" fill="#F5F1FC"/>
<path opacity="0.23" d="M25.1855 17.3175H24.0045C23.9216 17.3455 21.6773 17.379 21.5592 17.4168C18.5293 19.1083 6.2866 22.5165 0.96875 24.2876V29.3725C0.96875 34.6353 9.41694 35.9635 12.9435 32.3801L25.6827 19.1368C26.2672 18.5283 26.0293 17.3175 25.1855 17.3175Z" fill="#F5F1FB"/>
<path opacity="0.23" d="M25.1767 17.3174H23.9963C23.9116 17.346 21.673 17.3803 21.552 17.419C18.5133 19.1104 6.28065 22.517 0.96875 24.2874V29.3585C0.96875 34.6256 9.41379 35.9498 12.9387 32.3664L25.6669 19.1352C26.249 18.529 26.0175 17.3174 25.1767 17.3174Z" fill="#F5F0FB"/>
<path opacity="0.23" d="M25.1679 17.3175H23.9879C23.9011 17.3468 21.6685 17.382 21.5448 17.4215C18.4974 19.113 6.2747 22.5177 0.96875 24.2876V29.3448C0.96875 34.6163 9.41051 35.9358 12.9339 32.353L25.651 19.1335C26.2311 18.5296 26.0052 17.3175 25.1679 17.3175Z" fill="#F4F0FB"/>
<path opacity="0.24" d="M25.1592 17.3174H23.9796C23.8909 17.3473 21.6642 17.3831 21.5378 17.4236C18.4813 19.1152 6.26877 22.5182 0.96875 24.2874V29.3311C0.96875 34.6066 9.4072 35.9218 12.9289 32.3392L25.635 19.1319C26.2127 18.5305 25.9933 17.3174 25.1592 17.3174Z" fill="#F4F0FB"/>
<path opacity="0.24" d="M25.1506 17.3175H23.9714C23.8808 17.3481 21.6599 17.3848 21.5308 17.4261C18.4653 19.1177 6.26298 22.5189 0.96875 24.2876V29.3174C0.96875 34.5974 9.4039 35.9081 12.9241 32.3258L25.6191 19.1302C26.1946 18.5311 25.9813 17.3175 25.1506 17.3175Z" fill="#F4EFFB"/>
<path opacity="0.24" d="M25.1419 17.3174H23.9631C23.8706 17.3486 21.6557 17.3859 21.5238 17.4282C18.4495 19.12 6.25702 22.5194 0.96875 24.2874V29.3036C0.96875 34.5876 9.40075 35.8944 12.9193 32.3121L25.6033 19.1286C26.1765 18.5318 25.9694 17.3174 25.1419 17.3174Z" fill="#F4EFFB"/>
<path opacity="0.25" d="M25.1331 17.3175H23.9547C23.8602 17.3494 21.6512 17.3876 21.5166 17.4307C18.4334 19.1224 6.25107 22.52 0.96875 24.2876V29.2899C0.96875 34.5781 9.39744 35.8804 12.9145 32.2984L25.5874 19.1269C26.1584 18.5326 25.9573 17.3175 25.1331 17.3175Z" fill="#F3EFFB"/>
<path opacity="0.25" d="M25.1245 17.3174H23.9466C23.8503 17.3498 21.6471 17.3889 21.5096 17.4328C18.4174 19.1246 6.24514 22.5205 0.96875 24.2874V29.2759C0.96875 34.5686 9.39413 35.8665 12.9098 32.2847L25.5715 19.1253C26.1402 18.5333 25.9454 17.3174 25.1245 17.3174Z" fill="#F3EEFB"/>
<path opacity="0.25" d="M25.1157 17.3174H23.9381C23.8398 17.3504 21.6426 17.3902 21.5025 17.4352C18.4016 19.1271 6.23935 22.521 0.96875 24.2874V29.2622C0.96875 34.5591 9.39085 35.8527 12.9048 32.2709L25.5555 19.1234C26.1219 18.5338 25.9333 17.3174 25.1157 17.3174Z" fill="#F3EEFB"/>
<path opacity="0.26" d="M25.107 17.3174H23.9299C23.8296 17.3511 21.6385 17.3917 21.4954 17.4375C18.3855 19.1294 6.2334 22.5217 0.96875 24.2874V29.2485C0.96875 34.5496 9.38755 35.8388 12.9 32.2575L25.5397 19.1218C26.1038 18.5344 25.9214 17.3174 25.107 17.3174Z" fill="#F3EEFB"/>
<path opacity="0.26" d="M25.0984 17.3174H23.9216C23.8195 17.3517 21.6342 17.3932 21.4885 17.4398C18.3695 19.1317 6.22745 22.5222 0.96875 24.2874V29.2348C0.96875 34.5401 9.3844 35.825 12.8952 32.244L25.5238 19.1203C26.0857 18.5354 25.9096 17.3174 25.0984 17.3174Z" fill="#F2EDFB"/>
<path opacity="0.26" d="M25.0896 17.3175H23.9134C23.8093 17.3526 21.6299 17.3947 21.4814 17.4423C18.3536 19.1342 6.22152 22.5228 0.96875 24.2876V29.2211C0.96875 34.5306 9.38109 35.8113 12.8904 32.2303L25.5079 19.1185C26.0675 18.5359 25.8975 17.3175 25.0896 17.3175Z" fill="#F2EDFB"/>
<path opacity="0.26" d="M25.0809 17.3174H23.9049C23.7989 17.3531 21.6254 17.396 21.4741 17.4444C18.3376 19.1365 6.21572 22.5233 0.96875 24.2874V29.2074C0.96875 34.5209 9.37778 35.7974 12.8856 32.2166L25.4921 19.1168C26.0495 18.5366 25.8856 17.3174 25.0809 17.3174Z" fill="#F2EDFA"/>
<path opacity="0.27" d="M25.0721 17.3174H23.8967C23.7888 17.3537 21.6211 17.3975 21.4672 17.4467C18.3218 19.1388 6.20977 22.5238 0.96875 24.2874V29.1937C0.96875 34.5114 9.37448 35.7836 12.8808 32.2029L25.4762 19.1152C26.0313 18.5374 25.8734 17.3174 25.0721 17.3174Z" fill="#F2ECFA"/>
<path opacity="0.27" d="M25.0635 17.3174H23.8884C23.7786 17.3544 21.6168 17.3988 21.46 17.449C18.3057 19.1411 6.20382 22.5245 0.96875 24.2874V29.1799C0.96875 34.5021 9.37117 35.7697 12.8759 32.1894L25.4602 19.1137C26.013 18.5382 25.8617 17.3174 25.0635 17.3174Z" fill="#F2ECFA"/>
<path opacity="0.27" d="M25.0548 17.3175H23.88C23.7681 17.3552 21.6124 17.4005 21.4528 17.4515C18.2897 19.1438 6.19789 22.5251 0.96875 24.2876V29.1662C0.96875 34.4924 9.36805 35.756 12.8711 32.1757L25.4443 19.1119C25.9948 18.5387 25.8494 17.3175 25.0548 17.3175Z" fill="#F1ECFA"/>
<path opacity="0.28" d="M25.046 17.3174H23.8717C23.7581 17.3557 21.6081 17.4018 21.4458 17.4537C18.2738 19.1459 6.19194 22.5256 0.96875 24.2874V29.1523C0.96875 34.4829 9.36474 35.742 12.8663 32.162L25.4285 19.1102C25.9768 18.5394 25.8375 17.3174 25.046 17.3174Z" fill="#F1EBFA"/>
<path opacity="0.28" d="M25.0374 17.3174H23.8635C23.7478 17.3564 21.6038 17.4031 21.4387 17.456C18.2578 19.1482 6.18615 22.5261 0.96875 24.2874V29.1385C0.96875 34.4734 9.36143 35.7283 12.8615 32.1486L25.4126 19.1086C25.9586 18.5402 25.8258 17.3174 25.0374 17.3174Z" fill="#F1EBFA"/>
<path opacity="0.28" d="M25.0287 17.3174H23.8552C23.7376 17.357 21.5995 17.4046 21.4318 17.4583C18.2418 19.1505 6.18019 22.5268 0.96875 24.2874V29.1248C0.96875 34.4639 9.35813 35.7143 12.8567 32.1349L25.3968 19.1069C25.9405 18.5409 25.8136 17.3174 25.0287 17.3174Z" fill="#F1EBFA"/>
<path opacity="0.29" d="M25.0199 17.3175H23.8468C23.7273 17.3579 21.595 17.4063 21.4245 17.4608C18.2259 19.1532 6.17427 22.5274 0.96875 24.2876V29.1111C0.96875 34.4544 9.35498 35.7006 12.8518 32.1211L25.3807 19.1053C25.9223 18.5415 25.8017 17.3175 25.0199 17.3175Z" fill="#F0EAFA"/>
<path opacity="0.29" d="M25.0112 17.3175H23.8385C23.7171 17.3585 21.5907 17.4076 21.4174 17.4631C18.2099 19.1555 6.16831 22.5281 0.96875 24.2876V29.0974C0.96875 34.4452 9.3517 35.6869 12.847 32.1077L25.365 19.1036C25.9043 18.5422 25.7896 17.3175 25.0112 17.3175Z" fill="#F0EAFA"/>
<path opacity="0.29" d="M25.0026 17.3174H23.8303C23.7069 17.3588 21.5864 17.4089 21.4105 17.4652C18.1941 19.1576 6.16252 22.5284 0.96875 24.2874V29.0837C0.96875 34.4354 9.34839 35.6726 12.8422 32.094L25.3492 19.102C25.8861 18.543 25.7777 17.3174 25.0026 17.3174Z" fill="#F0EAFA"/>
<path opacity="0.29" d="M24.9938 17.3174H23.822C23.6968 17.3595 21.5821 17.4104 21.4034 17.4675C18.178 19.1601 6.15657 22.5291 0.96875 24.2874V29.07C0.96875 34.4259 9.34508 35.6589 12.8374 32.0805L25.3333 19.1003C25.8679 18.5437 25.7656 17.3174 24.9938 17.3174Z" fill="#F0E9FA"/>
<path opacity="0.3" d="M24.985 17.3174H23.8136C23.6864 17.3602 21.5777 17.4117 21.3963 17.4698C18.162 19.1624 6.15064 22.5296 0.96875 24.2874V29.0563C0.96875 34.4164 9.34177 35.6452 12.8326 32.0668L25.3174 19.0987C25.8499 18.5443 25.7537 17.3174 24.985 17.3174Z" fill="#EFE9FA"/>
<path opacity="0.3" d="M24.9765 17.3175H23.8055C23.6763 17.361 21.5735 17.4134 21.3893 17.4723C18.1461 19.1649 6.14469 22.5304 0.96875 24.2876V29.0425C0.96875 34.4069 9.33863 35.6315 12.8278 32.0531L25.3016 19.097C25.8318 18.5452 25.7419 17.3175 24.9765 17.3175Z" fill="#EFE9F9"/>
<path opacity="0.3" d="M24.9677 17.3174H23.7971C23.666 17.3615 21.5691 17.4147 21.3821 17.4745C18.1301 19.1672 6.1389 22.5308 0.96875 24.2874V29.0286C0.96875 34.3974 9.33532 35.6175 12.8228 32.0394L25.2856 19.0954C25.8134 18.5458 25.7298 17.3174 24.9677 17.3174Z" fill="#EFE8F9"/>
<path opacity="0.31" d="M24.959 17.3175H23.7888C23.6558 17.3623 21.5648 17.4162 21.3751 17.4769C18.1141 19.1697 6.13297 22.5316 0.96875 24.2876V29.0151C0.96875 34.3882 9.33201 35.6038 12.8181 32.0259L25.2697 19.0937C25.7954 18.5465 25.7178 17.3175 24.959 17.3175Z" fill="#EFE8F9"/>
<path opacity="0.31" d="M24.9504 17.3174H23.7806C23.6456 17.3628 21.5605 17.4175 21.368 17.4791C18.0982 19.1718 6.12702 22.5319 0.96875 24.2874V29.0011C0.96875 34.3785 9.32873 35.5898 12.8133 32.0122L25.2538 19.0921C25.7772 18.5471 25.7059 17.3174 24.9504 17.3174Z" fill="#EEE8F9"/>
<path opacity="0.31" d="M24.9416 17.3174H23.7723C23.6355 17.3635 21.5562 17.419 21.3609 17.4814C18.0822 19.1742 6.12106 22.5326 0.96875 24.2874V28.9872C0.96875 34.3687 9.32558 35.5758 12.8085 31.9985L25.238 19.0902C25.7591 18.5478 25.694 17.3174 24.9416 17.3174Z" fill="#EEE7F9"/>
<path opacity="0.32" d="M24.9329 17.3174H23.7639C23.6251 17.3641 21.5517 17.4203 21.3538 17.4837C18.0662 19.1766 6.11527 22.5331 0.96875 24.2874V28.9734C0.96875 34.3592 9.32228 35.5621 12.8037 31.985L25.2221 19.0886C25.7409 18.5485 25.6818 17.3174 24.9329 17.3174Z" fill="#EEE7F9"/>
<path opacity="0.32" d="M24.9241 17.3174H23.7556C23.6148 17.3648 21.5474 17.4218 21.3467 17.486C18.0503 19.1789 6.10934 22.5337 0.96875 24.2874V28.9597C0.96875 34.3497 9.31897 35.5481 12.7987 31.9713L25.2061 19.0869C25.7227 18.5491 25.6698 17.3174 24.9241 17.3174Z" fill="#EEE7F9"/>
<path opacity="0.32" d="M24.9155 17.3174H23.7473C23.6048 17.3655 21.5431 17.4233 21.3398 17.4883C18.0343 19.1813 6.10339 22.5342 0.96875 24.2874V28.946C0.96875 34.3405 9.31566 35.5344 12.7939 31.9576L25.1902 19.0853C25.7045 18.55 25.6579 17.3174 24.9155 17.3174Z" fill="#EEE6F9"/>
<path opacity="0.32" d="M24.9068 17.3174H23.7389C23.5943 17.3661 21.5387 17.4246 21.3325 17.4907C18.0184 19.1837 6.09744 22.5349 0.96875 24.2874V28.9323C0.96875 34.3307 9.31236 35.5204 12.7891 31.9439L25.1744 19.0837C25.6864 18.5506 25.6459 17.3174 24.9068 17.3174Z" fill="#EDE6F9"/>
<path opacity="0.33" d="M24.898 17.3174H23.7306C23.5841 17.3668 21.5344 17.4261 21.3254 17.493C18.0024 19.1861 6.09164 22.5354 0.96875 24.2874V28.9186C0.96875 34.3212 9.30923 35.5067 12.7843 31.9305L25.1585 19.082C25.6684 18.5513 25.634 17.3174 24.898 17.3174Z" fill="#EDE6F9"/>
<path opacity="0.33" d="M24.8894 17.3174H23.7224C23.574 17.3674 21.5301 17.4274 21.3185 17.4953C17.9864 19.1884 6.08572 22.536 0.96875 24.2874V28.9049C0.96875 34.3117 9.30593 35.4927 12.7796 31.9167L25.1427 19.0803C25.6502 18.5519 25.6221 17.3174 24.8894 17.3174Z" fill="#EDE5F9"/>
<path opacity="0.33" d="M24.8807 17.3174H23.7141C23.5638 17.3679 21.5258 17.4289 21.3113 17.4976C17.9705 19.1908 6.07977 22.5365 0.96875 24.2874V28.8912C0.96875 34.3022 9.30262 35.479 12.7746 31.9033L25.1266 19.0787C25.6319 18.5527 25.61 17.3174 24.8807 17.3174Z" fill="#EDE5F9"/>
<path opacity="0.34" d="M24.8719 17.3174H23.7057C23.5534 17.3686 21.5213 17.4304 21.3042 17.4999C17.9545 19.1932 6.07381 22.537 0.96875 24.2874V28.8774C0.96875 34.2927 9.29931 35.4653 12.7698 31.8896L25.1108 19.0772C25.6137 18.5536 25.598 17.3174 24.8719 17.3174Z" fill="#ECE5F8"/>
<path opacity="0.34" d="M24.8633 17.3174H23.6976C23.5435 17.3693 21.5172 17.4317 21.2973 17.5022C17.9385 19.1955 6.06802 22.5377 0.96875 24.2874V28.8635C0.96875 34.2832 9.29601 35.4511 12.765 31.8759L25.0949 19.0754C25.5957 18.5541 25.5862 17.3174 24.8633 17.3174Z" fill="#ECE4F8"/>
<path opacity="0.34" d="M24.8545 17.3175H23.6892C23.533 17.3701 21.5127 17.4333 21.2901 17.5047C17.9226 19.198 6.06209 22.5384 0.96875 24.2876V28.85C0.96875 34.2738 9.29288 35.4376 12.7602 31.8624L25.0791 19.0737C25.5775 18.5549 25.574 17.3175 24.8545 17.3175Z" fill="#ECE4F8"/>
<path opacity="0.35" d="M24.8458 17.3174H23.6809C23.5228 17.3706 21.5085 17.4347 21.2831 17.5069C17.9066 19.2002 6.05614 22.5389 0.96875 24.2874V28.836C0.96875 34.2643 9.28958 35.4236 12.7554 31.8487L25.0632 19.0721C25.5593 18.5556 25.5621 17.3174 24.8458 17.3174Z" fill="#ECE4F8"/>
<path opacity="0.35" d="M24.837 17.3174H23.6725C23.5126 17.3712 21.504 17.436 21.2758 17.5091C17.8906 19.2026 6.05019 22.5393 0.96875 24.2874V28.8223C0.96875 34.2548 9.28627 35.4099 12.7506 31.835L25.0474 19.0704C25.5413 18.5562 25.5501 17.3174 24.837 17.3174Z" fill="#EBE3F8"/>
<path opacity="0.35" d="M24.8285 17.3175H23.6644C23.5025 17.3721 21.4999 17.4376 21.2689 17.5116C17.8747 19.205 6.04439 22.5402 0.96875 24.2876V28.8086C0.96875 34.2453 9.28296 35.396 12.7457 31.8213L25.0313 19.0688C25.523 18.5569 25.5382 17.3175 24.8285 17.3175Z" fill="#EBE3F8"/>
<path opacity="0.35" d="M24.8197 17.3175H23.656C23.4921 17.3727 21.4954 17.4391 21.2618 17.5139C17.8587 19.2075 6.03847 22.5407 0.96875 24.2876V28.7949C0.96875 34.2358 9.27982 35.3822 12.7409 31.8078L25.0156 19.0671C25.505 18.5577 25.5263 17.3175 24.8197 17.3175Z" fill="#EBE3F8"/>
<path opacity="0.36" d="M24.8109 17.3174H23.6477C23.482 17.3732 21.4911 17.4403 21.2547 17.5161C17.8428 19.2097 6.03251 22.5412 0.96875 24.2874V28.7812C0.96875 34.2263 9.27651 35.3683 12.7361 31.7941L24.9998 19.0655C25.4868 18.5584 25.5141 17.3174 24.8109 17.3174Z" fill="#EBE2F8"/>
<path opacity="0.36" d="M24.8023 17.3174H23.6395C23.4718 17.3739 21.4868 17.4418 21.2478 17.5184C17.8268 19.212 6.02656 22.5417 0.96875 24.2874V28.7675C0.96875 34.2165 9.2732 35.3543 12.7313 31.7807L24.9839 19.0638C25.4688 18.559 25.5023 17.3174 24.8023 17.3174Z" fill="#EAE2F8"/>
<path opacity="0.36" d="M24.7936 17.3175H23.6312C23.4615 17.3747 21.4825 17.4434 21.2406 17.5209C17.8108 19.2146 6.02061 22.5425 0.96875 24.2876V28.7538C0.96875 34.2073 9.26992 35.3406 12.7265 31.7669L24.968 19.0622C25.4506 18.5597 25.4903 17.3175 24.7936 17.3175Z" fill="#EAE2F8"/>
<path opacity="0.37" d="M24.7848 17.3174H23.6228C23.4513 17.3752 21.4781 17.4446 21.2334 17.523C17.7949 19.2168 6.01484 22.5428 0.96875 24.2874V28.7398C0.96875 34.1975 9.26661 35.3266 12.7216 31.7532L24.952 19.0604C25.4323 18.5603 25.4782 17.3174 24.7848 17.3174Z" fill="#EAE1F8"/>
<path opacity="0.37" d="M24.7762 17.3174H23.6147C23.4412 17.3759 21.4741 17.4461 21.2266 17.5253C17.7789 19.2191 6.00889 22.5435 0.96875 24.2874V28.7261C0.96875 34.188 9.26346 35.3129 12.7168 31.7395L24.9362 19.0587C25.4143 18.561 25.4665 17.3174 24.7762 17.3174Z" fill="#EAE1F8"/>
<path opacity="0.37" d="M24.7675 17.3174H23.6063C23.4308 17.3765 21.4696 17.4475 21.2193 17.5277C17.7629 19.2214 6.00294 22.544 0.96875 24.2874V28.7123C0.96875 34.1785 9.26016 35.2992 12.712 31.7261L24.9203 19.0572C25.3961 18.5618 25.4544 17.3174 24.7675 17.3174Z" fill="#EAE1F7"/>
<path opacity="0.38" d="M24.7587 17.3174H23.5978C23.4206 17.377 21.4652 17.4489 21.2122 17.53C17.747 19.2239 5.99698 22.5446 0.96875 24.2874V28.6986C0.96875 34.1691 9.25685 35.2854 12.7072 31.7123L24.9044 19.0554C25.3779 18.5625 25.4423 17.3174 24.7587 17.3174Z" fill="#E9E0F7"/>
<path opacity="0.38" d="M24.75 17.3174H23.5896C23.4103 17.3777 21.4609 17.4504 21.2051 17.5323C17.731 19.2262 5.99122 22.5451 0.96875 24.2874V28.6849C0.96875 34.1596 9.25354 35.2712 12.7024 31.6986L24.8886 19.0537C25.3597 18.5632 25.4303 17.3174 24.75 17.3174Z" fill="#E9E0F7"/>
<path opacity="0.38" d="M24.7414 17.3174H23.5813C23.4 17.3783 21.4566 17.4518 21.198 17.5346C17.715 19.2285 5.98526 22.5458 0.96875 24.2874V28.6712C0.96875 34.1501 9.25042 35.2575 12.6976 31.6852L24.8727 19.0521C25.3417 18.5638 25.4184 17.3174 24.7414 17.3174Z" fill="#E9E0F7"/>
<path opacity="0.38" d="M24.7326 17.3174H23.573C23.39 17.379 21.4523 17.4532 21.1911 17.5369C17.6991 19.231 5.97931 22.5463 0.96875 24.2874V28.6575C0.96875 34.1406 9.24712 35.2438 12.6927 31.6715L24.8567 19.0504C25.3234 18.5645 25.4063 17.3174 24.7326 17.3174Z" fill="#E9DFF7"/>
<path opacity="0.39" d="M24.7239 17.3174H23.5646C23.3796 17.3797 21.4478 17.4547 21.1838 17.5392C17.6831 19.2333 5.97336 22.547 0.96875 24.2874V28.6438C0.96875 34.1311 9.24381 35.2298 12.6879 31.6578L24.8408 19.0488C25.3052 18.5653 25.3944 17.3174 24.7239 17.3174Z" fill="#E8DFF7"/>
<path opacity="0.39" d="M24.7153 17.3174H23.5565C23.3695 17.3803 21.4437 17.4561 21.1769 17.5415C17.6672 19.2356 5.96759 22.5474 0.96875 24.2874V28.6298C0.96875 34.1216 9.2405 35.2161 12.6831 31.644L24.825 19.0471C25.2872 18.566 25.3824 17.3174 24.7153 17.3174Z" fill="#E8DFF7"/>
<path opacity="0.39" d="M24.7065 17.3174H23.5481C23.3593 17.381 21.4392 17.4575 21.1698 17.5439C17.6512 19.2381 5.96164 22.5481 0.96875 24.2874V28.6161C0.96875 34.1118 9.23719 35.2021 12.6783 31.6306L24.8091 19.0455C25.2691 18.5666 25.3705 17.3174 24.7065 17.3174Z" fill="#E8DEF7"/>
<path opacity="0.4" d="M24.6978 17.3174H23.5398C23.349 17.3816 21.4349 17.4589 21.1627 17.5461C17.6352 19.2404 5.95569 22.5486 0.96875 24.2874V28.6024C0.96875 34.1026 9.23404 35.1884 12.6735 31.6169L24.7933 19.0438C25.2509 18.5675 25.3586 17.3174 24.6978 17.3174Z" fill="#E8DEF7"/>
<path opacity="0.4" d="M24.689 17.3174H23.5314C23.3386 17.3823 21.4305 17.4604 21.1556 17.5485C17.6193 19.2427 5.94973 22.5493 0.96875 24.2874V28.5887C0.96875 34.0931 9.23076 35.1744 12.6686 31.6034L24.7772 19.0422C25.2325 18.5681 25.3464 17.3174 24.689 17.3174Z" fill="#E7DEF7"/>
<path opacity="0.4" d="M24.6804 17.3175H23.5233C23.3287 17.3831 21.4263 17.4619 21.1486 17.5509C17.6033 19.2452 5.94397 22.5499 0.96875 24.2876V28.5749C0.96875 34.0836 9.22746 35.1607 12.6638 31.5897L24.7614 19.0405C25.2145 18.5688 25.3347 17.3175 24.6804 17.3175Z" fill="#E7DDF7"/>
<path opacity="0.4" d="M24.6717 17.3174H23.5149C23.3183 17.3836 21.4219 17.4632 21.1413 17.5531C17.5873 19.2475 5.93801 22.5504 0.96875 24.2874V28.5612C0.96875 34.0738 9.22415 35.1467 12.659 31.576L24.7455 19.0389C25.1964 18.5694 25.3226 17.3174 24.6717 17.3174Z" fill="#E7DDF7"/>
<path opacity="0.41" d="M24.6629 17.3175H23.5066C23.308 17.3844 21.4176 17.4649 21.1344 17.5556C17.5714 19.25 5.93206 22.5511 0.96875 24.2876V28.5475C0.96875 34.0646 9.22084 35.133 12.6542 31.5625L24.7297 19.0372C25.1782 18.5703 25.3105 17.3175 24.6629 17.3175Z" fill="#E7DDF6"/>
<path opacity="0.41" d="M24.6543 17.3174H23.4984C23.298 17.385 21.4133 17.4661 21.1273 17.5577C17.5554 19.2521 5.92611 22.5514 0.96875 24.2874V28.5338C0.96875 34.0549 9.2177 35.1193 12.6494 31.5488L24.7138 19.0356C25.1602 18.5709 25.2986 17.3174 24.6543 17.3174Z" fill="#E6DCF6"/>
<path opacity="0.41" d="M24.6456 17.3174H23.4901C23.2877 17.3856 21.409 17.4675 21.1204 17.56C17.5395 19.2546 5.92034 22.5521 0.96875 24.2874V28.5201C0.96875 34.0456 9.21439 35.1053 12.6446 31.5354L24.6979 19.0339C25.142 18.5716 25.2866 17.3174 24.6456 17.3174Z" fill="#E6DCF6"/>
<path opacity="0.42" d="M24.6368 17.3174H23.4817C23.2773 17.3861 21.4045 17.4688 21.1131 17.5623C17.5235 19.2569 5.91439 22.5525 0.96875 24.2874V28.5061C0.96875 34.0359 9.21108 35.0913 12.6396 31.5217L24.6819 19.0323C25.1237 18.5724 25.2747 17.3174 24.6368 17.3174Z" fill="#E6DCF6"/>
<path opacity="0.42" d="M24.6282 17.3175H23.4736C23.2674 17.3869 21.4004 17.4705 21.1062 17.5648C17.5075 19.2594 5.90843 22.5534 0.96875 24.2876V28.4927C0.96875 34.0266 9.2078 35.0776 12.6348 31.508L24.6662 19.0306C25.1057 18.5731 25.2628 17.3175 24.6282 17.3175Z" fill="#E6DBF6"/>
<path opacity="0.42" d="M24.6195 17.3174H23.4652C23.257 17.3874 21.3959 17.4718 21.0991 17.567C17.4916 19.2617 5.90248 22.5537 0.96875 24.2874V28.4787C0.96875 34.0169 9.20465 35.0639 12.6301 31.4942L24.6504 19.029C25.0876 18.5737 25.2507 17.3174 24.6195 17.3174Z" fill="#E6DBF6"/>
<path opacity="0.43" d="M24.6107 17.3174H23.4567C23.2466 17.3881 21.3915 17.4731 21.0918 17.5693C17.4756 19.264 5.89671 22.5544 0.96875 24.2874V28.465C0.96875 34.0074 9.20135 35.0499 12.6253 31.4808L24.6345 19.0273C25.0695 18.5744 25.2386 17.3174 24.6107 17.3174Z" fill="#E5DBF6"/>
<path opacity="0.43" d="M24.6019 17.3175H23.4485C23.2365 17.3889 21.3872 17.4748 21.0847 17.5718C17.4595 19.2665 5.89076 22.555 0.96875 24.2876V28.4512C0.96875 33.9979 9.19804 35.0362 12.6205 31.4671L24.6186 19.0255C25.0513 18.5751 25.2268 17.3175 24.6019 17.3175Z" fill="#E5DAF6"/>
<path opacity="0.43" d="M24.5934 17.3174H23.4402C23.2263 17.3894 21.3829 17.4761 21.0777 17.5739C17.4437 19.2686 5.88481 22.5555 0.96875 24.2874V28.4373C0.96875 33.9884 9.19473 35.0222 12.6155 31.4534L24.6026 19.0238C25.0331 18.5757 25.2147 17.3174 24.5934 17.3174Z" fill="#E5DAF6"/>
<path opacity="0.43" d="M24.5846 17.3174H23.432C23.216 17.3901 21.3786 17.4774 21.0707 17.5762C17.4277 19.2711 5.87886 22.556 0.96875 24.2874V28.4236C0.96875 33.9789 9.19142 35.0083 12.6107 31.4399L24.5867 19.0222C25.015 18.5764 25.2028 17.3174 24.5846 17.3174Z" fill="#E5DAF6"/>
<path opacity="0.44" d="M24.5758 17.3174H23.4235C23.2058 17.3907 21.3741 17.4789 21.0635 17.5784C17.4116 19.2734 5.87309 22.5567 0.96875 24.2874V28.4098C0.96875 33.9694 9.1883 34.9945 12.6059 31.4262L24.5709 19.0207C24.9968 18.5772 25.1909 17.3174 24.5758 17.3174Z" fill="#E4D9F6"/>
<path opacity="0.44" d="M24.5672 17.3175H23.4154C23.1957 17.3915 21.37 17.4806 21.0566 17.5809C17.3958 19.2759 5.86714 22.5573 0.96875 24.2876V28.3961C0.96875 33.9599 9.18499 34.9808 12.6011 31.4125L24.555 19.0189C24.9786 18.5779 25.1788 17.3175 24.5672 17.3175Z" fill="#E4D9F6"/>
<path opacity="0.44" d="M24.5585 17.3174H23.407C23.1853 17.392 21.3655 17.4817 21.0493 17.583C17.3798 19.2782 5.86118 22.5578 0.96875 24.2874V28.3824C0.96875 33.9501 9.18169 34.9669 12.5964 31.3988L24.5392 19.0172C24.9606 18.5785 25.167 17.3174 24.5585 17.3174Z" fill="#E4D9F5"/>
<path opacity="0.45" d="M24.5497 17.3174H23.3988C23.1752 17.3927 21.3612 17.4832 21.0424 17.5853C17.3639 19.2805 5.85523 22.5584 0.96875 24.2874V28.3687C0.96875 33.9409 9.17838 34.9531 12.5916 31.3853L24.5233 19.0156C24.9424 18.5792 25.1547 17.3174 24.5497 17.3174Z" fill="#E4D8F5"/>
<path opacity="0.45" d="M24.5411 17.3174H23.3905C23.165 17.3934 21.357 17.4847 21.0353 17.5876C17.3479 19.2829 5.84946 22.559 0.96875 24.2874V28.355C0.96875 33.9314 9.17523 34.9394 12.5866 31.3719L24.5073 19.0141C24.9241 18.5802 25.143 17.3174 24.5411 17.3174Z" fill="#E3D8F5"/>
<path opacity="0.45" d="M24.5324 17.3174H23.3822C23.1547 17.394 21.3526 17.486 21.0283 17.5899C17.3318 19.2853 5.84351 22.5595 0.96875 24.2874V28.3413C0.96875 33.9219 9.17195 34.9254 12.5818 31.3581L24.4914 19.0123C24.9061 18.5807 25.1309 17.3174 24.5324 17.3174Z" fill="#E3D8F5"/>
<path opacity="0.46" d="M24.5237 17.3175H23.3738C23.1445 17.3948 21.3482 17.4877 21.0211 17.5924C17.316 19.2878 5.83756 22.5603 0.96875 24.2876V28.3276C0.96875 33.9124 9.16865 34.9115 12.577 31.3444L24.4756 19.0106C24.8879 18.5813 25.1189 17.3175 24.5237 17.3175Z" fill="#E3D7F5"/>
<path opacity="0.46" d="M24.5149 17.3174H23.3655C23.1342 17.3952 21.3439 17.489 21.014 17.5945C17.3 19.2899 5.83163 22.5606 0.96875 24.2874V28.3136C0.96875 33.9029 9.16534 34.8977 12.5722 31.3307L24.4597 19.009C24.8697 18.582 25.1068 17.3174 24.5149 17.3174Z" fill="#E3D7F5"/>
<path opacity="0.46" d="M24.5063 17.3174H23.3573C23.124 17.3958 21.3396 17.4903 21.007 17.5969C17.2839 19.2923 5.82568 22.5613 0.96875 24.2874V28.2999C0.96875 33.8932 9.16203 34.8838 12.5674 31.3173L24.4438 19.0073C24.8516 18.5828 25.0951 17.3174 24.5063 17.3174Z" fill="#E2D7F5"/>
<path opacity="0.46" d="M24.4975 17.3174H23.349C23.1139 17.3965 21.3353 17.4918 20.9999 17.5992C17.2681 19.2947 5.81988 22.5618 0.96875 24.2874V28.2861C0.96875 33.8837 9.15888 34.8701 12.5625 31.3036L24.4278 19.0057C24.8334 18.5835 25.083 17.3174 24.4975 17.3174Z" fill="#E2D6F5"/>
<path opacity="0.47" d="M24.4888 17.3175H23.3406C23.1035 17.3973 21.3308 17.4935 20.9927 17.6017C17.2521 19.2972 5.81393 22.5626 0.96875 24.2876V28.2724C0.96875 33.8745 9.15558 34.8563 12.5577 31.2901L24.4119 19.004C24.8152 18.5841 25.071 17.3175 24.4888 17.3175Z" fill="#E2D6F5"/>
<path opacity="0.47" d="M24.4802 17.3174H23.3325C23.0934 17.3978 21.3267 17.4946 20.9859 17.6038C17.236 19.2994 5.80801 22.563 0.96875 24.2874V28.2587C0.96875 33.8647 9.15227 34.8424 12.5529 31.2764L24.3961 19.0024C24.797 18.585 25.0592 17.3174 24.4802 17.3174Z" fill="#E2D6F5"/>
<path opacity="0.47" d="M24.4714 17.3175H23.3241C23.0832 17.3987 21.3223 17.4963 20.9786 17.6063C17.2202 19.302 5.80205 22.5638 0.96875 24.2876V28.245C0.96875 33.8555 9.14899 34.8287 12.5481 31.2627L24.3802 19.0007C24.7791 18.5856 25.047 17.3175 24.4714 17.3175Z" fill="#E2D5F5"/>
<path opacity="0.48" d="M24.4627 17.3174H23.3157C23.0728 17.3991 21.3178 17.4976 20.9715 17.6084C17.2041 19.3042 5.79626 22.5641 0.96875 24.2874V28.2313C0.96875 33.8457 9.14584 34.8147 12.5433 31.249L24.3644 18.9991C24.7609 18.5863 25.0351 17.3174 24.4627 17.3174Z" fill="#E1D5F5"/>
<path opacity="0.48" d="M24.4541 17.3175H23.3076C23.0627 17.4 21.3137 17.4991 20.9646 17.6109C17.1883 19.3066 5.79031 22.5649 0.96875 24.2876V28.2176C0.96875 33.8362 9.14253 34.801 12.5384 31.2355L24.3484 18.9974C24.7425 18.587 25.0231 17.3175 24.4541 17.3175Z" fill="#E1D5F4"/>
<path opacity="0.48" d="M24.4453 17.3174H23.2991C23.0525 17.4005 21.3094 17.5004 20.9573 17.6131C17.1723 19.3088 5.78438 22.5653 0.96875 24.2874V28.2036C0.96875 33.8267 9.13923 34.7867 12.5336 31.2218L24.3327 18.9958C24.7245 18.5878 25.0112 17.3174 24.4453 17.3174Z" fill="#E1D4F4"/>
<path opacity="0.49" d="M24.4366 17.3174H23.2909C23.0422 17.4011 21.3051 17.5019 20.9504 17.6154C17.1562 19.3113 5.77843 22.5658 0.96875 24.2874V28.1899C0.96875 33.817 9.13592 34.7733 12.5288 31.2081L24.3168 18.994C24.7065 18.5883 24.9993 17.3174 24.4366 17.3174Z" fill="#E1D4F4"/>
<path opacity="0.49" d="M24.4278 17.3174H23.2824C23.0318 17.4018 21.3006 17.5032 20.9431 17.6177C17.1404 19.3136 5.77263 22.5664 0.96875 24.2874V28.1762C0.96875 33.8077 9.13261 34.7593 12.524 31.1946L24.3009 18.9923C24.6883 18.5889 24.9871 17.3174 24.4278 17.3174Z" fill="#E0D4F4"/>
<path opacity="0.49" d="M24.4192 17.3174H23.2744C23.0219 17.4025 21.2965 17.5047 20.9363 17.62C17.1243 19.3159 5.76668 22.5669 0.96875 24.2874V28.1625C0.96875 33.7982 9.12949 34.7456 12.5192 31.1809L24.2851 18.9908C24.6702 18.5898 24.9753 17.3174 24.4192 17.3174Z" fill="#E0D3F4"/>
<path opacity="0.49" d="M24.4105 17.3174H23.2659C23.0115 17.4031 21.292 17.5062 20.9291 17.6223C17.1083 19.3183 5.76075 22.5676 0.96875 24.2874V28.1487C0.96875 33.7885 9.12618 34.7316 12.5144 31.1672L24.2692 18.989C24.6522 18.5904 24.9632 17.3174 24.4105 17.3174Z" fill="#E0D3F4"/>
<path opacity="0.5" d="M24.4017 17.3174H23.2577C23.0012 17.4038 21.2877 17.5075 20.922 17.6246C17.0925 19.3207 5.7548 22.5681 0.96875 24.2874V28.135C0.96875 33.779 9.12288 34.7179 12.5094 31.1535L24.2532 18.9873C24.6338 18.5911 24.9512 17.3174 24.4017 17.3174Z" fill="#E0D3F4"/>
<path opacity="0.5" d="M24.3931 17.3174H23.2494C22.9912 17.4043 21.2834 17.509 20.915 17.6269C17.0764 19.323 5.74901 22.5687 0.96875 24.2874V28.1213C0.96875 33.7698 9.11957 34.7039 12.5047 31.14L24.2373 18.9857C24.6157 18.5917 24.9393 17.3174 24.3931 17.3174Z" fill="#DFD2F4"/>
<path opacity="0.5" d="M24.3844 17.3174H23.2411C22.9809 17.4049 21.2791 17.5105 20.9079 17.6292C17.0604 19.3255 5.74306 22.5692 0.96875 24.2874V28.1076C0.96875 33.76 9.11626 34.6899 12.4999 31.1266L24.2215 18.9842C24.5975 18.5927 24.9274 17.3174 24.3844 17.3174Z" fill="#DFD2F4"/>
<path opacity="0.51" d="M24.3756 17.3174H23.2327C22.9705 17.4056 21.2747 17.5118 20.9006 17.6315C17.0446 19.3278 5.73713 22.5699 0.96875 24.2874V28.0936C0.96875 33.7505 9.11311 34.6762 12.4951 31.1129L24.2056 18.9824C24.5795 18.5932 24.9153 17.3174 24.3756 17.3174Z" fill="#DFD2F4"/>
<path opacity="0.51" d="M24.3668 17.3174H23.2245C22.9605 17.4063 21.2704 17.5133 20.8937 17.6339C17.0285 19.3301 5.73118 22.5704 0.96875 24.2874V28.0799C0.96875 33.741 9.10983 34.6622 12.4903 31.0992L24.1897 18.9807C24.5613 18.5939 24.9033 17.3174 24.3668 17.3174Z" fill="#DFD1F4"/>
<path opacity="0.51" d="M24.3583 17.3174H23.2162C22.9502 17.4069 21.2661 17.5146 20.8866 17.6362C17.0127 19.3324 5.72538 22.5711 0.96875 24.2874V28.0662C0.96875 33.7315 9.10653 34.6485 12.4853 31.0854L24.1737 18.9791C24.543 18.5946 24.8914 17.3174 24.3583 17.3174Z" fill="#DED1F4"/>
<path opacity="0.52" d="M24.3495 17.3174H23.2079C22.9399 17.4076 21.2618 17.5161 20.8797 17.6385C16.9966 19.3349 5.71943 22.5716 0.96875 24.2874V28.0525C0.96875 33.722 9.10322 34.6348 12.4806 31.072L24.1579 18.9774C24.5249 18.5954 24.8793 17.3174 24.3495 17.3174Z" fill="#DED1F3"/>
<path opacity="0.52" d="M24.3408 17.3175H23.1995C22.9297 17.4084 21.2573 17.5177 20.8724 17.641C16.9806 19.3374 5.7135 22.5724 0.96875 24.2876V28.0388C0.96875 33.7128 9.10007 34.6211 12.4758 31.0583L24.142 18.9758C24.5068 18.596 24.8674 17.3175 24.3408 17.3175Z" fill="#DED0F3"/>
<path opacity="0.52" d="M24.3322 17.3175H23.1914C22.9196 17.4091 21.2532 17.5191 20.8655 17.6433C16.9648 19.3397 5.70755 22.5729 0.96875 24.2876V28.025C0.96875 33.703 9.09676 34.6071 12.4709 31.0448L24.1261 18.9741C24.4886 18.5967 24.8554 17.3175 24.3322 17.3175Z" fill="#DED0F3"/>
<path opacity="0.52" d="M24.3234 17.3174H23.183C22.9092 17.4096 21.2487 17.5204 20.8584 17.6454C16.9487 19.342 5.70176 22.5734 0.96875 24.2874V28.0113C0.96875 33.6935 9.09346 34.5931 12.4662 31.0311L24.1103 18.9725C24.4704 18.5975 24.8435 17.3174 24.3234 17.3174Z" fill="#DED0F3"/>
<path opacity="0.53" d="M24.3146 17.3174H23.1746C22.899 17.4102 21.2443 17.5219 20.8511 17.6477C16.9327 19.3443 5.69583 22.5739 0.96875 24.2874V27.9976C0.96875 33.684 9.09015 34.5794 12.4614 31.0174L24.0944 18.9708C24.4524 18.5982 24.8314 17.3174 24.3146 17.3174Z" fill="#DDCFF3"/>
<path opacity="0.53" d="M24.306 17.3174H23.1665C22.8889 17.4109 21.2402 17.5232 20.8443 17.6501C16.9169 19.3466 5.68988 22.5745 0.96875 24.2874V27.9839C0.96875 33.6745 9.08687 34.5654 12.4564 31.0037L24.0784 18.9692C24.4341 18.5989 24.8195 17.3174 24.306 17.3174Z" fill="#DDCFF3"/>
<path opacity="0.53" d="M24.2973 17.3175H23.158C22.8785 17.4117 21.2357 17.5248 20.837 17.6525C16.9008 19.3493 5.68393 22.5752 0.96875 24.2876V27.9702C0.96875 33.665 9.08372 34.5517 12.4516 30.9902L24.0625 18.9675C24.4159 18.5995 24.8077 17.3175 24.2973 17.3175Z" fill="#DDCFF3"/>
<path opacity="0.54" d="M24.2886 17.3174H23.1498C22.8684 17.4122 21.2314 17.5262 20.8299 17.6547C16.8848 19.3514 5.67813 22.5757 0.96875 24.2874V27.9562C0.96875 33.6553 9.08041 34.5378 12.4468 30.9765L24.0467 18.9659C24.3979 18.6003 24.7956 17.3174 24.2886 17.3174Z" fill="#DDCEF3"/>
<path opacity="0.54" d="M24.2798 17.3174H23.1414C22.858 17.4129 21.2269 17.5275 20.8228 17.657C16.8689 19.3537 5.67221 22.5762 0.96875 24.2874V27.9425C0.96875 33.6461 9.07711 34.524 12.4421 30.9631L24.0308 18.9642C24.3798 18.601 24.7835 17.3174 24.2798 17.3174Z" fill="#DCCEF3"/>
<path opacity="0.54" d="M24.2712 17.3175H23.1333C22.8479 17.4135 21.2228 17.5291 20.8159 17.6595C16.8529 19.3562 5.66625 22.577 0.96875 24.2876V27.929C0.96875 33.6368 9.0738 34.5103 12.4373 30.9494L24.015 18.9626C24.3616 18.6016 24.7716 17.3175 24.2712 17.3175Z" fill="#DCCEF3"/>
<path opacity="0.55" d="M24.2624 17.3174H23.1248C22.8377 17.414 21.2183 17.5305 20.8086 17.6616C16.8371 19.3585 5.6603 22.5773 0.96875 24.2874V27.9148C0.96875 33.6268 9.07068 34.4961 12.4323 30.9356L23.9989 18.9608C24.3432 18.6023 24.7595 17.3174 24.2624 17.3174Z" fill="#DCCDF3"/>
<path opacity="0.55" d="M24.2537 17.3174H23.1166C22.8275 17.4147 21.214 17.5318 20.8017 17.6639C16.821 19.3608 5.65435 22.578 0.96875 24.2874V27.9011C0.96875 33.6173 9.06737 34.4824 12.4275 30.9219L23.9833 18.9591C24.3254 18.603 24.7475 17.3174 24.2537 17.3174Z" fill="#DCCDF3"/>
<path opacity="0.55" d="M24.2451 17.3174H23.1083C22.8172 17.4153 21.2098 17.5333 20.7946 17.6663C16.805 19.3631 5.64858 22.5785 0.96875 24.2874V27.8874C0.96875 33.6081 9.06406 34.4687 12.4227 30.9082L23.9674 18.9575C24.3072 18.6036 24.7358 17.3174 24.2451 17.3174Z" fill="#DBCDF2"/>
<path opacity="0.55" d="M24.2363 17.3174H23.1001C22.8071 17.416 21.2054 17.5348 20.7876 17.6685C16.7891 19.3656 5.64263 22.579 0.96875 24.2874V27.8737C0.96875 33.5983 9.06076 34.4549 12.4179 30.8948L23.9515 18.9558C24.289 18.6043 24.7237 17.3174 24.2363 17.3174Z" fill="#DBCDF2"/>
<path opacity="0.56" d="M24.2276 17.3174H23.0916C22.7967 17.4167 21.201 17.5361 20.7804 17.6709C16.7731 19.3679 5.63667 22.5797 0.96875 24.2874V27.86C0.96875 33.5888 9.05745 34.4407 12.4131 30.8811L23.9357 18.9541C24.271 18.6051 24.7116 17.3174 24.2276 17.3174Z" fill="#DBCCF2"/>
<path opacity="0.56" d="M24.219 17.3174H23.0835C22.7867 17.4173 21.1969 17.5376 20.7734 17.6732C16.7571 19.3702 5.63072 22.5801 0.96875 24.2874V27.8462C0.96875 33.5793 9.0543 34.427 12.4084 30.8676L23.9198 18.9525C24.2529 18.6058 24.6999 17.3174 24.219 17.3174Z" fill="#DBCCF2"/>
<path opacity="0.56" d="M24.2102 17.3174H23.0751C22.7764 17.418 21.1924 17.5391 20.7663 17.6755C16.7412 19.3727 5.62495 22.5808 0.96875 24.2874V27.8325C0.96875 33.5698 9.05102 34.4133 12.4034 30.8539L23.9038 18.9508C24.2345 18.6064 24.6877 17.3174 24.2102 17.3174Z" fill="#DACCF2"/>
<path opacity="0.57" d="M24.2015 17.3174H23.0668C22.7662 17.4186 21.1881 17.5404 20.7592 17.6778C16.7252 19.375 5.619 22.5813 0.96875 24.2874V27.8188C0.96875 33.5603 9.04771 34.3996 12.3986 30.8402L23.8879 18.9492C24.2164 18.6071 24.6758 17.3174 24.2015 17.3174Z" fill="#DACBF2"/>
<path opacity="0.57" d="M24.1927 17.3174H23.0584C22.7558 17.4193 21.1836 17.5419 20.7521 17.6801C16.7094 19.3773 5.61305 22.582 0.96875 24.2874V27.8051C0.96875 33.5511 9.04441 34.3856 12.3938 30.8267L23.8721 18.9477C24.1983 18.6081 24.6637 17.3174 24.1927 17.3174Z" fill="#DACBF2"/>
<path opacity="0.57" d="M24.1841 17.3174H23.0503C22.7458 17.4199 21.1795 17.5434 20.7452 17.6824C16.6933 19.3796 5.6071 22.5825 0.96875 24.2874V27.7911C0.96875 33.5414 9.0411 34.3716 12.389 30.813L23.8562 18.9459C24.1802 18.6086 24.6518 17.3174 24.1841 17.3174Z" fill="#DACBF2"/>
<path opacity="0.58" d="M24.1754 17.3175H23.0419C22.7354 17.4208 21.175 17.5448 20.7379 17.6849C16.6773 19.3823 5.60133 22.5833 0.96875 24.2876V27.7777C0.96875 33.5319 9.03795 34.3581 12.3842 30.7996L23.8403 18.9442C24.162 18.6092 24.64 17.3175 24.1754 17.3175Z" fill="#D9CAF2"/>
<path opacity="0.58" d="M24.1666 17.3174H23.0335C22.725 17.4213 21.1706 17.5461 20.7308 17.6871C16.6614 19.3844 5.59538 22.5836 0.96875 24.2874V27.7637C0.96875 33.5224 9.03465 34.3439 12.3793 30.7858L23.8243 18.9426C24.1438 18.6101 24.6277 17.3174 24.1666 17.3174Z" fill="#D9CAF2"/>
<path opacity="0.58" d="M24.158 17.3174H23.0254C22.7151 17.422 21.1665 17.5477 20.7239 17.6894C16.6454 19.3867 5.58942 22.5843 0.96875 24.2874V27.75C0.96875 33.5129 9.03134 34.3302 12.3745 30.7721L23.8085 18.9409C24.1256 18.6107 24.616 17.3174 24.158 17.3174Z" fill="#D9CAF2"/>
<path opacity="0.58" d="M24.1493 17.3174H23.017C22.7047 17.4224 21.162 17.549 20.7166 17.6917C16.6294 19.3892 5.58347 22.5848 0.96875 24.2874V27.7363C0.96875 33.5034 9.02806 34.3162 12.3697 30.7584L23.7926 18.9393C24.1075 18.6114 24.6039 17.3174 24.1493 17.3174Z" fill="#D9C9F2"/>
<path opacity="0.59" d="M24.1405 17.3175H23.0087C22.6945 17.4233 21.1577 17.5506 20.7097 17.6942C16.6135 19.3917 5.5777 22.5856 0.96875 24.2876V27.7225C0.96875 33.4939 9.02491 34.3028 12.3649 30.745L23.7767 18.9376C24.0893 18.6121 24.5919 17.3175 24.1405 17.3175Z" fill="#D9C9F1"/>
<path opacity="0.59" d="M24.1319 17.3174H23.0004C22.6844 17.4237 21.1534 17.5519 20.7026 17.6963C16.5975 19.3939 5.57175 22.5859 0.96875 24.2874V27.7088C0.96875 33.4841 9.0216 34.2888 12.3601 30.7312L23.7609 18.936C24.0713 18.6129 24.58 17.3174 24.1319 17.3174Z" fill="#D8C9F1"/>
<path opacity="0.59" d="M24.1232 17.3174H22.9922C22.6741 17.4244 21.1493 17.5533 20.6956 17.6986C16.5815 19.3963 5.5658 22.5866 0.96875 24.2874V27.6951C0.96875 33.4749 9.01829 34.2748 12.3553 30.7178L23.745 18.9343C24.0531 18.6135 24.5681 17.3174 24.1232 17.3174Z" fill="#D8C8F1"/>
<path opacity="0.6" d="M24.1144 17.3175H22.9837C22.6637 17.4252 21.1448 17.5549 20.6884 17.7011C16.5656 19.3988 5.55985 22.5873 0.96875 24.2876V27.6814C0.96875 33.4651 9.01499 34.2611 12.3504 30.7041L23.729 18.9327C24.0348 18.6142 24.556 17.3175 24.1144 17.3175Z" fill="#D8C8F1"/>
<path opacity="0.6" d="M24.1057 17.3175H22.9755C22.6537 17.4259 21.1405 17.5562 20.6812 17.7034C16.5496 19.4011 5.55408 22.5879 0.96875 24.2876V27.6677C0.96875 33.4559 9.01168 34.2471 12.3456 30.6904L23.7131 18.931C24.0168 18.615 24.544 17.3175 24.1057 17.3175Z" fill="#D8C8F1"/>
<path opacity="0.6" d="M24.0971 17.3175H22.9672C22.6434 17.4266 21.1362 17.5577 20.6743 17.7057C16.5337 19.4034 5.54813 22.5884 0.96875 24.2876V27.654C0.96875 33.4464 9.00856 34.2334 12.3408 30.6769L23.6973 18.9294C23.9986 18.6157 24.5322 17.3175 24.0971 17.3175Z" fill="#D7C7F1"/>
<path opacity="0.61" d="M24.0883 17.3174H22.959C22.6332 17.4271 21.132 17.559 20.6672 17.7079C16.5177 19.4058 5.54217 22.5889 0.96875 24.2874V27.64C0.96875 33.4367 9.00525 34.2194 12.336 30.6632L23.6814 18.9277C23.9804 18.6164 24.52 17.3174 24.0883 17.3174Z" fill="#D7C7F1"/>
<path opacity="0.61" d="M24.0796 17.3174H22.9505C22.6229 17.4277 21.1275 17.5604 20.6601 17.7102C16.5017 19.408 5.53622 22.5894 0.96875 24.2874V27.6263C0.96875 33.4272 9.00195 34.2057 12.3312 30.6495L23.6655 18.9259C23.9623 18.6168 24.5081 17.3174 24.0796 17.3174Z" fill="#D7C7F1"/>
<path opacity="0.61" d="M24.071 17.3174H22.9424C22.6128 17.4284 21.1234 17.5618 20.6532 17.7125C16.4858 19.4104 5.53045 22.5901 0.96875 24.2874V27.6126C0.96875 33.4177 8.99864 34.1917 12.3262 30.6358L23.6497 18.9242C23.9443 18.6177 24.4961 17.3174 24.071 17.3174Z" fill="#D7C6F1"/>
<path opacity="0.61" d="M24.0622 17.3174H22.934C22.6024 17.429 21.1189 17.5633 20.6459 17.7148C16.4698 19.4128 5.5245 22.5906 0.96875 24.2874V27.5989C0.96875 33.4082 8.99549 34.178 12.3214 30.6223L23.6338 18.9226C23.9261 18.6183 24.4841 17.3174 24.0622 17.3174Z" fill="#D6C6F1"/>
<path opacity="0.62" d="M24.0535 17.3174H22.9258C22.5924 17.4297 21.1146 17.5647 20.639 17.7171C16.4538 19.4152 5.51855 22.5912 0.96875 24.2874V27.5851C0.96875 33.3987 8.99218 34.164 12.3167 30.6086L23.618 18.9211C23.9079 18.6192 24.4721 17.3174 24.0535 17.3174Z" fill="#D6C6F1"/>
<path opacity="0.62" d="M24.0447 17.3174H22.9173C22.582 17.4304 21.1101 17.5661 20.6317 17.7194C16.4379 19.4175 5.5126 22.5917 0.96875 24.2874V27.5714C0.96875 33.3892 8.9889 34.1503 12.3119 30.5949L23.6021 18.9193C23.8899 18.6198 24.4601 17.3174 24.0447 17.3174Z" fill="#D6C5F1"/>
<path opacity="0.62" d="M24.0361 17.3174H22.9092C22.5719 17.431 21.106 17.5676 20.6248 17.7217C16.4219 19.4199 5.50683 22.5924 0.96875 24.2874V27.5574C0.96875 33.3794 8.98559 34.1363 12.3071 30.5812L23.5863 18.9176C23.8717 18.6205 24.4483 17.3174 24.0361 17.3174Z" fill="#D6C5F0"/>
<path opacity="0.63" d="M24.0274 17.3174H22.9008C22.5616 17.4315 21.1015 17.569 20.6176 17.7241C16.4058 19.4223 5.50087 22.5929 0.96875 24.2874V27.5437C0.96875 33.3702 8.98229 34.1226 12.3021 30.5677L23.5702 18.916C23.8534 18.6211 24.4362 17.3174 24.0274 17.3174Z" fill="#D5C5F0"/>
<path opacity="0.63" d="M24.0186 17.3174H22.8924C22.5512 17.4322 21.0971 17.5704 20.6104 17.7264C16.39 19.4246 5.49492 22.5933 0.96875 24.2874V27.53C0.96875 33.3607 8.97914 34.1089 12.2973 30.554L23.5544 18.9143C23.8352 18.6218 24.4242 17.3174 24.0186 17.3174Z" fill="#D5C4F0"/>
<path opacity="0.63" d="M24.01 17.3174H22.8843C22.5411 17.4328 21.093 17.5719 20.6036 17.7287C16.374 19.4269 5.48897 22.594 0.96875 24.2874V27.5163C0.96875 33.3512 8.97583 34.0949 12.2925 30.5406L23.5385 18.9127C23.8172 18.6226 24.4123 17.3174 24.01 17.3174Z" fill="#D5C4F0"/>
<path opacity="0.64" d="M24.0012 17.3175H22.8759C22.5309 17.4337 21.0885 17.5734 20.5963 17.7312C16.3581 19.4295 5.48304 22.5947 0.96875 24.2876V27.5026C0.96875 33.3417 8.97252 34.0812 12.2877 30.5268L23.5226 18.911C23.799 18.6233 24.4004 17.3175 24.0012 17.3175Z" fill="#D5C4F0"/>
<path opacity="0.64" d="M23.9925 17.3174H22.8676C22.5207 17.4342 21.0842 17.5747 20.5892 17.7333C16.3421 19.4317 5.47725 22.5952 0.96875 24.2874V27.4889C0.96875 33.3319 8.96922 34.0672 12.2829 30.5131L23.5068 18.9094C23.7809 18.624 24.3881 17.3174 23.9925 17.3174Z" fill="#D5C3F0"/>
<path opacity="0.64" d="M23.9839 17.3175H22.8593C22.5104 17.435 21.0799 17.5764 20.5823 17.7358C16.3261 19.4342 5.4713 22.5958 0.96875 24.2876V27.4752C0.96875 33.3227 8.96594 34.0535 12.2782 30.4997L23.4909 18.9077C23.7629 18.6246 24.3764 17.3175 23.9839 17.3175Z" fill="#D4C3F0"/>
<path opacity="0.64" d="M23.9752 17.3174H22.8511C22.5003 17.4355 21.0756 17.5775 20.5752 17.7379C16.3102 19.4365 5.46534 22.5963 0.96875 24.2874V27.4614C0.96875 33.3132 8.96279 34.0396 12.2732 30.486L23.4749 18.9061C23.7445 18.6254 24.3644 17.3174 23.9752 17.3174Z" fill="#D4C3F0"/>
<path opacity="0.65" d="M23.9664 17.3174H22.8427C22.4899 17.4361 21.0711 17.579 20.5681 17.7402C16.2942 19.4388 5.45942 22.5968 0.96875 24.2874V27.4477C0.96875 33.3035 8.95948 34.0256 12.2684 30.4723L23.4591 18.9044C23.7263 18.6261 24.3523 17.3174 23.9664 17.3174Z" fill="#D4C2F0"/>
<path opacity="0.65" d="M23.9576 17.3174H22.8344C22.4797 17.4368 21.0668 17.5805 20.561 17.7426C16.2781 19.4411 5.45362 22.5975 0.96875 24.2874V27.4338C0.96875 33.294 8.95617 34.0119 12.2636 30.4585L23.4432 18.9028C23.7082 18.6268 24.3404 17.3174 23.9576 17.3174Z" fill="#D4C2F0"/>
<path opacity="0.65" d="M23.949 17.3175H22.8261C22.4696 17.4376 21.0626 17.582 20.5539 17.745C16.2623 19.4436 5.44767 22.5981 0.96875 24.2876V27.4203C0.96875 33.2847 8.95287 33.9981 12.2588 30.4451L23.4273 18.9011C23.6902 18.6276 24.3284 17.3175 23.949 17.3175Z" fill="#D3C2F0"/>
<path opacity="0.66" d="M23.9403 17.3174H22.8179C22.4594 17.4381 21.0582 17.5833 20.5469 17.7472C16.2463 19.4459 5.44172 22.5986 0.96875 24.2874V27.4063C0.96875 33.275 8.94975 33.9842 12.254 30.4314L23.4115 18.8995C23.672 18.6282 24.3165 17.3174 23.9403 17.3174Z" fill="#D3C1F0"/>
<path opacity="0.66" d="M23.9315 17.3174H22.8094C22.449 17.4388 21.0538 17.5848 20.5397 17.7495C16.2302 19.4482 5.43579 22.5992 0.96875 24.2874V27.3926C0.96875 33.2655 8.94644 33.9705 12.2491 30.4179L23.3954 18.8978C23.6537 18.6289 24.3044 17.3174 23.9315 17.3174Z" fill="#D3C1EF"/>
<path opacity="0.66" d="M23.9229 17.3174H22.8013C22.4391 17.4394 21.0497 17.5861 20.5327 17.7517C16.2144 19.4505 5.43 22.5998 0.96875 24.2874V27.3786C0.96875 33.256 8.94313 33.9562 12.2443 30.4042L23.3796 18.896C23.6356 18.6294 24.2925 17.3174 23.9229 17.3174Z" fill="#D3C1EF"/>
<path opacity="0.67" d="M23.9142 17.3174H22.7929C22.4287 17.4401 21.0452 17.5876 20.5256 17.7539C16.1984 19.453 5.42405 22.6003 0.96875 24.2874V27.3649C0.96875 33.2465 8.93982 33.9425 12.2395 30.3905L23.3637 18.8943C23.6175 18.6302 24.2806 17.3174 23.9142 17.3174Z" fill="#D2C0EF"/>
<path opacity="0.67" d="M23.9054 17.3174H22.7847C22.4184 17.4406 21.0409 17.5891 20.5185 17.7563C16.1825 19.4553 5.41809 22.601 0.96875 24.2874V27.3512C0.96875 33.237 8.93652 33.9288 12.2347 30.3768L23.3479 18.8927C23.5993 18.6309 24.2686 17.3174 23.9054 17.3174Z" fill="#D2C0EF"/>
<path opacity="0.67" d="M23.8968 17.3174H22.7764C22.4083 17.4413 21.0366 17.5904 20.5116 17.7586C16.1665 19.4576 5.41217 22.6014 0.96875 24.2874V27.3378C0.96875 33.2275 8.93337 33.9151 12.2299 30.3633L23.332 18.8912C23.5811 18.6317 24.2567 17.3174 23.8968 17.3174Z" fill="#D2C0EF"/>
<path opacity="0.67" d="M23.8881 17.3174H22.7681C22.3981 17.4419 21.0323 17.5919 20.5045 17.7609C16.1504 19.4601 5.40637 22.6021 0.96875 24.2874V27.3238C0.96875 33.2177 8.93009 33.9011 12.2251 30.3496L23.3161 18.8894C23.5631 18.6324 24.2446 17.3174 23.8881 17.3174Z" fill="#D2BFEF"/>
<path opacity="0.68" d="M23.8793 17.3174H22.7597C22.3877 17.4426 21.0278 17.5934 20.4972 17.7632C16.1346 19.4624 5.40042 22.6026 0.96875 24.2874V27.3101C0.96875 33.2085 8.92678 33.8874 12.2202 30.3359L23.3003 18.8877C23.545 18.633 24.2326 17.3174 23.8793 17.3174Z" fill="#D1BFEF"/>
<path opacity="0.68" d="M23.8706 17.3174H22.7513C22.3774 17.4433 21.0234 17.5947 20.4901 17.7655C16.1186 19.4647 5.39449 22.6033 0.96875 24.2874V27.2963C0.96875 33.199 8.92348 33.8734 12.2154 30.3225L23.2844 18.8861C23.5268 18.6337 24.2205 17.3174 23.8706 17.3174Z" fill="#D1BFEF"/>
<path opacity="0.68" d="M23.862 17.3174H22.7432C22.3674 17.4439 21.0193 17.5962 20.4832 17.7678C16.1025 19.467 5.38854 22.6038 0.96875 24.2874V27.2826C0.96875 33.1895 8.92033 33.8597 12.2106 30.3087L23.2686 18.8846C23.5088 18.6345 24.2087 17.3174 23.862 17.3174Z" fill="#D1BEEF"/>
<path opacity="0.69" d="M23.8532 17.3174H22.7348C22.357 17.4446 21.0148 17.5975 20.4761 17.7701C16.0867 19.4695 5.38275 22.6044 0.96875 24.2874V27.2689C0.96875 33.18 8.91702 33.8457 12.2058 30.295L23.2527 18.8828C23.4906 18.6352 24.1965 17.3174 23.8532 17.3174Z" fill="#D1BEEF"/>
<path opacity="0.69" d="M23.8445 17.3175H22.7265C22.3469 17.4454 21.0105 17.5992 20.469 17.7726C16.0706 19.472 5.37679 22.6051 0.96875 24.2876V27.2552C0.96875 33.1705 8.91371 33.832 12.201 30.2816L23.2368 18.8811C23.4724 18.6359 24.1846 17.3175 23.8445 17.3175Z" fill="#D1BEEF"/>
<path opacity="0.69" d="M23.8359 17.3174H22.7182C22.3366 17.4459 21.0062 17.6005 20.4619 17.7748C16.0548 19.4741 5.37087 22.6056 0.96875 24.2874V27.2412C0.96875 33.1608 8.91041 33.818 12.1961 30.2679L23.2208 18.8795C23.4541 18.6365 24.1729 17.3174 23.8359 17.3174Z" fill="#D0BDEF"/>
<path opacity="0.7" d="M23.8271 17.3174H22.71C22.3264 17.4466 21.0019 17.6018 20.4549 17.7771C16.0388 19.4766 5.36492 22.6061 0.96875 24.2874V27.2275C0.96875 33.1513 8.90712 33.8043 12.1913 30.2544L23.205 18.8778C23.4361 18.6372 24.1607 17.3174 23.8271 17.3174Z" fill="#D0BDEE"/>
<path opacity="0.7" d="M23.8184 17.3174H22.7016C22.3161 17.4472 20.9974 17.6033 20.4477 17.7794C16.0227 19.4789 5.35912 22.6067 0.96875 24.2874V27.2138C0.96875 33.1418 8.90398 33.7906 12.1865 30.2407L23.1891 18.8762C23.4179 18.638 24.1488 17.3174 23.8184 17.3174Z" fill="#D0BDEE"/>
<path opacity="0.7" d="M23.8098 17.3175H22.6935C22.3061 17.448 20.9933 17.605 20.4407 17.7819C16.0069 19.4814 5.35317 22.6074 0.96875 24.2876V27.2001C0.96875 33.1323 8.90067 33.7766 12.1817 30.227L23.1732 18.8745C23.3997 18.6386 24.1369 17.3175 23.8098 17.3175Z" fill="#D0BCEE"/>
<path opacity="0.7" d="M23.801 17.3174H22.685C22.2957 17.4485 20.9889 17.6061 20.4336 17.784C15.9909 19.4837 5.34724 22.6077 0.96875 24.2874V27.1864C0.96875 33.1228 8.89736 33.7626 12.1769 30.2133L23.1574 18.8729C23.3817 18.6393 24.1248 17.3174 23.801 17.3174Z" fill="#CFBCEE"/>
<path opacity="0.71" d="M23.7923 17.3174H22.6768C22.2856 17.4492 20.9847 17.6076 20.4265 17.7863C15.9748 19.486 5.34129 22.6084 0.96875 24.2874V27.1727C0.96875 33.1133 8.89406 33.7489 12.1721 30.1998L23.1415 18.8712C23.3635 18.6401 24.1128 17.3174 23.7923 17.3174Z" fill="#CFBCEE"/>
<path opacity="0.71" d="M23.7835 17.3174H22.6684C22.2752 17.4497 20.9803 17.6091 20.4194 17.7886C15.959 19.4883 5.3355 22.6089 0.96875 24.2874V27.1589C0.96875 33.1038 8.89075 33.7349 12.1672 30.1861L23.1255 18.8696C23.3452 18.6408 24.1007 17.3174 23.7835 17.3174Z" fill="#CFBBEE"/>
<path opacity="0.71" d="M23.7749 17.3175H22.6603C22.2651 17.4505 20.9762 17.6106 20.4125 17.7911C15.9429 19.4908 5.32954 22.6097 0.96875 24.2876V27.1452C0.96875 33.0943 8.88763 33.7212 12.1624 30.1727L23.1096 18.8679C23.327 18.6415 24.089 17.3175 23.7749 17.3175Z" fill="#CFBBEE"/>
<path opacity="0.72" d="M23.7662 17.3175H22.6518C22.2549 17.4512 20.9717 17.6121 20.4052 17.7934C15.9269 19.4933 5.32362 22.6102 0.96875 24.2876V27.1315C0.96875 33.0848 8.88432 33.7075 12.1576 30.1589L23.0938 18.8663C23.309 18.6421 24.0769 17.3175 23.7662 17.3175Z" fill="#CEBBEE"/>
<path opacity="0.72" d="M23.7574 17.3175H22.6436C22.2446 17.4518 20.9674 17.6136 20.3983 17.7957C15.9111 19.4956 5.31767 22.6109 0.96875 24.2876V27.1178C0.96875 33.0753 8.88101 33.6938 12.1528 30.1452L23.0779 18.8646C23.2909 18.6429 24.0649 17.3175 23.7574 17.3175Z" fill="#CEBAEE"/>
<path opacity="0.72" d="M23.7488 17.3174H22.6353C22.2344 17.4523 20.9631 17.6147 20.3911 17.7979C15.895 19.4977 5.31187 22.6112 0.96875 24.2874V27.1038C0.96875 33.0658 8.87771 33.6796 12.148 30.1315L23.062 18.8628C23.2727 18.6434 24.053 17.3174 23.7488 17.3174Z" fill="#CEBAEE"/>
<path opacity="0.72" d="M23.7401 17.3174H22.6271C22.2243 17.453 20.9588 17.6162 20.3842 17.8002C15.8792 19.5002 5.30592 22.6119 0.96875 24.2874V27.0901C0.96875 33.0563 8.87456 33.6658 12.143 30.1181L23.046 18.8613C23.2545 18.6443 24.0411 17.3174 23.7401 17.3174Z" fill="#CEBAEE"/>
<path opacity="0.73" d="M23.7313 17.3174H22.6186C22.2139 17.4537 20.9543 17.6177 20.3769 17.8025C15.8631 19.5025 5.29999 22.6124 0.96875 24.2874V27.0764C0.96875 33.0466 8.87128 33.6519 12.1382 30.1043L23.0302 18.8595C23.2363 18.6449 24.0288 17.3174 23.7313 17.3174Z" fill="#CDB9EE"/>
<path opacity="0.73" d="M23.7226 17.3174H22.6102C22.2035 17.4543 20.9499 17.619 20.3697 17.8048C15.8471 19.5048 5.29404 22.613 0.96875 24.2874V27.0627C0.96875 33.0374 8.86797 33.6381 12.1334 30.0906L23.0143 18.8578C23.2182 18.6456 24.017 17.3174 23.7226 17.3174Z" fill="#CDB9ED"/>
<path opacity="0.73" d="M23.714 17.3174H22.6021C22.1936 17.455 20.9458 17.6205 20.3629 17.8071C15.8313 19.5073 5.28809 22.6135 0.96875 24.2874V27.049C0.96875 33.0276 8.86466 33.6244 12.1287 30.0772L22.9984 18.8562C23.2002 18.6462 24.0052 17.3174 23.714 17.3174Z" fill="#CDB9ED"/>
<path opacity="0.74" d="M23.7052 17.3174H22.5937C22.1831 17.4556 20.9413 17.622 20.3556 17.8095C15.8152 19.5096 5.28229 22.6142 0.96875 24.2874V27.0352C0.96875 33.0184 8.86136 33.6105 12.1239 30.0635L22.9826 18.8547C23.182 18.6471 23.993 17.3174 23.7052 17.3174Z" fill="#CDB8ED"/>
<path opacity="0.74" d="M23.6964 17.3174H22.5854C22.1729 17.4563 20.937 17.6233 20.3485 17.8118C15.7992 19.512 5.27637 22.6147 0.96875 24.2874V27.0213C0.96875 33.0086 8.85821 33.5965 12.1191 30.0498L22.9669 18.8529C23.164 18.6477 23.9811 17.3174 23.6964 17.3174Z" fill="#CDB8ED"/>
<path opacity="0.74" d="M23.6878 17.3174H22.5772C22.1628 17.457 20.9327 17.6248 20.3416 17.8141C15.7834 19.5143 5.27041 22.6153 0.96875 24.2874V27.0076C0.96875 32.9991 8.8549 33.5828 12.1141 30.036L22.9509 18.8512C23.1456 18.6484 23.969 17.3174 23.6878 17.3174Z" fill="#CCB8ED"/>
<path opacity="0.75" d="M23.6791 17.3174H22.5689C22.1526 17.4576 20.9284 17.6263 20.3345 17.8164C15.7673 19.5167 5.26446 22.6158 0.96875 24.2874V26.9938C0.96875 32.9896 8.85159 33.569 12.1093 30.0226L22.935 18.8496C23.1276 18.6491 23.9571 17.3174 23.6791 17.3174Z" fill="#CCB7ED"/>
<path opacity="0.75" d="M23.6704 17.3174H22.5605C22.1422 17.4583 20.924 17.6276 20.3274 17.8187C15.7513 19.5191 5.25869 22.6165 0.96875 24.2874V26.9801C0.96875 32.9801 8.84829 33.5551 12.1045 30.0091L22.9192 18.8479C23.1095 18.6499 23.9451 17.3174 23.6704 17.3174Z" fill="#CCB7ED"/>
<path opacity="0.75" d="M23.6618 17.3174H22.5524C22.1323 17.4588 20.9198 17.6291 20.3204 17.821C15.7354 19.5214 5.25274 22.617 0.96875 24.2874V26.9664C0.96875 32.9706 8.84516 33.5414 12.0997 29.9954L22.9033 18.8463C23.0913 18.6505 23.9332 17.3174 23.6618 17.3174Z" fill="#CCB7ED"/>
<path opacity="0.75" d="M23.653 17.3175H22.544C22.1219 17.4596 20.9154 17.6307 20.3132 17.8235C15.7194 19.524 5.24679 22.6178 0.96875 24.2876V26.9527C0.96875 32.9614 8.84186 33.5276 12.095 29.9817L22.8874 18.8446C23.0733 18.6512 23.9211 17.3175 23.653 17.3175Z" fill="#CBB6ED"/>
<path opacity="0.76" d="M23.6442 17.3174H22.5357C22.1116 17.4601 20.9111 17.6319 20.3062 17.8256C15.7036 19.5261 5.24084 22.6181 0.96875 24.2874V26.939C0.96875 32.9516 8.83855 33.5134 12.09 29.968L22.8714 18.843C23.055 18.6519 23.9092 17.3174 23.6442 17.3174Z" fill="#CBB6ED"/>
<path opacity="0.76" d="M23.6355 17.3174H22.5273C22.1014 17.4607 20.9066 17.6334 20.299 17.8279C15.6875 19.5285 5.23507 22.6188 0.96875 24.2874V26.9253C0.96875 32.9421 8.83524 33.4997 12.0852 29.9545L22.8556 18.8413C23.0368 18.6527 23.8972 17.3174 23.6355 17.3174Z" fill="#CBB6ED"/>
<path opacity="0.76" d="M23.6269 17.3174H22.5192C22.0913 17.4614 20.9025 17.6349 20.2922 17.8303C15.6715 19.5309 5.22912 22.6193 0.96875 24.2874V26.9116C0.96875 32.9327 8.83194 33.486 12.0804 29.9408L22.8397 18.8397C23.0186 18.6533 23.8853 17.3174 23.6269 17.3174Z" fill="#CBB5ED"/>
<path opacity="0.77" d="M23.6181 17.3175H22.5107C22.0809 17.4623 20.898 17.6363 20.2849 17.8328C15.6557 19.5334 5.22316 22.6201 0.96875 24.2876V26.8978C0.96875 32.9232 8.82881 33.4723 12.0756 29.9274L22.8238 18.838C23.0006 18.654 23.8734 17.3175 23.6181 17.3175Z" fill="#CAB5EC"/>
<path opacity="0.77" d="M23.6094 17.3174H22.5025C22.0708 17.4628 20.8937 17.6377 20.2778 17.8349C15.6396 19.5356 5.21721 22.6205 0.96875 24.2874V26.8839C0.96875 32.9137 8.82551 33.4583 12.0708 29.9137L22.808 18.8364C22.9824 18.6547 23.8611 17.3174 23.6094 17.3174Z" fill="#CAB5EC"/>
<path opacity="0.77" d="M23.6008 17.3174H22.4942C22.0606 17.4634 20.8894 17.6391 20.2709 17.8372C15.6236 19.5379 5.21144 22.6211 0.96875 24.2874V26.8701C0.96875 32.9042 8.8222 33.4446 12.066 29.8999L22.7921 18.8347C22.9642 18.6555 23.8494 17.3174 23.6008 17.3174Z" fill="#CAB4EC"/>
<path opacity="0.78" d="M23.592 17.3175H22.486C22.0503 17.4642 20.8851 17.6406 20.2638 17.8397C15.6077 19.5405 5.20549 22.6218 0.96875 24.2876V26.8567C0.96875 32.8947 8.81889 33.4308 12.0611 29.8865L22.7761 18.8331C22.9461 18.6562 23.8372 17.3175 23.592 17.3175Z" fill="#CAB4EC"/>
<path opacity="0.78" d="M23.5833 17.3175H22.4775C22.0401 17.4649 20.8807 17.6421 20.2565 17.842C15.5917 19.5428 5.19954 22.6223 0.96875 24.2876V26.8427C0.96875 32.8852 8.81559 33.4166 12.0563 29.8728L22.7602 18.8314C22.9279 18.6568 23.8253 17.3175 23.5833 17.3175Z" fill="#C9B4EC"/>
<path opacity="0.78" d="M23.5747 17.3174H22.4693C22.0299 17.4654 20.8764 17.6433 20.2496 17.8441C15.5757 19.545 5.19358 22.6228 0.96875 24.2874V26.8287C0.96875 32.8757 8.81244 33.4029 12.0515 29.8591L22.7444 18.8296C22.9097 18.6575 23.8136 17.3174 23.5747 17.3174Z" fill="#C9B3EC"/>
<path opacity="0.78" d="M23.5659 17.3174H22.461C22.0196 17.4661 20.8721 17.6448 20.2425 17.8465C15.5598 19.5475 5.18782 22.6233 0.96875 24.2874V26.8153C0.96875 32.8659 8.80916 33.3889 12.0467 29.8456L22.7285 18.8281C22.8916 18.6583 23.8013 17.3174 23.5659 17.3174Z" fill="#C9B3EC"/>
<path opacity="0.79" d="M23.5572 17.3174H22.4526C22.0093 17.4667 20.8676 17.6463 20.2353 17.8488C15.5438 19.5498 5.18186 22.6239 0.96875 24.2874V26.8016C0.96875 32.8567 8.80585 33.3752 12.0419 29.8319L22.7126 18.8263C22.8735 18.6588 23.7895 17.3174 23.5572 17.3174Z" fill="#C9B3EC"/>
<path opacity="0.79" d="M23.5484 17.3174H22.4443C21.9991 17.4674 20.8633 17.6476 20.2283 17.8511C15.5279 19.5521 5.17591 22.6244 0.96875 24.2874V26.7876C0.96875 32.8469 8.80254 33.3612 12.037 29.8182L22.6966 18.8246C22.8552 18.6595 23.7774 17.3174 23.5484 17.3174Z" fill="#C9B2EC"/>
<path opacity="0.79" d="M23.5398 17.3174H22.4361C21.9889 17.4679 20.859 17.6491 20.2211 17.8534C15.5119 19.5546 5.16996 22.6251 0.96875 24.2874V26.7739C0.96875 32.8374 8.7994 33.3475 12.0322 29.8045L22.6808 18.823C22.837 18.6603 23.7655 17.3174 23.5398 17.3174Z" fill="#C8B2EC"/>
<path opacity="0.8" d="M23.5311 17.3174H22.4278C21.9788 17.4685 20.8547 17.6506 20.2142 17.8557C15.4959 19.5569 5.16419 22.6256 0.96875 24.2874V26.7602C0.96875 32.8279 8.79609 33.3335 12.0274 29.791L22.6649 18.8215C22.819 18.6611 23.7534 17.3174 23.5311 17.3174Z" fill="#C8B2EC"/>
<path opacity="0.8" d="M23.5223 17.3174H22.4194C21.9684 17.4692 20.8503 17.6519 20.2069 17.858C15.48 19.5592 5.15824 22.6262 0.96875 24.2874V26.7465C0.96875 32.8185 8.79278 33.3198 12.0226 29.7773L22.649 18.8197C22.8009 18.6616 23.7415 17.3174 23.5223 17.3174Z" fill="#C8B1EC"/>
<path opacity="0.8" d="M23.5137 17.3174H22.4113C21.9583 17.4698 20.8461 17.6534 20.2002 17.8603C15.464 19.5615 5.15229 22.6267 0.96875 24.2874V26.7327C0.96875 32.809 8.78947 33.3061 12.0178 29.7639L22.6332 18.818C22.7827 18.6624 23.7296 17.3174 23.5137 17.3174Z" fill="#C8B1EB"/>
<path opacity="0.81" d="M23.505 17.3174H22.4029C21.9481 17.4705 20.8417 17.6548 20.1929 17.8626C15.448 19.564 5.14633 22.6274 0.96875 24.2874V26.7188C0.96875 32.7995 8.78619 33.2919 12.0128 29.7501L22.6173 18.8164C22.7645 18.6631 23.7176 17.3174 23.505 17.3174Z" fill="#C7B1EB"/>
<path opacity="0.81" d="M23.4962 17.3175H22.3946C21.9378 17.4713 20.8374 17.6563 20.1858 17.8651C15.4321 19.5664 5.14057 22.6281 0.96875 24.2876V26.7053C0.96875 32.79 8.78305 33.2784 12.008 29.7364L22.6015 18.8147C22.7465 18.6638 23.7055 17.3175 23.4962 17.3175Z" fill="#C7B0EB"/>
<path opacity="0.81" d="M23.4876 17.3174H22.3864C21.9276 17.4718 20.8331 17.6577 20.1789 17.8673C15.4161 19.5686 5.13461 22.6285 0.96875 24.2874V26.6913C0.96875 32.7805 8.77974 33.2644 12.0033 29.7227L22.5856 18.8131C22.7283 18.6644 23.6936 17.3174 23.4876 17.3174Z" fill="#C7B0EB"/>
<path opacity="0.81" d="M23.4789 17.3174H22.3781C21.9175 17.4725 20.8288 17.6591 20.1717 17.8696C15.4001 19.5711 5.12866 22.629 0.96875 24.2874V26.6776C0.96875 32.771 8.77643 33.2507 11.9985 29.7093L22.5697 18.8114C22.7101 18.6652 23.6818 17.3174 23.4789 17.3174Z" fill="#C7B0EB"/>
<path opacity="0.82" d="M23.4701 17.3174H22.3697C21.9071 17.4731 20.8243 17.6605 20.1645 17.8719C15.3842 19.5734 5.12271 22.6297 0.96875 24.2874V26.6639C0.96875 32.7612 8.77312 33.2367 11.9937 29.6956L22.5539 18.8098C22.6922 18.6659 23.6695 17.3174 23.4701 17.3174Z" fill="#C6AFEB"/>
<path opacity="0.82" d="M23.4613 17.3175H22.3614C21.8969 17.474 20.8202 17.6621 20.1575 17.8744C15.3682 19.5759 5.11676 22.6303 0.96875 24.2876V26.6502C0.96875 32.752 8.77 33.223 11.9889 29.6821L22.538 18.8081C22.674 18.6666 23.6576 17.3175 23.4613 17.3175Z" fill="#C6AFEB"/>
<path opacity="0.82" d="M23.4528 17.3174H22.3531C21.8868 17.4745 20.8159 17.6634 20.1504 17.8765C15.3523 19.5782 5.11099 22.6309 0.96875 24.2874V26.6365C0.96875 32.7425 8.76669 33.209 11.9839 29.6684L22.522 18.8065C22.6556 18.6674 23.6457 17.3174 23.4528 17.3174Z" fill="#C6AFEB"/>
<path opacity="0.83" d="M23.444 17.3174H22.3449C21.8765 17.4751 20.8116 17.6647 20.1435 17.8788C15.3363 19.5805 5.10504 22.6314 0.96875 24.2874V26.6228C0.96875 32.7327 8.76339 33.1951 11.9791 29.6547L22.5061 18.8048C22.6375 18.6681 23.6337 17.3174 23.444 17.3174Z" fill="#C6AEEB"/>
<path opacity="0.83" d="M23.4353 17.3174H22.3365C21.8661 17.4758 20.8071 17.6663 20.1362 17.8811C15.3203 19.5828 5.09908 22.632 0.96875 24.2874V26.6088C0.96875 32.7232 8.76008 33.1814 11.9743 29.641L22.4903 18.8032C22.6195 18.6687 23.6218 17.3174 23.4353 17.3174Z" fill="#C5AEEB"/>
<path opacity="0.83" d="M23.4267 17.3175H22.3282C21.856 17.4766 20.8028 17.6679 20.1291 17.8836C15.3044 19.5853 5.09316 22.6327 0.96875 24.2876V26.5953C0.96875 32.714 8.75677 33.1676 11.9695 29.6275L22.4744 18.8015C22.6013 18.6694 23.6099 17.3175 23.4267 17.3175Z" fill="#C5AEEB"/>
<path opacity="0.84" d="M23.4179 17.3175H22.3199C21.8458 17.4771 20.7985 17.6692 20.1222 17.8859C15.2884 19.5878 5.08736 22.6333 0.96875 24.2876V26.5816C0.96875 32.7045 8.75363 33.1539 11.9648 29.6141L22.4586 18.7999C22.5831 18.6702 23.5978 17.3175 23.4179 17.3175Z" fill="#C5ADEB"/>
<path opacity="0.84" d="M23.4092 17.3174H22.3115C21.8354 17.4776 20.7941 17.6705 20.1149 17.8881C15.2724 19.5899 5.08141 22.6337 0.96875 24.2874V26.5676C0.96875 32.6948 8.75032 33.1399 11.9598 29.6003L22.4425 18.7982C22.5649 18.6709 23.5857 17.3174 23.4092 17.3174Z" fill="#C5ADEA"/>
<path opacity="0.84" d="M23.4004 17.3174H22.3033C21.8253 17.4783 20.7898 17.672 20.108 17.8904C15.2565 19.5922 5.07546 22.6343 0.96875 24.2874V26.5539C0.96875 32.6855 8.74704 33.1262 11.955 29.5866L22.4267 18.7964C22.5468 18.6714 23.5737 17.3174 23.4004 17.3174Z" fill="#C5ADEA"/>
<path opacity="0.84" d="M23.3918 17.3174H22.295C21.8151 17.4789 20.7855 17.6733 20.1009 17.8927C15.2405 19.5947 5.06953 22.6348 0.96875 24.2874V26.5402C0.96875 32.6758 8.74373 33.112 11.9502 29.5729L22.4108 18.7948C22.5286 18.672 23.5618 17.3174 23.3918 17.3174Z" fill="#C4ACEA"/>
<path opacity="0.85" d="M23.383 17.3174H22.2867C21.8048 17.4796 20.7812 17.6748 20.0938 17.895C15.2246 19.597 5.06374 22.6355 0.96875 24.2874V26.5265C0.96875 32.6663 8.74042 33.0983 11.9454 29.5592L22.3949 18.7931C22.5104 18.6728 23.5499 17.3174 23.383 17.3174Z" fill="#C4ACEA"/>
<path opacity="0.85" d="M23.3743 17.3174H22.2783C21.7946 17.4802 20.7767 17.6763 20.0867 17.8973C15.2086 19.5993 5.05778 22.636 0.96875 24.2874V26.5128C0.96875 32.6568 8.73727 33.0846 11.9406 29.5458L22.3791 18.7916C22.4924 18.6737 23.5378 17.3174 23.3743 17.3174Z" fill="#C4ACEA"/>
<path opacity="0.85" d="M23.3657 17.3174H22.2702C21.7845 17.4809 20.7726 17.6776 20.0797 17.8996C15.1926 19.6016 5.05183 22.6365 0.96875 24.2874V26.4991C0.96875 32.6473 8.73397 33.0706 11.9358 29.532L22.3632 18.7898C22.4742 18.6742 23.526 17.3174 23.3657 17.3174Z" fill="#C4ABEA"/>
<path opacity="0.86" d="M23.357 17.3174H22.2618C21.7741 17.4816 20.7682 17.6791 20.0725 17.902C15.1767 19.6041 5.04591 22.6371 0.96875 24.2874V26.4851C0.96875 32.6378 8.73066 33.0569 11.9309 29.5183L22.3472 18.7881C22.4559 18.675 23.514 17.3174 23.357 17.3174Z" fill="#C3ABEA"/>
<path opacity="0.86" d="M23.3482 17.3174H22.2535C21.764 17.4822 20.7639 17.6806 20.0655 17.9043C15.1607 19.6064 5.04011 22.6376 0.96875 24.2874V26.4714C0.96875 32.628 8.72738 33.0429 11.9261 29.5049L22.3313 18.7865C22.4379 18.6757 23.5018 17.3174 23.3482 17.3174Z" fill="#C3ABEA"/>
<path opacity="0.86" d="M23.3396 17.3174H22.2453C21.7538 17.4829 20.7596 17.6819 20.0584 17.9066C15.1447 19.6088 5.03416 22.6383 0.96875 24.2874V26.4577C0.96875 32.6188 8.72423 33.0292 11.9213 29.4912L22.3155 18.7848C22.4197 18.6763 23.4901 17.3174 23.3396 17.3174Z" fill="#C3AAEA"/>
<path opacity="0.87" d="M23.3308 17.3174H22.237C21.7435 17.4836 20.7553 17.6834 20.0515 17.9089C15.1288 19.6112 5.02821 22.6388 0.96875 24.2874V26.4439C0.96875 32.6093 8.72093 33.0152 11.9165 29.4774L22.2996 18.7832C22.4016 18.677 23.478 17.3174 23.3308 17.3174Z" fill="#C3AAEA"/>
<path opacity="0.87" d="M23.3221 17.3175H22.2286C21.7333 17.4844 20.7508 17.6849 20.0442 17.9114C15.1128 19.6137 5.02228 22.6396 0.96875 24.2876V26.4302C0.96875 32.5998 8.71762 33.0015 11.9117 29.464L22.2838 18.7815C22.3834 18.6778 23.466 17.3175 23.3221 17.3175Z" fill="#C2AAEA"/>
<path opacity="0.87" d="M23.3133 17.3174H22.2203C21.723 17.4849 20.7465 17.6862 20.0371 17.9135C15.0968 19.6158 5.01649 22.6399 0.96875 24.2874V26.4165C0.96875 32.5901 8.71431 32.9875 11.9068 29.4503L22.2679 18.7799C22.3654 18.6784 23.4541 17.3174 23.3133 17.3174Z" fill="#C2A9EA"/>
<path opacity="0.87" d="M23.3047 17.3174H22.2121C21.7128 17.4855 20.7422 17.6877 20.0302 17.9158C15.0809 19.6183 5.01053 22.6406 0.96875 24.2874V26.4028C0.96875 32.5808 8.711 32.9738 11.902 29.4368L22.252 18.7782C22.3472 18.6791 23.442 17.3174 23.3047 17.3174Z" fill="#C2A9E9"/>
<path opacity="0.88" d="M23.296 17.3174H22.2038C21.7027 17.486 20.7379 17.689 20.0231 17.9181C15.0649 19.6206 5.00458 22.6411 0.96875 24.2874V26.3891C0.96875 32.5711 8.70788 32.9601 11.8972 29.4231L22.2362 18.7766C22.329 18.6799 23.4301 17.3174 23.296 17.3174Z" fill="#C2A9E9"/>
<path opacity="0.88" d="M23.2872 17.3174H22.1954C21.6923 17.4867 20.7335 17.6905 20.016 17.9204C15.049 19.6229 4.99865 22.6417 0.96875 24.2874V26.3754C0.96875 32.5618 8.70458 32.9461 11.8924 29.4094L22.2203 18.7749C22.311 18.6806 23.418 17.3174 23.2872 17.3174Z" fill="#C1A8E9"/>
<path opacity="0.88" d="M23.2786 17.3174H22.1871C21.6821 17.4874 20.7292 17.692 20.0089 17.9228C15.033 19.6253 4.99286 22.6422 0.96875 24.2874V26.3614C0.96875 32.5521 8.70127 32.9321 11.8876 29.3957L22.2045 18.7733C22.2929 18.6813 23.4062 17.3174 23.2786 17.3174Z" fill="#C1A8E9"/>
<path opacity="0.89" d="M23.2699 17.3175H22.1789C21.672 17.4882 20.7249 17.6935 20.0018 17.9251C15.017 19.6279 4.98691 22.6431 0.96875 24.2876V26.3479C0.96875 32.5429 8.69796 32.9184 11.8828 29.3822L22.1886 18.7716C22.2747 18.6819 23.3941 17.3175 23.2699 17.3175Z" fill="#C1A8E9"/>
<path opacity="0.89" d="M23.2611 17.3175H22.1704C21.6616 17.4888 20.7204 17.695 19.9946 17.9274C15.0011 19.6302 4.98096 22.6436 0.96875 24.2876V26.3342C0.96875 32.5334 8.69481 32.9047 11.8779 29.3688L22.1726 18.77C22.2563 18.6827 23.3822 17.3175 23.2611 17.3175Z" fill="#C1A7E9"/>
<path opacity="0.89" d="M23.2525 17.3174H22.1623C21.6515 17.4893 20.7163 17.6963 19.9877 17.9295C14.9851 19.6324 4.97503 22.6441 0.96875 24.2874V26.3203C0.96875 32.5239 8.69151 32.8907 11.8731 29.3551L22.1567 18.7683C22.2383 18.6834 23.3702 17.3174 23.2525 17.3174Z" fill="#C0A7E9"/>
<path opacity="0.9" d="M23.2438 17.3175H22.1539C21.6413 17.4902 20.7118 17.6978 19.9804 17.932C14.9691 19.635 4.96924 22.6447 0.96875 24.2876V26.3066C0.96875 32.5141 8.68823 32.877 11.8683 29.3414L22.1409 18.7667C22.2202 18.6841 23.3583 17.3175 23.2438 17.3175Z" fill="#C0A7E9"/>
<path opacity="0.9" d="M23.235 17.3175H22.1457C21.631 17.4908 20.7075 17.6993 19.9735 17.9343C14.9532 19.6373 4.96328 22.6454 0.96875 24.2876V26.2929C0.96875 32.5049 8.68492 32.8633 11.8635 29.3276L22.125 18.765C22.202 18.6847 23.3464 17.3175 23.235 17.3175Z" fill="#C0A6E9"/>
<path opacity="0.9" d="M23.2263 17.3174H22.1372C21.6206 17.4913 20.7031 17.7006 19.9662 17.9365C14.9372 19.6395 4.95733 22.6457 0.96875 24.2874V26.279C0.96875 32.4951 8.68161 32.849 11.8587 29.3139L22.1091 18.7632C22.184 18.6854 23.3341 17.3174 23.2263 17.3174Z" fill="#C0A6E9"/>
<path opacity="0.9" d="M23.2177 17.3174H22.1291C21.6107 17.492 20.6989 17.7019 19.9595 17.9388C14.9211 19.642 4.9514 22.6464 0.96875 24.2874V26.2653C0.96875 32.4856 8.67846 32.8353 11.8537 29.3005L22.0931 18.7617C22.1656 18.6862 23.3224 17.3174 23.2177 17.3174Z" fill="#C0A6E9"/>
<path opacity="0.91" d="M23.2089 17.3174H22.1207C21.6003 17.4926 20.6945 17.7034 19.9522 17.9411C14.9053 19.6442 4.94561 22.6469 0.96875 24.2874V26.2514C0.96875 32.4761 8.67516 32.8214 11.849 29.2868L22.0773 18.7599C22.1475 18.6867 23.3102 17.3174 23.2089 17.3174Z" fill="#BFA5E9"/>
<path opacity="0.91" d="M23.2002 17.3174H22.1124C21.59 17.4933 20.6902 17.7049 19.9451 17.9434C14.8893 19.6466 4.93966 22.6475 0.96875 24.2874V26.2377C0.96875 32.4666 8.67185 32.8076 11.8442 29.273L22.0614 18.7582C22.1293 18.6875 23.2983 17.3174 23.2002 17.3174Z" fill="#BFA5E8"/>
<path opacity="0.91" d="M23.1916 17.3174H22.1042C21.58 17.494 20.6859 17.7062 19.9382 17.9457C14.8734 19.6489 4.93373 22.648 0.96875 24.2874V26.224C0.96875 32.4571 8.66854 32.7939 11.8394 29.2596L22.0455 18.7566C22.1113 18.6882 23.2864 17.3174 23.1916 17.3174Z" fill="#BFA5E8"/>
<path opacity="0.92" d="M23.1828 17.3174H22.0959C21.5697 17.4946 20.6816 17.7077 19.931 17.948C14.8574 19.6514 4.92778 22.6487 0.96875 24.2874V26.2103C0.96875 32.4476 8.66542 32.7802 11.8346 29.2459L22.0297 18.7551C22.0931 18.689 23.2743 17.3174 23.1828 17.3174Z" fill="#BFA4E8"/>
<path opacity="0.92" d="M23.1741 17.3174H22.0875C21.5593 17.4951 20.6771 17.7092 19.9239 17.9504C14.8414 19.6537 4.92183 22.6492 0.96875 24.2874V26.1966C0.96875 32.4379 8.66211 32.7662 11.8298 29.2324L22.0138 18.7535C22.0749 18.6897 23.2624 17.3174 23.1741 17.3174Z" fill="#BEA4E8"/>
<path opacity="0.92" d="M23.1655 17.3175H22.0794C21.5494 17.4959 20.673 17.7107 19.917 17.9528C14.8255 19.6561 4.91603 22.65 0.96875 24.2876V26.1828C0.96875 32.4287 8.65881 32.7523 11.8248 29.2187L21.9978 18.7516C22.0568 18.6903 23.2505 17.3175 23.1655 17.3175Z" fill="#BEA4E8"/>
<path opacity="0.93" d="M23.1567 17.3174H22.071C21.539 17.4964 20.6685 17.712 19.9097 17.955C14.8095 19.6585 4.9101 22.6503 0.96875 24.2874V26.169C0.96875 32.4189 8.6555 32.7385 11.82 29.205L21.9819 18.75C22.0386 18.691 23.2385 17.3174 23.1567 17.3174Z" fill="#BEA3E8"/>
<path opacity="0.93" d="M23.1479 17.3174H22.0627C21.5288 17.4971 20.6642 17.7135 19.9028 17.9573C14.7934 19.6608 4.90415 22.6508 0.96875 24.2874V26.1553C0.96875 32.4094 8.65219 32.7246 11.8153 29.1916L21.9661 18.7483C22.0204 18.6917 23.2264 17.3174 23.1479 17.3174Z" fill="#BEA3E8"/>
<path opacity="0.93" d="M23.1392 17.3174H22.0543C21.5185 17.4978 20.6599 17.7148 19.8955 17.9596C14.7776 19.6631 4.8982 22.6515 0.96875 24.2874V26.1416C0.96875 32.3999 8.64907 32.7109 11.8105 29.1778L21.9502 18.7467C22.0023 18.6925 23.2145 17.3174 23.1392 17.3174Z" fill="#BDA3E8"/>
<path opacity="0.93" d="M23.1306 17.3175H22.046C21.5083 17.4986 20.6556 17.7165 19.8884 17.9621C14.7616 19.6657 4.89241 22.6522 0.96875 24.2876V26.1279C0.96875 32.3907 8.64576 32.6971 11.8057 29.1641L21.9345 18.745C21.9844 18.6932 23.2025 17.3175 23.1306 17.3175Z" fill="#BDA2E8"/>
<path opacity="0.94" d="M23.1219 17.3174H22.0378C21.498 17.4991 20.6513 17.7178 19.8815 17.9642C14.7455 19.6679 4.88648 22.6527 0.96875 24.2874V26.114C0.96875 32.3809 8.64246 32.6832 11.8007 29.1504L21.9185 18.7434C21.9661 18.6938 23.1906 17.3174 23.1219 17.3174Z" fill="#BDA2E8"/>
<path opacity="0.94" d="M23.1131 17.3174H22.0294C21.4878 17.4997 20.6469 17.7191 19.8742 17.9665C14.7297 19.6702 4.88053 22.6532 0.96875 24.2874V26.1003C0.96875 32.3714 8.63915 32.6692 11.7959 29.137L21.9026 18.7417C21.9479 18.6945 23.1785 17.3174 23.1131 17.3174Z" fill="#BDA2E8"/>
<path opacity="0.94" d="M23.1045 17.3174H22.0213C21.4777 17.5004 20.6427 17.7206 19.8674 17.9688C14.7137 19.6725 4.87458 22.6538 0.96875 24.2874V26.0866C0.96875 32.3619 8.63584 32.6555 11.7911 29.1232L21.8868 18.7401C21.9299 18.6953 23.1666 17.3174 23.1045 17.3174Z" fill="#BCA1E8"/>
<path opacity="0.95" d="M23.0957 17.3175H22.0128C21.4673 17.5012 20.6383 17.7222 19.8602 17.9713C14.6978 19.6752 4.86878 22.6545 0.96875 24.2876V26.0728C0.96875 32.3524 8.63269 32.6418 11.7863 29.1095L21.8709 18.7384C21.9117 18.696 23.1547 17.3175 23.0957 17.3175Z" fill="#BCA1E7"/>
<path opacity="0.95" d="M23.087 17.3175H22.0046C21.4572 17.5019 20.634 17.7236 19.8531 17.9736C14.6818 19.6775 4.86285 22.6551 0.96875 24.2876V26.0591C0.96875 32.3429 8.62941 32.6278 11.7816 29.0961L21.8551 18.7368C21.8936 18.6966 23.1425 17.3175 23.087 17.3175Z" fill="#BCA1E7"/>
<path opacity="0.95" d="M23.0782 17.3174H21.9961C21.4468 17.5024 20.6295 17.7249 19.846 17.9758C14.6657 19.6796 4.8569 22.6555 0.96875 24.2874V26.0453C0.96875 32.3334 8.62611 32.6138 11.7766 29.0824L21.839 18.7351C21.8752 18.6975 23.1306 17.3174 23.0782 17.3174Z" fill="#BCA0E7"/>
<path opacity="0.96" d="M23.0697 17.3175H21.988C21.4368 17.5032 20.6254 17.7264 19.839 17.9783C14.6499 19.6823 4.85095 22.6563 0.96875 24.2876V26.0317C0.96875 32.3239 8.6228 32.6003 11.7718 29.0689L21.8232 18.7335C21.8572 18.6981 23.1187 17.3175 23.0697 17.3175Z" fill="#BCA0E7"/>
<path opacity="0.96" d="M23.0609 17.3174H21.9796C21.4265 17.5037 20.6209 17.7277 19.8319 17.9804C14.6339 19.6844 4.84516 22.6566 0.96875 24.2874V26.0178C0.96875 32.3145 8.61965 32.5864 11.767 29.0552L21.8073 18.7318C21.839 18.6988 23.1067 17.3174 23.0609 17.3174Z" fill="#BBA0E7"/>
<path opacity="0.96" d="M23.0522 17.3174H21.9714C21.4163 17.5042 20.6167 17.7292 19.8248 17.9827C14.6178 19.6867 4.83923 22.6573 0.96875 24.2874V26.004C0.96875 32.305 8.61634 32.5724 11.7622 29.0415L21.7915 18.73C21.8208 18.6993 23.0946 17.3174 23.0522 17.3174Z" fill="#BB9FE7"/>
<path opacity="0.96" d="M23.0436 17.3174H21.9631C21.406 17.5049 20.6123 17.7305 19.8177 17.985C14.602 19.6892 4.83328 22.6578 0.96875 24.2874V25.9903C0.96875 32.2952 8.61304 32.5584 11.7574 29.0278L21.7756 18.7285C21.8028 18.7003 23.0829 17.3174 23.0436 17.3174Z" fill="#BB9FE7"/>
<path opacity="0.97" d="M23.0348 17.3174H21.9548C21.3959 17.5055 20.6081 17.732 19.8108 17.9874C14.5859 19.6915 4.82732 22.6584 0.96875 24.2874V25.9766C0.96875 32.286 8.60973 32.5447 11.7526 29.0141L21.7597 18.7267C21.7847 18.7008 23.0708 17.3174 23.0348 17.3174Z" fill="#BB9FE7"/>
<path opacity="0.97" d="M23.026 17.3174H21.9464C21.3855 17.5062 20.6036 17.7335 19.8035 17.9897C14.5701 19.6938 4.82156 22.6589 0.96875 24.2874V25.9628C0.96875 32.2762 8.60645 32.5307 11.7477 29.0006L21.7437 18.7252C21.7663 18.7016 23.0587 17.3174 23.026 17.3174Z" fill="#BA9EE7"/>
<path opacity="0.97" d="M23.0174 17.3174H21.9383C21.3755 17.5069 20.5995 17.7348 19.7966 17.992C14.5541 19.6961 4.8156 22.6596 0.96875 24.2874V25.949C0.96875 32.2667 8.6033 32.517 11.7429 28.9869L21.7278 18.7234C21.7482 18.7021 23.0468 17.3174 23.0174 17.3174Z" fill="#BA9EE7"/>
<path opacity="0.98" d="M23.0087 17.3175H21.9299C21.3652 17.5077 20.595 17.7364 19.7895 17.9944C14.538 19.6988 4.80965 22.6603 0.96875 24.2876V25.9354C0.96875 32.2575 8.59999 32.5033 11.7381 28.9734L21.712 18.7217C21.7302 18.7029 23.0348 17.3175 23.0087 17.3175Z" fill="#BA9EE7"/>
<path opacity="0.98" d="M22.9999 17.3174H21.9216C21.355 17.5082 20.5907 17.7378 19.7824 17.9966C14.5222 19.7009 4.8037 22.6608 0.96875 24.2874V25.9215C0.96875 32.2477 8.59669 32.4893 11.7333 28.9597L21.6961 18.7201C21.712 18.7036 23.0229 17.3174 22.9999 17.3174Z" fill="#BA9DE7"/>
<path opacity="0.98" d="M22.9912 17.3174H21.9132C21.3446 17.5088 20.5863 17.7391 19.7752 17.9989C14.5062 19.7032 4.79793 22.6612 0.96875 24.2874V25.9078C0.96875 32.2382 8.59338 32.4756 11.7285 28.946L21.6803 18.7184C21.6938 18.7042 23.0106 17.3174 22.9912 17.3174Z" fill="#B99DE6"/>
<path opacity="0.99" d="M22.9826 17.3174H21.905C21.3345 17.5095 20.582 17.7406 19.7682 18.0012C14.4901 19.7057 4.79198 22.6619 0.96875 24.2874V25.894C0.96875 32.2287 8.59026 32.4616 11.7236 28.9323L21.6642 18.7168C21.6756 18.7051 22.999 17.3174 22.9826 17.3174Z" fill="#B99DE6"/>
<path opacity="0.99" d="M22.9738 17.3175H21.8967C21.3242 17.5103 20.5777 17.7422 19.761 18.0037C14.4742 19.7082 4.78603 22.6626 0.96875 24.2876V25.8804C0.96875 32.2192 8.58695 32.4479 11.7188 28.9189L21.6484 18.7151C21.6574 18.7057 22.9871 17.3175 22.9738 17.3175Z" fill="#B99CE6"/>
<path opacity="0.99" d="M22.9651 17.3174H21.8883C21.3138 17.5108 20.5732 17.7434 19.7539 18.0058C14.4582 19.7103 4.78007 22.6631 0.96875 24.2874V25.8665C0.96875 32.2098 8.58364 32.4339 11.714 28.9051L21.6325 18.7135C21.6393 18.7064 22.9748 17.3174 22.9651 17.3174Z" fill="#B99CE6"/>
<path opacity="0.99" d="M22.9565 17.3174H21.8802C21.3039 17.5115 20.5691 17.7449 19.747 18.0082C14.4422 19.7128 4.77431 22.6636 0.96875 24.2874V25.8528C0.96875 32.2003 8.58034 32.4202 11.7092 28.8917L21.6167 18.7118C21.6211 18.707 22.9631 17.3174 22.9565 17.3174Z" fill="#B89CE6"/>
<path d="M22.9477 17.3174H21.8717C21.2935 17.5121 20.5646 17.7463 19.7399 18.0105C14.4264 19.7151 4.76835 22.6642 0.96875 24.2874V25.8391C0.96875 32.1908 8.57703 32.4062 11.7044 28.878L21.6008 18.7103C21.6031 18.708 22.951 17.3174 22.9477 17.3174Z" fill="#B89BE6"/>
<path d="M11.6996 28.8643L22.9391 17.3174H21.8636C17.5521 18.7691 5.35219 22.4127 0.96875 24.2876V25.8254C0.96875 32.1813 8.57388 32.3925 11.6996 28.8643Z" fill="#B89BE6"/>
</g>
<path d="M10.7057 28.4731L21.8635 17.3174H7.93999C4.08985 17.3175 0.96875 20.4381 0.96875 24.2876V24.4409C0.96875 29.5215 7.11265 32.0655 10.7057 28.4731Z" fill="#648D84"/>
</g>
<path d="M45.4361 14.5057L44.2617 11.4367H38.3715L37.1971 14.5057H35.2573L40.2221 2.08804H42.3577L47.3047 14.5057H45.4361ZM38.9588 9.89341H43.6744L41.3076 3.7378L38.9588 9.89341ZM53.7389 4.55383H52.2441C52.5288 3.79103 52.3508 3.31205 51.8169 3.31205C51.3187 3.31205 51.034 3.72005 51.034 4.41191V5.63594H53.7389V7.1083H51.034V14.5057H49.3792V7.1083H47.7775V5.63594H49.3792V4.41191C49.3792 2.81536 50.2509 1.85742 51.8703 1.85742C53.5786 1.85742 54.2194 2.975 53.7389 4.55383ZM59.008 5.4053C60.3424 5.4053 61.179 6.43419 61.179 7.76466C61.179 8.33233 61.0186 8.88224 60.8051 9.34346H59.0611C59.3281 8.91772 59.435 8.50972 59.435 8.13719C59.435 7.40988 59.0257 6.93091 58.3849 6.93091C57.3351 6.93091 56.6234 8.22588 56.6234 10.1772V14.5057H54.9683V5.63594H56.6234V7.14377C57.1216 6.04394 57.9402 5.4053 59.008 5.4053ZM63.6444 4.2345C62.9859 4.2345 62.4878 3.72005 62.4878 3.08144C62.4878 2.42509 62.9859 1.92838 63.6444 1.92838C64.2849 1.92838 64.7831 2.42509 64.7831 3.08144C64.7831 3.72005 64.2849 4.2345 63.6444 4.2345ZM62.8079 14.5057V5.63594H64.463V14.5057H62.8079ZM70.6842 14.7363C68.0505 14.7363 66.2887 12.8559 66.2887 10.0708C66.2887 7.26797 68.0327 5.4053 70.7731 5.4053C73.5137 5.4053 75.0439 7.28569 74.51 9.85791H72.8017C73.1221 8.01302 72.3213 6.87769 70.7376 6.87769C69.0828 6.87769 68.0327 8.15494 68.0327 10.0708C68.0327 11.9867 69.1005 13.2639 70.7019 13.2639C71.9297 13.2639 72.8017 12.5011 73.1578 11.3303H74.955C74.5815 13.0865 73.1756 14.7363 70.6842 14.7363ZM80.077 5.4053C82.5684 5.4053 83.7962 7.01961 83.7962 9.44991V14.5057H82.2302V12.9446C81.5895 14.0799 80.4863 14.7363 79.0449 14.7363C77.212 14.7363 75.9842 13.6719 75.9842 12.0931C75.9842 10.3191 77.5501 9.2193 80.0235 9.2193C80.7355 9.2193 81.4829 9.30799 82.1411 9.48538V9.44991C82.1411 7.9598 81.6252 6.87769 80.0592 6.87769C78.8491 6.87769 78.084 7.5163 78.351 8.6871H76.6247C76.1442 6.77125 77.7991 5.4053 80.077 5.4053ZM79.2939 13.3348C80.7532 13.3348 81.9453 12.3769 82.1945 10.8513C81.5895 10.6562 80.8421 10.5498 80.1481 10.5498C78.5645 10.5498 77.6925 11.1706 77.6925 12.1108C77.6925 12.8913 78.2975 13.3348 79.2939 13.3348ZM90.5833 5.4053C93.4305 5.4053 93.4305 8.19041 93.4305 9.64505V14.5057H91.7757V9.69827C91.7757 8.52746 91.7757 6.91316 90.0497 6.91316C88.5192 6.91316 87.4694 8.22588 87.4694 10.195V14.5057H85.8143V5.63594H87.4694V7.32119C88.1099 6.11488 89.2131 5.4053 90.5833 5.4053ZM45.0448 18.4006H38.4072V22.3388H44.1017V23.8821H38.4072V29.2749H36.6455V16.8573H45.0448V18.4006ZM47.5524 19.0037C46.8939 19.0037 46.3957 18.4893 46.3957 17.8507C46.3957 17.1943 46.8939 16.6976 47.5524 16.6976C48.1929 16.6976 48.691 17.1943 48.691 17.8507C48.691 18.4893 48.1929 19.0037 47.5524 19.0037ZM46.7158 29.2749V20.4052H48.3709V29.2749H46.7158ZM55.393 20.1745C58.2402 20.1745 58.2402 22.9596 58.2402 24.4143V29.2749H56.5853V24.4675C56.5853 23.2967 56.5853 21.6824 54.8591 21.6824C53.3288 21.6824 52.2788 22.9951 52.2788 24.9642V29.2749H50.6239V20.4052H52.2788V22.0904C52.9196 20.8841 54.0228 20.1745 55.393 20.1745ZM65.1135 21.8775H62.6044V26.5961C62.6044 27.4121 62.7468 28.0332 63.8145 28.0332C64.2415 28.0332 64.5974 27.9267 64.9355 27.7671V29.2572C64.5619 29.3991 64.0635 29.5054 63.5119 29.5054C61.0028 29.5054 60.9496 27.43 60.9496 26.614V21.8775H59.3122V20.4052H60.9496V18.0813H62.6044V20.4052H65.1135V21.8775ZM72.9642 26.5431H74.7614C74.2452 28.3703 72.7327 29.5054 70.6151 29.5054C67.9102 29.5054 66.202 27.6429 66.202 24.84C66.202 22.0372 67.928 20.1745 70.6863 20.1745C73.7293 20.1745 75.1884 22.4452 74.4055 25.3722H67.9637C68.1417 27.0397 69.0846 28.0332 70.6151 28.0332C71.7541 28.0332 72.6261 27.4654 72.9642 26.5431ZM70.6329 21.6114C69.1558 21.6114 68.2306 22.4984 67.9991 24.024H72.8927C73.0354 22.5339 72.2168 21.6114 70.6329 21.6114ZM80.468 29.5054C77.8343 29.5054 76.0725 27.6252 76.0725 24.84C76.0725 22.0372 77.8165 20.1745 80.5569 20.1745C83.2975 20.1745 84.8277 22.0549 84.2938 24.6271H82.5856C82.9059 22.7822 82.1051 21.6469 80.5214 21.6469C78.8666 21.6469 77.8165 22.9242 77.8165 24.84C77.8165 26.7559 78.8843 28.0332 80.4857 28.0332C81.7136 28.0332 82.5856 27.2702 82.9417 26.0995H84.7388C84.3653 27.8557 82.9594 29.5054 80.468 29.5054ZM91.0336 20.1745C93.0265 20.1745 93.952 21.6647 93.952 23.9353V29.2749H92.2971V23.9353C92.2971 22.5871 91.781 21.6824 90.5174 21.6824C89.0406 21.6824 87.9906 22.9951 87.9906 24.9642V29.2749H86.3357V16.8573H87.9906V22.0904C88.5422 20.9019 89.6454 20.1745 91.0336 20.1745ZM45.4361 44.0441L44.2617 40.9753H38.3715L37.1971 44.0441H35.2573L40.2221 31.6266H42.3577L47.3047 44.0441H45.4361ZM38.9588 39.4319H43.6744L41.3076 33.2763L38.9588 39.4319ZM52.3505 44.2746C49.7168 44.2746 47.955 42.3944 47.955 39.6091C47.955 36.8064 49.699 34.9439 52.4394 34.9439C55.1797 34.9439 56.7102 36.8241 56.1763 39.3963H54.4681C54.7884 37.5515 53.9876 36.4161 52.4039 36.4161C50.7488 36.4161 49.699 37.6933 49.699 39.6091C49.699 41.5252 50.7665 42.8024 52.3682 42.8024C53.5961 42.8024 54.4681 42.0395 54.8239 40.8687H56.6213C56.2475 42.625 54.8416 44.2746 52.3505 44.2746ZM61.7433 34.9439C64.2344 34.9439 65.4622 36.558 65.4622 38.9883V44.0441H63.8963V42.4831C63.2558 43.6184 62.1525 44.2746 60.7109 44.2746C58.8781 44.2746 57.6502 43.2104 57.6502 41.6315C57.6502 39.8576 59.2162 38.7578 61.6898 38.7578C62.4015 38.7578 63.1489 38.8464 63.8074 39.0239V38.9883C63.8074 37.4982 63.2912 36.4161 61.7253 36.4161C60.5152 36.4161 59.7501 37.0548 60.017 38.2256H58.291C57.8105 36.3098 59.4654 34.9439 61.7433 34.9439ZM60.9602 42.8734C62.4195 42.8734 63.6116 41.9155 63.8608 40.3898C63.2558 40.1946 62.5084 40.0883 61.8144 40.0883C60.2305 40.0883 59.3585 40.7092 59.3585 41.6494C59.3585 42.4298 59.9636 42.8734 60.9602 42.8734ZM74.1182 31.6266H75.7731V44.0441H74.1182V42.6426C73.442 43.6715 72.3742 44.2746 71.0395 44.2746C68.6907 44.2746 67.0536 42.4121 67.0536 39.6091C67.0536 36.8241 68.6727 34.9439 71.0395 34.9439C72.3742 34.9439 73.442 35.5468 74.1182 36.5759V31.6266ZM71.5022 42.8024C73.1216 42.8024 74.1894 41.5075 74.1894 39.6091C74.1894 37.711 73.1216 36.4161 71.5022 36.4161C69.8828 36.4161 68.7973 37.711 68.7973 39.6091C68.7973 41.5075 69.8828 42.8024 71.5022 42.8024ZM84.2772 41.3123H86.0743C85.5584 43.1395 84.0457 44.2746 81.9281 44.2746C79.2232 44.2746 77.5149 42.4121 77.5149 39.6091C77.5149 36.8064 79.2412 34.9439 81.9993 34.9439C85.0423 34.9439 86.5016 37.2144 85.7185 40.1413H79.2767C79.4547 41.8089 80.3979 42.8024 81.9281 42.8024C83.0671 42.8024 83.9391 42.2346 84.2772 41.3123ZM81.9461 36.3807C80.469 36.3807 79.5436 37.2677 79.3124 38.7931H84.206C84.3483 37.303 83.5298 36.3807 81.9461 36.3807ZM97.867 34.9439C99.6822 34.9439 100.625 36.2388 100.625 38.2612V44.0441H98.9702V38.5626C98.9702 37.3209 98.4363 36.4693 97.3688 36.4693C96.0164 36.4693 95.0555 37.7643 95.0555 39.7333V44.0441H93.4004V38.5626C93.4004 37.303 92.8665 36.4517 91.781 36.4517C90.4288 36.4517 89.4676 37.7466 89.4676 39.7513V44.0441H87.8128V35.1744H89.4676V36.7355C89.9304 35.7599 90.8912 34.9439 92.2971 34.9439C93.6139 34.9439 94.5393 35.6889 94.8951 36.8597C95.429 35.671 96.5323 34.9439 97.867 34.9439ZM108.122 35.1744H109.83L106.573 44.7359C106.004 46.4035 105.061 47.7517 103.175 47.7517C102.694 47.7517 102.178 47.6628 101.751 47.4856V46.0308C102.196 46.1907 102.605 46.2793 103.015 46.2793C104.26 46.2793 104.705 45.3747 104.99 44.5407V44.5231L101.449 35.1744H103.192L105.737 42.554L108.122 35.1744Z" fill="white"/>
</g>
<defs>
<linearGradient id="paint0_linear_368_5449" x1="30.3265" y1="15.0775" x2="1.65254" y2="15.0775" gradientUnits="userSpaceOnUse">
<stop stop-color="#55FF5B"/>
<stop offset="1" stop-color="#35FF5B"/>
</linearGradient>
<linearGradient id="paint1_linear_368_5449" x1="29.9749" y1="32.3952" x2="0.942648" y2="32.3952" gradientUnits="userSpaceOnUse">
<stop stop-color="#452063"/>
<stop offset="1" stop-color="#5B42FF"/>
</linearGradient>
<clipPath id="clip0_368_5449">
<rect width="109" height="48" fill="white" transform="translate(0.96875)"/>
</clipPath>
</defs>
</svg>
