<?xml version="1.0" encoding="UTF-8"?>
<svg xmlns="http://www.w3.org/2000/svg" xmlns:xlink="http://www.w3.org/1999/xlink" version="1.1" viewBox="0 0 412 182">
  <!-- Generator: Adobe Illustrator 29.0.0, SVG Export Plug-In . SVG Version: 2.1.0 Build 186)  -->
  <defs>
    <style>
      .st0 {
        fill: #e4d9f6;
      }

      .st0, .st1, .st2, .st3, .st4, .st5, .st6, .st7, .st8, .st9, .st10, .st11, .st12, .st13, .st14, .st15, .st16, .st17, .st18, .st19, .st20, .st21, .st22, .st23, .st24, .st25, .st26, .st27, .st28, .st29, .st30, .st31, .st32, .st33, .st34, .st35, .st36, .st37, .st38, .st39, .st40, .st41, .st42, .st43, .st44, .st45, .st46, .st47, .st48, .st49, .st50, .st51, .st52, .st53, .st54, .st55, .st56, .st57, .st58, .st59, .st60, .st61, .st62, .st63, .st64, .st65, .st66, .st67, .st68, .st69, .st70, .st71, .st72, .st73, .st74, .st75, .st76, .st77, .st78, .st79, .st80, .st81, .st82, .st83, .st84, .st85, .st86, .st87, .st88, .st89, .st90, .st91, .st92, .st93, .st94, .st95, .st96, .st97, .st98, .st99, .st100, .st101, .st102, .st103, .st104, .st105, .st106, .st107, .st108, .st109, .st110, .st111, .st112, .st113, .st114, .st115, .st116, .st117, .st118, .st119, .st120, .st121, .st122, .st123, .st124, .st125, .st126, .st127, .st128, .st129, .st130, .st131, .st132, .st133, .st134, .st135, .st136, .st137, .st138, .st139, .st140, .st141, .st142, .st143, .st144, .st145, .st146, .st147, .st148, .st149, .st150, .st151, .st152, .st153, .st154, .st155, .st156, .st157, .st158, .st159, .st160, .st161, .st162, .st163, .st164, .st165, .st166, .st167, .st168, .st169, .st170, .st171, .st172, .st173, .st174, .st175, .st176, .st177, .st178, .st179, .st180, .st181, .st182, .st183, .st184, .st185, .st186, .st187, .st188, .st189, .st190, .st191, .st192, .st193, .st194, .st195, .st196, .st197, .st198, .st199, .st200, .st201, .st202, .st203, .st204, .st205, .st206, .st207 {
        isolation: isolate;
      }

      .st0, .st80 {
        opacity: .4;
      }

      .st1, .st2 {
        fill: #ba9ee7;
      }

      .st1, .st150 {
        opacity: 1;
      }

      .st2, .st62, .st86 {
        opacity: 1;
      }

      .st208 {
        fill: none;
      }

      .st3 {
        fill: #ebe2f8;
      }

      .st3, .st83 {
        opacity: .4;
      }

      .st4 {
        fill: #d5c5f0;
      }

      .st4, .st29 {
        opacity: .6;
      }

      .st5 {
        fill: #e1d5f4;
      }

      .st5, .st31, .st54 {
        opacity: .5;
      }

      .st6 {
        fill: #c6afeb;
        opacity: .8;
      }

      .st7, .st8 {
        fill: #bda2e8;
      }

      .st7, .st104 {
        opacity: .9;
      }

      .st8, .st138, .st194 {
        opacity: .9;
      }

      .st9 {
        fill: #dccef3;
      }

      .st9, .st163 {
        opacity: .5;
      }

      .st10 {
        fill: #d3c1ef;
      }

      .st10, .st161 {
        opacity: .7;
      }

      .st11, .st12 {
        fill: #cbb6ed;
      }

      .st11, .st141 {
        opacity: .8;
      }

      .st12, .st14 {
        opacity: .8;
      }

      .st13 {
        fill: #bfa5e8;
      }

      .st13, .st152 {
        opacity: .9;
      }

      .st14 {
        fill: #ccb7ed;
      }

      .st15 {
        fill: #e7ddf6;
      }

      .st15, .st60 {
        opacity: .4;
      }

      .st16 {
        fill: #d6c5f1;
      }

      .st16, .st93, .st188 {
        opacity: .6;
      }

      .st17 {
        fill: #ddcff3;
        opacity: .5;
      }

      .st209 {
        fill: url(#linear-gradient1);
      }

      .st18 {
        fill: #e8dff7;
      }

      .st18, .st70 {
        opacity: .4;
      }

      .st19 {
        fill: #c8b1ec;
      }

      .st19, .st39, .st171 {
        opacity: .8;
      }

      .st20 {
        fill: #d0bdef;
      }

      .st20, .st166 {
        opacity: .7;
      }

      .st21 {
        fill: #cdb9ed;
      }

      .st21, .st135 {
        opacity: .7;
      }

      .st22 {
        fill: #b89ce6;
      }

      .st22, .st85, .st137 {
        opacity: 1;
      }

      .st23 {
        fill: #e9dff7;
      }

      .st23, .st131 {
        opacity: .4;
      }

      .st24 {
        fill: #ece5f8;
      }

      .st24, .st76 {
        opacity: .3;
      }

      .st25 {
        fill: #faf7fd;
      }

      .st25, .st59, .st122 {
        opacity: .2;
      }

      .st26 {
        fill: #bba0e7;
      }

      .st26, .st151, .st180 {
        opacity: 1;
      }

      .st27 {
        fill: #eae1f8;
      }

      .st27, .st30 {
        opacity: .4;
      }

      .st28, .st29 {
        fill: #d5c4f0;
      }

      .st28, .st52, .st185 {
        opacity: .6;
      }

      .st30 {
        fill: #eae1f7;
      }

      .st31, .st32 {
        fill: #e1d4f4;
      }

      .st32, .st126, .st140 {
        opacity: .5;
      }

      .st33, .st34 {
        fill: #ede6f9;
      }

      .st33, .st115, .st157 {
        opacity: .3;
      }

      .st34, .st110 {
        opacity: .3;
      }

      .st35, .st36 {
        fill: #fdfcfe;
      }

      .st35, .st79, .st132 {
        opacity: .1;
      }

      .st36, .st191 {
        opacity: .1;
      }

      .st37 {
        fill: #c1a7e9;
      }

      .st37, .st113, .st154 {
        opacity: .9;
      }

      .st38, .st39 {
        fill: #c8b2ec;
      }

      .st38, .st91, .st108 {
        opacity: .8;
      }

      .st40 {
        fill: #f8f5fc;
      }

      .st40, .st136 {
        opacity: .2;
      }

      .st41 {
        fill: #daccf2;
      }

      .st41, .st73 {
        opacity: .6;
      }

      .st42 {
        fill: #c5adea;
      }

      .st42, .st95, .st139 {
        opacity: .8;
      }

      .st43 {
        fill: #d4c2f0;
      }

      .st43, .st103 {
        opacity: .6;
      }

      .st44, .st45 {
        fill: #fbfafe;
      }

      .st44, .st206 {
        opacity: .2;
      }

      .st45, .st182, .st190 {
        opacity: .1;
      }

      .st46, .st47 {
        fill: #f7f3fc;
      }

      .st46, .st118, .st168 {
        opacity: .2;
      }

      .st47, .st67 {
        opacity: .2;
      }

      .st48, .st49 {
        fill: #d8c8f1;
      }

      .st48, .st64 {
        opacity: .6;
      }

      .st49, .st50, .st199 {
        opacity: .6;
      }

      .st50 {
        fill: #d8c9f1;
      }

      .st51 {
        fill: #f0e9fa;
      }

      .st51, .st81 {
        opacity: .3;
      }

      .st52 {
        fill: #d4c3f0;
      }

      .st53 {
        fill: #c5aeeb;
      }

      .st53, .st107 {
        opacity: .8;
      }

      .st54 {
        fill: #e1d5f5;
      }

      .st55 {
        fill: #d1bfef;
      }

      .st55, .st165 {
        opacity: .7;
      }

      .st56 {
        fill: #c7b0eb;
      }

      .st56, .st156 {
        opacity: .8;
      }

      .st57, .st58 {
        fill: #f4f0fb;
      }

      .st57, .st101, .st178, .st186 {
        opacity: .2;
      }

      .st58, .st170 {
        opacity: .2;
      }

      .st59 {
        fill: #f9f7fd;
      }

      .st60, .st61 {
        fill: #e6dcf6;
      }

      .st61, .st174 {
        opacity: .4;
      }

      .st62 {
        fill: #ba9de7;
      }

      .st63, .st64 {
        fill: #d7c7f1;
      }

      .st63, .st92, .st120 {
        opacity: .6;
      }

      .st210 {
        fill: #648d84;
      }

      .st65 {
        fill: #fffeff;
      }

      .st65, .st78, .st97 {
        opacity: .1;
      }

      .st66 {
        fill: #e2d7f5;
      }

      .st66, .st146, .st147 {
        opacity: .5;
      }

      .st67 {
        fill: #f7f4fc;
      }

      .st211 {
        fill: url(#linear-gradient);
      }

      .st68 {
        fill: #f9f6fd;
      }

      .st68, .st102 {
        opacity: .2;
      }

      .st69 {
        fill: #f3effb;
      }

      .st69, .st198 {
        opacity: .2;
      }

      .st70, .st71 {
        fill: #e8def7;
      }

      .st71, .st106, .st205 {
        opacity: .4;
      }

      .st72 {
        fill: #e2d5f5;
      }

      .st72, .st149 {
        opacity: .5;
      }

      .st73 {
        fill: #dbccf2;
      }

      .st74 {
        fill: #bca1e7;
      }

      .st74, .st181 {
        opacity: .9;
      }

      .st75, .st76 {
        fill: #ece4f8;
      }

      .st75, .st159 {
        opacity: .3;
      }

      .st77 {
        fill: #e4d8f5;
      }

      .st77, .st89 {
        opacity: .4;
      }

      .st78, .st79 {
        fill: #fefdff;
      }

      .st80 {
        fill: #e4d9f5;
      }

      .st81 {
        fill: #f0eafa;
      }

      .st82 {
        fill: #f1ecfa;
      }

      .st82, .st167 {
        opacity: .3;
      }

      .st83 {
        fill: #eae2f8;
      }

      .st84 {
        fill: #d9c9f2;
      }

      .st84, .st169 {
        opacity: .6;
      }

      .st85, .st86 {
        fill: #b99de6;
      }

      .st88 {
        fill: #cdb8ed;
      }

      .st88, .st128 {
        opacity: .7;
      }

      .st89 {
        fill: #e3d8f5;
      }

      .st90, .st91 {
        fill: #c9b3ec;
      }

      .st90, .st133, .st158 {
        opacity: .8;
      }

      .st92, .st93 {
        fill: #d6c6f1;
      }

      .st94, .st95 {
        fill: #c4acea;
      }

      .st94, .st172 {
        opacity: .9;
      }

      .st212 {
        mix-blend-mode: multiply;
      }

      .st96 {
        fill: #f1ebfa;
        opacity: .3;
      }

      .st213 {
        fill: #b89be6;
      }

      .st97 {
        fill: #fefeff;
      }

      .st98, .st99 {
        fill: #cfbcee;
      }

      .st98, .st105 {
        opacity: .7;
      }

      .st99, .st173, .st193 {
        opacity: .7;
      }

      .st100, .st101 {
        fill: #f5f1fc;
      }

      .st100, .st119 {
        opacity: .2;
      }

      .st102 {
        fill: #f8f6fd;
      }

      .st103 {
        fill: #d3c2f0;
      }

      .st104 {
        fill: #bca1e8;
      }

      .st105 {
        fill: #cfbbee;
      }

      .st106 {
        fill: #e7def7;
      }

      .st107 {
        fill: #c6aeeb;
      }

      .st108 {
        fill: #c9b2ec;
      }

      .st109 {
        fill: #cebaee;
      }

      .st109, .st192 {
        opacity: .7;
      }

      .st110 {
        fill: #ede5f9;
      }

      .st111 {
        fill: #eee8f9;
      }

      .st111, .st114, .st176 {
        opacity: .3;
      }

      .st112, .st113 {
        fill: #c0a7e9;
      }

      .st112, .st189 {
        opacity: .9;
      }

      .st114, .st115 {
        fill: #eee7f9;
      }

      .st214, .st207 {
        fill: #fff;
      }

      .st116 {
        fill: #dbcdf2;
      }

      .st116, .st179 {
        opacity: .6;
      }

      .st117 {
        fill: #bea4e8;
      }

      .st117, .st202 {
        opacity: .9;
      }

      .st118, .st119 {
        fill: #f6f2fc;
      }

      .st120 {
        fill: #d7c6f1;
      }

      .st121 {
        fill: #cab5ec;
      }

      .st121, .st134 {
        opacity: .8;
      }

      .st122, .st123 {
        fill: #faf8fd;
      }

      .st123, .st155 {
        opacity: .2;
      }

      .st124, .st125 {
        fill: #c3aaea;
      }

      .st124, .st183 {
        opacity: .9;
      }

      .st125, .st129, .st148, .st164 {
        opacity: .9;
      }

      .st126, .st127 {
        fill: #e0d3f4;
      }

      .st127, .st144 {
        opacity: .5;
      }

      .st128 {
        fill: #ccb8ed;
      }

      .st129, .st130 {
        fill: #c2a9e9;
      }

      .st130, .st153 {
        opacity: .9;
      }

      .st131 {
        fill: #e9e0f7;
      }

      .st132 {
        fill: #fdfdfe;
      }

      .st133, .st134 {
        fill: #cab4ec;
      }

      .st135 {
        fill: #cdb9ee;
      }

      .st136 {
        fill: #f8f5fd;
      }

      .st137 {
        fill: #b99ce6;
      }

      .st138 {
        fill: #bea3e8;
      }

      .st139 {
        fill: #c5adeb;
      }

      .st140 {
        fill: #e0d4f4;
      }

      .st141 {
        fill: #cbb5ed;
      }

      .st142 {
        fill: #d2c0ef;
      }

      .st142, .st175 {
        opacity: .7;
      }

      .st143, .st144 {
        fill: #dfd2f4;
      }

      .st143, .st145, .st195 {
        opacity: .5;
      }

      .st145 {
        fill: #dfd1f4;
      }

      .st146 {
        fill: #e3d7f5;
      }

      .st147, .st149 {
        fill: #e2d6f5;
      }

      .st148 {
        fill: #c2a9ea;
      }

      .st150, .st151 {
        fill: #bb9fe7;
      }

      .st152 {
        fill: #bfa5e9;
      }

      .st153, .st154 {
        fill: #c1a8e9;
      }

      .st155 {
        fill: #fbf9fd;
      }

      .st156 {
        fill: #c7b1eb;
      }

      .st157 {
        fill: #eee6f9;
      }

      .st158 {
        fill: #c9b4ec;
      }

      .st159 {
        fill: #ebe3f8;
      }

      .st160 {
        fill: #f2edfb;
      }

      .st160, .st197, .st201 {
        opacity: .3;
      }

      .st161 {
        fill: #d3c1f0;
      }

      .st162 {
        fill: #efe9f9;
      }

      .st162, .st177, .st204 {
        opacity: .3;
      }

      .st163 {
        fill: #ddcef3;
      }

      .st164 {
        fill: #c2aaea;
      }

      .st165, .st166 {
        fill: #d1beef;
      }

      .st167 {
        fill: #f2ecfa;
      }

      .st168 {
        fill: #f6f3fc;
      }

      .st169 {
        fill: #d9caf2;
      }

      .st170 {
        fill: #f4effb;
      }

      .st171 {
        fill: #c8b1eb;
      }

      .st172 {
        fill: #c4abea;
      }

      .st173 {
        fill: #d0bcee;
      }

      .st174 {
        fill: #e6dbf6;
      }

      .st175 {
        fill: #d2bfef;
      }

      .st176, .st177 {
        fill: #efe8f9;
      }

      .st178 {
        fill: #f5f0fb;
      }

      .st179 {
        fill: #dccdf3;
      }

      .st180, .st181 {
        fill: #bca0e7;
      }

      .st182 {
        fill: #fcfafe;
      }

      .st183 {
        fill: #c3abea;
      }

      .st184 {
        fill: #ded0f3;
      }

      .st184, .st196 {
        opacity: .5;
      }

      .st185 {
        fill: #d5c3f0;
      }

      .st186 {
        fill: #f5f1fb;
      }

      .st187 {
        fill: #e5daf6;
      }

      .st187, .st200 {
        opacity: .4;
      }

      .st188 {
        fill: #d6c5f0;
      }

      .st189 {
        fill: #c0a6e9;
      }

      .st190, .st191 {
        fill: #fcfbfe;
      }

      .st192 {
        fill: #cebbee;
      }

      .st193 {
        fill: #d0bdee;
      }

      .st194 {
        fill: #bda3e8;
      }

      .st215 {
        clip-path: url(#clippath);
      }

      .st195 {
        fill: #ded1f4;
      }

      .st196 {
        fill: #ded1f3;
      }

      .st197, .st198 {
        fill: #f3eefb;
      }

      .st199 {
        fill: #d9c9f1;
      }

      .st200 {
        fill: #e5dbf6;
      }

      .st201 {
        fill: #f2edfa;
      }

      .st202 {
        fill: #bfa4e8;
      }

      .st203 {
        fill: #dacbf2;
        opacity: .6;
      }

      .st204 {
        fill: #efe9fa;
      }

      .st205 {
        fill: #e7ddf7;
      }

      .st206 {
        fill: #fbf9fe;
      }

      .st207 {
        opacity: .1;
      }
    </style>
    <clipPath id="clippath">
      <rect class="st208" y="0" width="114" height="180"/>
    </clipPath>
    <linearGradient id="linear-gradient" x1="111" y1="126" x2="2.6" y2="126" gradientTransform="translate(0 183.2) scale(1 -1)" gradientUnits="userSpaceOnUse">
      <stop offset="0" stop-color="#55ff5b"/>
      <stop offset="1" stop-color="#35ff5b"/>
    </linearGradient>
    <linearGradient id="linear-gradient1" x1="109.6" y1="60.4" x2="0" y2="60.4" gradientTransform="translate(0 183.2) scale(1 -1)" gradientUnits="userSpaceOnUse">
      <stop offset="0" stop-color="#452063"/>
      <stop offset="1" stop-color="#5b42ff"/>
    </linearGradient>
  </defs>
  <g class="st87">
    <g id="Layer_1">
      <g class="st215">
        <g>
          <path class="st211" d="M0,92.7V28.8C0,12.9,12.9,0,28.7,0h63.7C111.6,0,121.2,23.3,107.6,36.9L36.8,108c-13.6,13.6-36.8,4-36.8-15.3Z"/>
          <path class="st209" d="M0,158.3v-59.9l79-32.8h13.4c19.2,0,28.8,23.3,15.2,36.9l-70.8,71c-13.6,13.6-36.8,4-36.8-15.3Z"/>
          <g class="st212">
            <path class="st207" d="M46,125l49.9-52.2c2.6-2.7.7-7.2-3-7.2h-14c-10,6.4-57.9,19.6-79,26.4v21.5c0,19.3,32.5,25,46,11.4Z"/>
            <path class="st207" d="M92.9,65.7h-4.5s-9.4,0-9.4,0c-10,6.4-57.9,19.6-79,26.4v21.5c0,19.3,32.5,25,46,11.4l49.9-52.1c2.6-2.7.7-7.2-3-7.2h0Z"/>
            <path class="st65" d="M92.9,65.7h-4.5s-9.4,0-9.4,0c-10.1,6.4-57.9,19.6-78.9,26.4v21.4c0,19.3,32.4,25,46,11.4l49.9-52.1c2.6-2.7.7-7.2-3-7.2h0Z"/>
            <path class="st97" d="M92.9,65.7h-4.5s-9.4,0-9.4,0c-10.1,6.4-57.9,19.6-78.9,26.4v21.4c0,19.3,32.4,25,46,11.4l49.8-52c2.6-2.7.7-7.2-3-7.2h0Z"/>
            <path class="st97" d="M92.8,65.7h-4.5s-9.4,0-9.4,0c-10.1,6.4-57.9,19.6-78.9,26.4v21.3c0,19.3,32.4,25,46,11.4l49.8-52c2.5-2.7.7-7.1-2.9-7.1Z"/>
            <path class="st78" d="M92.8,65.7h-4.5s-9.4,0-9.4,0c-10.2,6.4-57.9,19.6-78.8,26.4v21.3c0,19.3,32.4,25,46,11.4l49.7-51.9c2.5-2.6.7-7.1-2.9-7.1h0Z"/>
            <path class="st79" d="M92.8,65.7h-4.5s-9.4,0-9.4,0c-10.2,6.4-57.9,19.6-78.8,26.4v21.2c0,19.4,32.4,25,45.9,11.4l49.7-51.9c2.5-2.6.8-7.1-2.9-7.1h0Z"/>
            <path class="st132" d="M92.7,65.7h-4.5c0,0-9.3,0-9.4,0-10.2,6.4-57.9,19.6-78.8,26.4v21.2c0,19.4,32.4,25,45.9,11.4l49.7-51.8c2.5-2.6.8-7.1-2.9-7.1h0Z"/>
            <path class="st35" d="M92.7,65.7h-4.5c0,0-9.3,0-9.4,0-10.3,6.4-57.9,19.6-78.8,26.4v21.1c0,19.4,32.4,25,45.9,11.4l49.6-51.8c2.5-2.6.8-7.1-2.8-7.1Z"/>
            <path class="st36" d="M92.7,65.7h-4.5c0,0-9.3,0-9.4,0-10.3,6.4-57.9,19.6-78.7,26.3v21.1c0,19.4,32.4,25,45.9,11.4l49.6-51.8c2.5-2.6.8-7.1-2.8-7.1Z"/>
            <path class="st36" d="M92.6,65.7h-4.5c0,0-9.3,0-9.4,0-10.3,6.4-57.9,19.6-78.7,26.3v21c0,19.4,32.3,25,45.9,11.4l49.5-51.7c2.5-2.6.8-7.1-2.8-7.1Z"/>
            <path class="st191" d="M92.6,65.7h-4.5c0,0-9.3,0-9.4,0-10.4,6.4-57.9,19.5-78.7,26.3v20.9c0,19.4,32.3,25,45.8,11.4l49.5-51.7c2.5-2.6.8-7.1-2.7-7.1Z"/>
            <path class="st190" d="M92.6,65.7h-4.5c0,0-9.3,0-9.4.1-10.4,6.4-57.9,19.5-78.7,26.3v20.9c0,19.5,32.3,25,45.8,11.4l49.4-51.6c2.5-2.6.9-7.1-2.7-7.1h0Z"/>
            <path class="st190" d="M92.5,65.7h-4.5c0,0-9.2,0-9.4.1-10.4,6.4-57.9,19.5-78.6,26.3v20.8c0,19.5,32.3,25,45.8,11.4l49.4-51.6c2.5-2.6.9-7.1-2.7-7.1h0Z"/>
            <path class="st182" d="M92.5,65.7h-4.5c-.1,0-9.2,0-9.4.1-10.5,6.4-57.9,19.5-78.6,26.3v20.8c0,19.5,32.3,25,45.8,11.4l49.4-51.5c2.5-2.6.9-7.1-2.7-7.1h0Z"/>
            <path class="st45" d="M92.5,65.7h-4.5c-.1,0-9.2,0-9.4.1-10.5,6.4-57.9,19.5-78.6,26.3v20.7c0,19.5,32.3,25,45.8,11.4l49.3-51.5c2.4-2.6.9-7.1-2.6-7.1Z"/>
            <path class="st44" d="M92.4,65.7h-4.5c-.1,0-9.2,0-9.4.1-10.5,6.4-57.8,19.5-78.6,26.3v20.7c0,19.5,32.3,25,45.8,11.4l49.3-51.4c2.4-2.5.9-7.1-2.6-7.1h0Z"/>
            <path class="st206" d="M92.4,65.7h-4.5c-.1,0-9.2,0-9.4.1-10.6,6.4-57.8,19.5-78.5,26.3v20.6c0,19.5,32.3,25,45.7,11.4l49.2-51.4c2.4-2.5.9-7.1-2.6-7.1Z"/>
            <path class="st206" d="M92.4,65.7h-4.5c-.1,0-9.2,0-9.4.2-10.6,6.4-57.8,19.5-78.5,26.3v20.6c0,19.6,32.2,25,45.7,11.4l49.2-51.3c2.4-2.5.9-7.1-2.6-7.1Z"/>
            <path class="st155" d="M92.3,65.7h-4.5c-.1,0-9.2.1-9.4.2-10.6,6.4-57.8,19.5-78.5,26.3v20.5c0,19.6,32.2,25,45.7,11.4l49.2-51.3c2.4-2.5,1-7-2.5-7Z"/>
            <path class="st123" d="M92.3,65.7h-4.5c-.1,0-9.1.1-9.3.2-10.7,6.4-57.8,19.5-78.4,26.3v20.5c0,19.6,32.2,25,45.7,11.4l49.1-51.3c2.4-2.5,1-7-2.5-7Z"/>
            <path class="st123" d="M92.3,65.7h-4.5c-.2,0-9.1.1-9.3.2-10.7,6.4-57.8,19.5-78.4,26.2v20.4c0,19.6,32.2,25,45.7,11.4l49.1-51.2c2.4-2.5,1-7-2.5-7Z"/>
            <path class="st122" d="M92.2,65.7h-4.5c-.2,0-9.1.1-9.3.2-10.7,6.4-57.8,19.5-78.4,26.2v20.4c0,19.6,32.2,25,45.6,11.4l49-51.2c2.4-2.5,1-7-2.4-7h0Z"/>
            <path class="st25" d="M92.2,65.7h-4.5c-.2,0-9.1.1-9.3.2-10.8,6.4-57.8,19.5-78.4,26.2v20.3c0,19.6,32.2,25,45.6,11.4l49-51.1c2.4-2.5,1-7-2.4-7h0Z"/>
            <path class="st59" d="M92.2,65.7h-4.5c-.2,0-9.1.1-9.3.2-10.8,6.4-57.8,19.5-78.3,26.2v20.3c0,19.6,32.2,25,45.6,11.4l48.9-51.1c2.4-2.5,1-7-2.4-7Z"/>
            <path class="st59" d="M92.1,65.7h-4.5c-.2,0-9.1.1-9.3.2-10.8,6.4-57.8,19.5-78.3,26.2v20.2c0,19.7,32.2,25,45.6,11.4l48.9-51c2.4-2.5,1-7-2.4-7h0Z"/>
            <path class="st68" d="M92.1,65.7h-4.5c-.2,0-9.1.1-9.3.2-10.9,6.4-57.8,19.4-78.3,26.2v20.2c0,19.7,32.1,25,45.6,11.4l48.9-51c2.4-2.5,1.1-7-2.3-7h0Z"/>
            <path class="st68" d="M92.1,65.7h-4.5c-.2,0-9,.1-9.3.2-10.9,6.4-57.8,19.4-78.3,26.2v20.1c0,19.7,32.1,25,45.6,11.4l48.8-50.9c2.3-2.5,1.1-7-2.3-7Z"/>
            <path class="st102" d="M92,65.7h-4.5c-.2,0-9,.2-9.3.2-10.9,6.4-57.8,19.4-78.2,26.2v20.1c0,19.7,32.1,25,45.5,11.4l48.8-50.9c2.3-2.4,1.1-7-2.3-7h0Z"/>
            <path class="st136" d="M92,65.7h-4.5c-.2,0-9,.2-9.3.3-11,6.4-57.8,19.4-78.2,26.2v20c0,19.7,32.1,25,45.5,11.4l48.7-50.8c2.3-2.4,1.1-7-2.3-7h0Z"/>
            <path class="st136" d="M92,65.7h-4.5c-.2,0-9,.2-9.3.3-11,6.4-57.8,19.4-78.2,26.2v20c0,19.7,32.1,25,45.5,11.4l48.7-50.8c2.3-2.4,1.1-7-2.2-7h0Z"/>
            <path class="st40" d="M91.9,65.7h-4.5c-.2,0-9,.2-9.3.3-11,6.4-57.8,19.4-78.1,26.2v19.9c0,19.8,32.1,25,45.5,11.4l48.7-50.8c2.3-2.4,1.1-7-2.2-7h0Z"/>
            <path class="st67" d="M91.9,65.7h-4.5c-.2,0-9,.2-9.3.3-11.1,6.4-57.8,19.4-78.1,26.1v19.9c0,19.8,32.1,25,45.5,11.4l48.6-50.7c2.3-2.4,1.1-7-2.2-7h0Z"/>
            <path class="st67" d="M91.9,65.7h-4.5c-.2,0-8.9.2-9.3.3-11.1,6.4-57.8,19.4-78.1,26.1v19.8c0,19.8,32.1,25,45.4,11.4l48.6-50.7c2.3-2.4,1.2-7-2.2-7Z"/>
            <path class="st67" d="M91.8,65.7h-4.5c-.2,0-8.9.2-9.3.3-11.1,6.4-57.8,19.4-78.1,26.1v19.7c0,19.8,32,25,45.4,11.4l48.5-50.6c2.3-2.4,1.2-7-2.1-7Z"/>
            <path class="st47" d="M91.8,65.7h-4.5c-.3,0-8.9.2-9.3.3-11.2,6.4-57.8,19.4-78,26.1v19.7c0,19.8,32,25,45.4,11.4l48.5-50.6c2.3-2.4,1.2-6.9-2.1-6.9h0Z"/>
            <path class="st46" d="M91.8,65.7h-4.5c-.3,0-8.9.2-9.3.3-11.2,6.4-57.8,19.4-78,26.1v19.6c0,19.8,32,25,45.4,11.4l48.4-50.5c2.3-2.4,1.2-6.9-2.1-6.9h0Z"/>
            <path class="st168" d="M91.7,65.7h-4.5c-.3,0-8.9.2-9.3.3-11.3,6.4-57.8,19.4-78,26.1v19.6c0,19.9,32,25,45.4,11.4l48.4-50.5c2.3-2.4,1.2-6.9-2-6.9h0Z"/>
            <path class="st118" d="M91.7,65.7h-4.5c-.3,0-8.9.2-9.3.3-11.3,6.4-57.8,19.4-78,26.1v19.5c0,19.9,32,25,45.4,11.4l48.4-50.4c2.3-2.4,1.2-6.9-2-6.9Z"/>
            <path class="st119" d="M91.7,65.7h-4.5c-.3,0-8.9.2-9.3.3-11.3,6.4-57.7,19.4-77.9,26.1v19.5c0,19.9,32,25,45.3,11.4l48.3-50.4c2.2-2.3,1.3-6.9-2-6.9h0Z"/>
            <path class="st119" d="M91.6,65.7h-4.5c-.3,0-8.8.2-9.3.4-11.4,6.4-57.7,19.4-77.9,26.1v19.4c0,19.9,32,25,45.3,11.4l48.3-50.4c2.2-2.3,1.3-6.9-2-6.9h0Z"/>
            <path class="st100" d="M91.6,65.7h-4.5c-.3.1-8.8.2-9.3.4-11.4,6.4-57.7,19.3-77.9,26.1v19.4c0,19.9,32,25,45.3,11.4l48.2-50.3c2.2-2.3,1.3-6.9-1.9-6.9h0Z"/>
            <path class="st101" d="M91.6,65.7h-4.5c-.3.1-8.8.2-9.2.4-11.4,6.4-57.7,19.3-77.9,26.1v19.3c0,19.9,31.9,25,45.3,11.4l48.2-50.3c2.2-2.3,1.3-6.9-1.9-6.9h0Z"/>
            <path class="st186" d="M91.5,65.7h-4.5c-.3.1-8.8.2-9.2.4-11.5,6.4-57.7,19.3-77.8,26.1v19.3c0,20,31.9,25,45.3,11.4l48.2-50.2c2.2-2.3,1.3-6.9-1.9-6.9h0Z"/>
            <path class="st178" d="M91.5,65.7h-4.5c-.3.1-8.8.2-9.2.4-11.5,6.4-57.7,19.3-77.8,26v19.2c0,20,31.9,25,45.2,11.4l48.1-50.2c2.2-2.3,1.3-6.9-1.9-6.9Z"/>
            <path class="st57" d="M91.5,65.7h-4.5c-.3.1-8.8.2-9.2.4-11.5,6.4-57.7,19.3-77.8,26v19.2c0,20,31.9,25,45.2,11.4l48.1-50.1c2.2-2.3,1.3-6.9-1.8-6.9h0Z"/>
            <path class="st58" d="M91.4,65.7h-4.5c-.3.1-8.8.2-9.2.4-11.6,6.4-57.7,19.3-77.7,26v19.1c0,20,31.9,25,45.2,11.4l48-50.1c2.2-2.3,1.4-6.9-1.8-6.9Z"/>
            <path class="st170" d="M91.4,65.7h-4.5c-.3.1-8.7.3-9.2.4-11.6,6.4-57.7,19.3-77.7,26v19.1c0,20,31.9,25,45.2,11.4l48-50c2.2-2.3,1.4-6.9-1.8-6.9h0Z"/>
            <path class="st170" d="M91.4,65.7h-4.5c-.3.1-8.7.3-9.2.4-11.6,6.4-57.7,19.3-77.7,26v19c0,20,31.9,25,45.2,11.4l47.9-50c2.2-2.3,1.4-6.9-1.7-6.9Z"/>
            <path class="st69" d="M91.3,65.7h-4.5c-.4.1-8.7.3-9.2.4-11.7,6.4-57.7,19.3-77.7,26v19c0,20.1,31.9,25,45.2,11.4l47.9-49.9c2.2-2.3,1.4-6.9-1.7-6.9h0Z"/>
            <path class="st198" d="M91.3,65.7h-4.5c-.4.1-8.7.3-9.2.4-11.7,6.4-57.7,19.3-77.6,26v18.9c0,20.1,31.8,25,45.1,11.4l47.9-49.9c2.1-2.2,1.4-6.9-1.7-6.9h0Z"/>
            <path class="st198" d="M91.3,65.7h-4.5c-.4.1-8.7.3-9.2.4-11.7,6.4-57.7,19.3-77.6,26v18.9c0,20.1,31.8,25,45.1,11.4l47.8-49.9c2.1-2.2,1.4-6.8-1.7-6.8Z"/>
            <path class="st197" d="M91.2,65.7h-4.4c-.4.1-8.7.3-9.2.5-11.8,6.4-57.7,19.3-77.6,26v18.8c0,20.1,31.8,25,45.1,11.4l47.8-49.8c2.1-2.2,1.4-6.8-1.6-6.8Z"/>
            <path class="st160" d="M91.2,65.7h-4.4c-.4.1-8.6.3-9.2.5-11.8,6.4-57.7,19.3-77.6,26v18.8c0,20.1,31.8,25,45.1,11.4l47.7-49.8c2.1-2.2,1.5-6.8-1.6-6.8h0Z"/>
            <path class="st160" d="M91.2,65.7h-4.4c-.4.1-8.6.3-9.2.5-11.8,6.4-57.7,19.3-77.5,26v18.7c0,20.1,31.8,25,45.1,11.4l47.7-49.7c2.1-2.2,1.5-6.8-1.6-6.8h0Z"/>
            <path class="st201" d="M91.1,65.7h-4.4c-.4.1-8.6.3-9.2.5-11.9,6.4-57.7,19.3-77.5,25.9v18.7c0,20.1,31.8,25,45,11.4l47.7-49.7c2.1-2.2,1.5-6.8-1.6-6.8Z"/>
            <path class="st167" d="M91.1,65.7h-4.4c-.4.1-8.6.3-9.2.5-11.9,6.4-57.7,19.3-77.5,25.9v18.6c0,20.2,31.8,25,45,11.4l47.6-49.6c2.1-2.2,1.5-6.8-1.5-6.8h0Z"/>
            <path class="st167" d="M91.1,65.7h-4.4c-.4.1-8.6.3-9.2.5-11.9,6.4-57.7,19.2-77.5,25.9v18.6c0,20.2,31.8,25,45,11.4l47.6-49.6c2.1-2.2,1.5-6.8-1.5-6.8h0Z"/>
            <path class="st82" d="M91,65.7h-4.4c-.4.1-8.6.3-9.2.5-12,6.4-57.7,19.2-77.4,25.9v18.5c0,20.2,31.7,25,45,11.4l47.5-49.5c2.1-2.2,1.5-6.8-1.5-6.8h0Z"/>
            <path class="st96" d="M91,65.7h-4.4c-.4.1-8.6.3-9.2.5-12,6.4-57.7,19.2-77.4,25.9v18.4c0,20.2,31.7,25,45,11.4l47.5-49.5c2.1-2.2,1.5-6.8-1.4-6.8Z"/>
            <path class="st96" d="M91,65.7h-4.4c-.4.1-8.5.3-9.2.5-12,6.4-57.7,19.2-77.4,25.9v18.4c0,20.2,31.7,25,45,11.4l47.4-49.4c2.1-2.2,1.6-6.8-1.4-6.8h0Z"/>
            <path class="st96" d="M90.9,65.7h-4.4c-.4.2-8.5.3-9.2.5-12.1,6.4-57.6,19.2-77.3,25.9v18.3c0,20.2,31.7,25,44.9,11.4l47.4-49.4c2.1-2.1,1.6-6.8-1.4-6.8Z"/>
            <path class="st81" d="M90.9,65.7h-4.4c-.5.2-8.5.3-9.2.5-12.1,6.4-57.6,19.2-77.3,25.9v18.3c0,20.3,31.7,25,44.9,11.4l47.4-49.4c2-2.1,1.6-6.8-1.4-6.8h0Z"/>
            <path class="st81" d="M90.9,65.7h-4.4c-.5.2-8.5.3-9.2.6-12.1,6.4-57.6,19.2-77.3,25.9v18.2c0,20.3,31.7,25,44.9,11.4l47.3-49.3c2-2.1,1.6-6.8-1.3-6.8h0Z"/>
            <path class="st81" d="M90.8,65.7h-4.4c-.5.2-8.5.3-9.1.6-12.2,6.4-57.6,19.2-77.3,25.9v18.2c0,20.3,31.7,25,44.9,11.4l47.3-49.3c2-2.1,1.6-6.8-1.3-6.8Z"/>
            <path class="st51" d="M90.8,65.7h-4.4c-.5.2-8.5.4-9.1.6-12.2,6.4-57.6,19.2-77.2,25.9v18.1c0,20.3,31.7,25,44.9,11.4l47.2-49.2c2-2.1,1.6-6.8-1.3-6.8h0Z"/>
            <path class="st204" d="M90.8,65.7h-4.4c-.5.2-8.5.4-9.1.6-12.2,6.4-57.6,19.2-77.2,25.9v18.1c0,20.3,31.6,25,44.8,11.4l47.2-49.2c2-2.1,1.6-6.8-1.3-6.8h0Z"/>
            <path class="st162" d="M90.7,65.7h-4.4c-.5.2-8.4.4-9.1.6-12.3,6.4-57.6,19.2-77.2,25.8v18c0,20.3,31.6,25,44.8,11.4l47.1-49.1c2-2.1,1.7-6.7-1.2-6.7h0Z"/>
            <path class="st177" d="M90.7,65.7h-4.4c-.5.2-8.4.4-9.1.6-12.3,6.4-57.6,19.2-77.2,25.8v18c0,20.4,31.6,25,44.8,11.4l47.1-49.1c2-2.1,1.7-6.7-1.2-6.7Z"/>
            <path class="st176" d="M90.7,65.7h-4.4c-.5.2-8.4.4-9.1.6-12.3,6.4-57.6,19.2-77.1,25.8v17.9c0,20.4,31.6,25,44.8,11.4l47.1-49c2-2.1,1.7-6.7-1.2-6.7h0Z"/>
            <path class="st111" d="M90.6,65.7h-4.4c-.5.2-8.4.4-9.1.6-12.4,6.4-57.6,19.2-77.1,25.8v17.9c0,20.4,31.6,25,44.8,11.4l47-49c2-2.1,1.7-6.7-1.1-6.7h0Z"/>
            <path class="st114" d="M90.6,65.7h-4.4c-.5.2-8.4.4-9.1.6-12.4,6.4-57.6,19.2-77.1,25.8v17.8c0,20.4,31.6,25,44.8,11.4l47-48.9c2-2.1,1.7-6.7-1.1-6.7Z"/>
            <path class="st115" d="M90.6,65.7h-4.4c-.5.2-8.4.4-9.1.6-12.4,6.4-57.6,19.1-77.1,25.8v17.8c0,20.4,31.6,25,44.7,11.4l46.9-48.9c2-2,1.7-6.7-1.1-6.7h0Z"/>
            <path class="st115" d="M90.5,65.7h-4.4c-.5.2-8.3.4-9.1.6-12.5,6.4-57.6,19.1-77,25.8v17.7c0,20.4,31.6,25,44.7,11.4l46.9-48.9c2-2,1.8-6.7-1.1-6.7Z"/>
            <path class="st157" d="M90.5,65.7h-4.4c-.5.2-8.3.4-9.1.6-12.5,6.4-57.6,19.1-77,25.8v17.7c0,20.5,31.5,25,44.7,11.4l46.9-48.8c1.9-2,1.8-6.7-1-6.7Z"/>
            <path class="st33" d="M90.5,65.7h-4.4c-.5.2-8.3.4-9.1.7-12.5,6.4-57.6,19.1-77,25.8v17.6c0,20.5,31.5,25,44.7,11.4l46.8-48.8c1.9-2,1.8-6.7-1-6.7Z"/>
            <path class="st34" d="M90.4,65.7h-4.4c-.6.2-8.3.4-9.1.7-12.6,6.4-57.6,19.1-76.9,25.8v17.6c0,20.5,31.5,25,44.7,11.4l46.8-48.7c1.9-2,1.8-6.7-1-6.7Z"/>
            <path class="st110" d="M90.4,65.7h-4.4c-.6.2-8.3.4-9.1.7-12.6,6.4-57.6,19.1-76.9,25.8v17.5c0,20.5,31.5,25,44.6,11.4l46.7-48.7c1.9-2,1.8-6.7-1-6.7Z"/>
            <path class="st110" d="M90.4,65.7h-4.4c-.6.2-8.3.4-9.1.7-12.6,6.4-57.6,19.1-76.9,25.7v17.5c0,20.5,31.5,25,44.6,11.4l46.7-48.6c1.9-2,1.8-6.7-.9-6.7h0Z"/>
            <path class="st24" d="M90.3,65.7h-4.4c-.6.2-8.3.4-9.1.7-12.7,6.4-57.6,19.1-76.9,25.7v17.4c0,20.5,31.5,25,44.6,11.4l46.6-48.6c1.9-2,1.8-6.7-.9-6.7h0Z"/>
            <path class="st76" d="M90.3,65.7h-4.4c-.6.2-8.2.4-9.1.7-12.7,6.4-57.6,19.1-76.8,25.7v17.4c0,20.5,31.5,25,44.6,11.4l46.6-48.5c1.9-2,1.9-6.7-.9-6.7h0Z"/>
            <path class="st76" d="M90.3,65.7h-4.4c-.6.2-8.2.4-9.1.7-12.7,6.4-57.6,19.1-76.8,25.7v17.3c0,20.6,31.5,25,44.6,11.4l46.6-48.5c1.9-2,1.9-6.7-.8-6.7h0Z"/>
            <path class="st75" d="M90.3,65.7h-4.4c-.6.2-8.2.4-9.1.7-12.8,6.4-57.6,19.1-76.8,25.7v17.2c0,20.6,31.5,25,44.6,11.4l46.5-48.4c1.9-2,1.9-6.7-.8-6.7Z"/>
            <path class="st159" d="M90.2,65.7h-4.4c-.6.2-8.2.4-9.1.7-12.8,6.4-57.6,19.1-76.8,25.7v17.2c0,20.6,31.4,25,44.5,11.4l46.5-48.4c1.9-1.9,1.9-6.6-.8-6.6Z"/>
            <path class="st159" d="M90.2,65.7h-4.4c-.6.2-8.2.5-9.1.7-12.8,6.4-57.5,19.1-76.7,25.7v17.1c0,20.6,31.4,25,44.5,11.4l46.4-48.4c1.9-1.9,1.9-6.6-.8-6.6h0Z"/>
            <path class="st159" d="M90.2,65.7h-4.4c-.6.2-8.2.5-9,.7-12.9,6.4-57.5,19.1-76.7,25.7v17.1c0,20.6,31.4,25,44.5,11.4l46.4-48.3c1.8-1.9,1.9-6.6-.7-6.6h0Z"/>
            <path class="st3" d="M90.1,65.7h-4.4c-.6.2-8.2.5-9,.8-12.9,6.4-57.5,19.1-76.7,25.7v17c0,20.6,31.4,25,44.5,11.4l46.4-48.3c1.8-1.9,1.9-6.6-.7-6.6h0Z"/>
            <path class="st83" d="M90.1,65.7h-4.4c-.6.2-8.1.5-9,.8-12.9,6.4-57.5,19-76.7,25.7v17c0,20.7,31.4,25,44.5,11.4l46.3-48.2c1.8-1.9,2-6.6-.7-6.6Z"/>
            <path class="st83" d="M90.1,65.7h-4.4c-.6.2-8.1.5-9,.8-13,6.4-57.5,19-76.6,25.7v16.9c0,20.7,31.4,25,44.4,11.4l46.3-48.2c1.8-1.9,2-6.6-.7-6.6h0Z"/>
            <path class="st27" d="M90,65.7h-4.4c-.6.2-8.1.5-9,.8-13,6.4-57.5,19-76.6,25.6v16.9c0,20.7,31.4,25,44.4,11.4l46.2-48.1c1.8-1.9,2-6.6-.6-6.6Z"/>
            <path class="st27" d="M90,65.7h-4.4c-.7.2-8.1.5-9,.8-13,6.4-57.5,19-76.6,25.6v16.8c0,20.7,31.4,25,44.4,11.4l46.2-48.1c1.8-1.9,2-6.6-.6-6.6h0Z"/>
            <path class="st30" d="M90,65.7h-4.4c-.7.2-8.1.5-9,.8-13.1,6.4-57.5,19-76.5,25.6v16.8c0,20.7,31.3,25,44.4,11.4l46.1-48c1.8-1.9,2-6.6-.6-6.6h0Z"/>
            <path class="st131" d="M89.9,65.7h-4.4c-.7.2-8.1.5-9,.8-13.1,6.4-57.5,19-76.5,25.6v16.7c0,20.7,31.3,25,44.4,11.4l46.1-48c1.8-1.9,2-6.6-.6-6.6Z"/>
            <path class="st131" d="M89.9,65.7h-4.4c-.7.2-8,.5-9,.8-13.1,6.4-57.5,19-76.5,25.6v16.7c0,20.8,31.3,25,44.4,11.4l46.1-47.9c1.8-1.9,2-6.6-.5-6.6h0Z"/>
            <path class="st131" d="M89.9,65.7h-4.4c-.7.2-8,.5-9,.8-13.2,6.4-57.5,19-76.5,25.6v16.6c0,20.8,31.3,25,44.3,11.4l46-47.9c1.8-1.9,2.1-6.6-.5-6.6Z"/>
            <path class="st23" d="M89.8,65.7h-4.4c-.7.2-8,.5-9,.8-13.2,6.4-57.5,19-76.4,25.6v16.6c0,20.8,31.3,25,44.3,11.4l46-47.9c1.8-1.8,2.1-6.6-.5-6.6Z"/>
            <path class="st18" d="M89.8,65.7h-4.4c-.7.2-8,.5-9,.8-13.2,6.4-57.5,19-76.4,25.6v16.5c0,20.8,31.3,25,44.3,11.4l45.9-47.8c1.8-1.8,2.1-6.6-.4-6.6Z"/>
            <path class="st18" d="M89.8,65.7h-4.4c-.7.2-8,.5-9,.8-13.3,6.4-57.5,19-76.4,25.6v16.5c0,20.8,31.3,25,44.3,11.4l45.9-47.8c1.7-1.8,2.1-6.6-.4-6.6Z"/>
            <path class="st70" d="M89.7,65.7h-4.4c-.7.2-8,.5-9,.9-13.3,6.4-57.5,19-76.4,25.6v16.4c0,20.8,31.3,25,44.3,11.4l45.9-47.7c1.7-1.8,2.1-6.6-.4-6.6Z"/>
            <path class="st71" d="M89.7,65.7h-4.4c-.7.2-8,.5-9,.9-13.3,6.4-57.5,19-76.3,25.6v16.4c0,20.9,31.2,25,44.2,11.4l45.8-47.7c1.7-1.8,2.1-6.5-.4-6.5Z"/>
            <path class="st106" d="M89.7,65.7h-4.4c-.7.2-7.9.5-9,.9-13.4,6.4-57.5,19-76.3,25.6v16.3c0,20.9,31.2,25,44.2,11.4l45.8-47.6c1.7-1.8,2.2-6.5-.3-6.5Z"/>
            <path class="st205" d="M89.6,65.7h-4.4c-.7.2-7.9.5-9,.9-13.4,6.4-57.5,19-76.3,25.5v16.3c0,20.9,31.2,25,44.2,11.4l45.7-47.6c1.7-1.8,2.2-6.5-.3-6.5h0Z"/>
            <path class="st205" d="M89.6,65.7h-4.4c-.7.3-7.9.6-9,.9-13.4,6.4-57.5,18.9-76.2,25.5v16.2c0,20.9,31.2,25,44.2,11.4l45.7-47.5c1.7-1.8,2.2-6.5-.3-6.5Z"/>
            <path class="st15" d="M89.6,65.7h-4.4c-.8.3-7.9.6-9,.9-13.5,6.4-57.5,18.9-76.2,25.5v16.2c0,20.9,31.2,25,44.2,11.4l45.6-47.5c1.7-1.8,2.2-6.5-.3-6.5h0Z"/>
            <path class="st60" d="M89.5,65.7h-4.4c-.8.3-7.9.6-9,.9-13.5,6.4-57.5,18.9-76.2,25.5v16.1c0,20.9,31.2,25,44.2,11.4l45.6-47.4c1.7-1.8,2.2-6.5-.2-6.5Z"/>
            <path class="st60" d="M89.5,65.7h-4.4c-.8.3-7.9.6-9,.9-13.5,6.4-57.5,18.9-76.2,25.5v16c0,21,31.2,25,44.1,11.4l45.6-47.4c1.7-1.8,2.2-6.5-.2-6.5Z"/>
            <path class="st61" d="M89.5,65.7h-4.4c-.8.3-7.9.6-9,.9-13.6,6.4-57.4,18.9-76.1,25.5v16c0,21,31.2,25,44.1,11.4l45.5-47.4c1.7-1.7,2.2-6.5-.2-6.5h0Z"/>
            <path class="st174" d="M89.4,65.7h-4.4c-.8.3-7.8.6-8.9.9-13.6,6.4-57.4,18.9-76.1,25.5v15.9c0,21,31.1,25,44.1,11.4l45.5-47.3c1.7-1.7,2.3-6.5-.1-6.5h0Z"/>
            <path class="st174" d="M89.4,65.7h-4.4c-.8.3-7.8.6-8.9.9-13.6,6.4-57.4,18.9-76.1,25.5v15.9c0,21,31.1,25,44.1,11.4l45.4-47.3c1.7-1.7,2.3-6.5-.1-6.5Z"/>
            <path class="st200" d="M89.4,65.7h-4.4c-.8.3-7.8.6-8.9,1-13.7,6.4-57.4,18.9-76.1,25.5v15.8c0,21,31.1,25,44.1,11.4l45.4-47.2c1.6-1.7,2.3-6.5,0-6.5h0Z"/>
            <path class="st187" d="M89.3,65.7h-4.4c-.8.3-7.8.6-8.9,1-13.7,6.4-57.4,18.9-76,25.5v15.8c0,21,31.1,25,44,11.4l45.4-47.2c1.6-1.7,2.3-6.5,0-6.5h0Z"/>
            <path class="st187" d="M89.3,65.7h-4.4c-.8.3-7.8.6-8.9,1-13.7,6.4-57.4,18.9-76,25.5v15.7c0,21,31.1,25,44,11.4l45.3-47.1c1.6-1.7,2.3-6.5,0-6.5Z"/>
            <path class="st187" d="M89.3,65.7h-4.4c-.8.3-7.8.6-8.9,1-13.8,6.4-57.4,18.9-76,25.4v15.7c0,21.1,31.1,25,44,11.4l45.3-47.1c1.6-1.7,2.3-6.5,0-6.5Z"/>
            <path class="st0" d="M89.2,65.7h-4.4c-.8.3-7.7.6-8.9,1-13.8,6.4-57.4,18.9-76,25.4v15.6c0,21.1,31.1,25,44,11.4l45.2-47c1.6-1.7,2.3-6.5,0-6.5h0Z"/>
            <path class="st0" d="M89.2,65.7h-4.4c-.8.3-7.7.6-8.9,1-13.8,6.4-57.4,18.9-75.9,25.4v15.6c0,21.1,31.1,25,44,11.4l45.2-47c1.6-1.7,2.4-6.5,0-6.5h0Z"/>
            <path class="st80" d="M89.2,65.7h-4.4c-.8.3-7.7.6-8.9,1-13.9,6.4-57.4,18.9-75.9,25.4v15.5c0,21.1,31,25,44,11.4l45.1-46.9c1.6-1.7,2.4-6.4,0-6.4Z"/>
            <path class="st77" d="M89.1,65.7h-4.4c-.8.3-7.7.6-8.9,1-13.9,6.4-57.4,18.9-75.9,25.4v15.5c0,21.1,31,25,43.9,11.4l45.1-46.9c1.6-1.7,2.4-6.4.1-6.4h0Z"/>
            <path class="st89" d="M89.1,65.7h-4.3c-.9.3-7.7.6-8.9,1-13.9,6.4-57.4,18.8-75.8,25.4v15.4c0,21.1,31,25,43.9,11.4l45.1-46.9c1.6-1.6,2.4-6.4.1-6.4h0Z"/>
            <path class="st89" d="M89.1,65.7h-4.3c-.9.3-7.7.6-8.9,1-14,6.4-57.4,18.8-75.8,25.4v15.4c0,21.2,31,25,43.9,11.4l45-46.8c1.6-1.6,2.4-6.4.2-6.4Z"/>
            <path class="st146" d="M89,65.7h-4.3c-.9.3-7.7.6-8.9,1-14,6.4-57.4,18.8-75.8,25.4v15.3c0,21.2,31,25,43.9,11.4l45-46.8c1.6-1.6,2.4-6.4.2-6.4h0Z"/>
            <path class="st146" d="M89,65.7h-4.3c-.9.3-7.6.7-8.9,1.1-14,6.4-57.4,18.8-75.8,25.4v15.3c0,21.2,31,25,43.9,11.4l44.9-46.7c1.5-1.6,2.4-6.4.2-6.4h0Z"/>
            <path class="st66" d="M89,65.7h-4.3c-.9.3-7.6.7-8.9,1.1-14.1,6.4-57.4,18.8-75.7,25.4v15.2c0,21.2,31,25,43.8,11.4l44.9-46.7c1.5-1.6,2.5-6.4.2-6.4Z"/>
            <path class="st147" d="M88.9,65.7h-4.3c-.9.3-7.6.7-8.9,1.1-14.1,6.4-57.4,18.8-75.7,25.4v15.2c0,21.2,31,25,43.8,11.4l44.8-46.6c1.5-1.6,2.5-6.4.3-6.4h0Z"/>
            <path class="st149" d="M88.9,65.7h-4.3c-.9.3-7.6.7-8.9,1.1-14.1,6.4-57.4,18.8-75.7,25.4v15.1c0,21.2,30.9,25,43.8,11.4l44.8-46.6c1.5-1.6,2.5-6.4.3-6.4h0Z"/>
            <path class="st149" d="M88.9,65.7h-4.3c-.9.3-7.6.7-8.9,1.1-14.2,6.4-57.4,18.8-75.7,25.3v15.1c0,21.3,30.9,25,43.8,11.4l44.8-46.5c1.5-1.6,2.5-6.4.3-6.4h0Z"/>
            <path class="st72" d="M88.8,65.7h-4.3c-.9.3-7.6.7-8.9,1.1-14.2,6.4-57.4,18.8-75.6,25.3v15c0,21.3,30.9,25,43.8,11.4l44.7-46.5c1.5-1.6,2.5-6.4.3-6.4h0Z"/>
            <path class="st54" d="M88.8,65.7h-4.3c-.9.3-7.6.7-8.9,1.1-14.2,6.4-57.4,18.8-75.6,25.3v15c0,21.3,30.9,25,43.7,11.4l44.7-46.4c1.5-1.6,2.5-6.4.4-6.4Z"/>
            <path class="st5" d="M88.8,65.7h-4.3c-.9.3-7.5.7-8.9,1.1-14.3,6.4-57.4,18.8-75.6,25.3v14.9c0,21.3,30.9,25,43.7,11.4l44.6-46.4c1.5-1.6,2.5-6.4.4-6.4h0Z"/>
            <path class="st31" d="M88.7,65.7h-4.3c-.9.3-7.5.7-8.9,1.1-14.3,6.4-57.4,18.8-75.6,25.3v14.8c0,21.3,30.9,25,43.7,11.4l44.6-46.4c1.5-1.5,2.6-6.4.4-6.4Z"/>
            <path class="st32" d="M88.7,65.7h-4.3c-.9.3-7.5.7-8.8,1.1-14.3,6.4-57.3,18.8-75.5,25.3v14.8c0,21.3,30.9,25,43.7,11.4l44.6-46.3c1.5-1.5,2.6-6.4.5-6.4Z"/>
            <path class="st140" d="M88.7,65.7h-4.3c-.9.3-7.5.7-8.8,1.1-14.4,6.4-57.3,18.8-75.5,25.3v14.7c0,21.4,30.9,25,43.7,11.4l44.5-46.3c1.5-1.5,2.6-6.4.5-6.4h0Z"/>
            <path class="st126" d="M88.6,65.7h-4.3c-1,.3-7.5.7-8.8,1.1-14.4,6.4-57.3,18.8-75.5,25.3v14.7c0,21.4,30.8,25,43.7,11.4l44.5-46.2c1.5-1.5,2.6-6.3.5-6.3h0Z"/>
            <path class="st126" d="M88.6,65.7h-4.3c-1,.3-7.5.7-8.8,1.2-14.4,6.4-57.3,18.8-75.4,25.3v14.6c0,21.4,30.8,25,43.6,11.4l44.4-46.2c1.4-1.5,2.6-6.3.5-6.3h0Z"/>
            <path class="st127" d="M88.6,65.7h-4.3c-1,.3-7.4.7-8.8,1.2-14.5,6.4-57.3,18.7-75.4,25.3v14.6c0,21.4,30.8,25,43.6,11.4l44.4-46.1c1.4-1.5,2.6-6.3.6-6.3Z"/>
            <path class="st144" d="M88.5,65.7h-4.3c-1,.3-7.4.7-8.8,1.2-14.5,6.4-57.3,18.7-75.4,25.3v14.5c0,21.4,30.8,25,43.6,11.4l44.3-46.1c1.4-1.5,2.7-6.3.6-6.3Z"/>
            <path class="st144" d="M88.5,65.7h-4.3c-1,.3-7.4.7-8.8,1.2-14.5,6.4-57.3,18.7-75.4,25.2v14.5c0,21.4,30.8,25,43.6,11.4l44.3-46c1.4-1.5,2.7-6.3.6-6.3h0Z"/>
            <path class="st143" d="M88.5,65.7h-4.3c-1,.3-7.4.7-8.8,1.2-14.6,6.4-57.3,18.7-75.3,25.2v14.4c0,21.4,30.8,25,43.6,11.4l44.3-46c1.4-1.5,2.7-6.3.6-6.3Z"/>
            <path class="st145" d="M88.4,65.7h-4.3c-1,.3-7.4.7-8.8,1.2-14.6,6.4-57.3,18.7-75.3,25.2v14.4c0,21.5,30.8,25,43.5,11.4l44.2-45.9c1.4-1.5,2.7-6.3.7-6.3h0Z"/>
            <path class="st195" d="M88.4,65.7h-4.3c-1,.3-7.4.7-8.8,1.2-14.6,6.4-57.3,18.7-75.3,25.2v14.3c0,21.5,30.8,25,43.5,11.4l44.2-45.9c1.4-1.5,2.7-6.3.7-6.3h0Z"/>
            <path class="st196" d="M88.4,65.7h-4.3c-1,.3-7.4.8-8.8,1.2-14.7,6.4-57.3,18.7-75.3,25.2v14.3c0,21.5,30.7,25,43.5,11.4l44.1-45.9c1.4-1.4,2.7-6.3.7-6.3Z"/>
            <path class="st184" d="M88.3,65.7h-4.3c-1,.3-7.3.8-8.8,1.2-14.7,6.4-57.3,18.7-75.2,25.2v14.2c0,21.5,30.7,25,43.5,11.4l44.1-45.8c1.4-1.4,2.7-6.3.8-6.3h0Z"/>
            <path class="st184" d="M88.3,65.7h-4.3c-1,.3-7.3.8-8.8,1.2-14.7,6.4-57.3,18.7-75.2,25.2v14.2c0,21.5,30.7,25,43.5,11.4l44.1-45.8c1.4-1.4,2.8-6.3.8-6.3h0Z"/>
            <path class="st184" d="M88.3,65.7h-4.3c-1,.3-7.3.8-8.8,1.2-14.8,6.4-57.3,18.7-75.2,25.2v14.1c0,21.5,30.7,25,43.5,11.5l44-45.7c1.4-1.4,2.8-6.3.8-6.3Z"/>
            <path class="st17" d="M88.2,65.7h-4.3c-1,.4-7.3.8-8.8,1.3-14.8,6.4-57.3,18.7-75.2,25.2v14.1c0,21.6,30.7,25,43.4,11.5l44-45.7c1.4-1.4,2.8-6.3.8-6.3h0Z"/>
            <path class="st17" d="M88.2,65.7h-4.3c-1,.4-7.3.8-8.8,1.3-14.8,6.4-57.3,18.7-75.1,25.2v14c0,21.6,30.7,25,43.4,11.4l43.9-45.6c1.3-1.4,2.8-6.3.9-6.3h0Z"/>
            <path class="st17" d="M88.2,65.7h-4.3c-1.1.4-7.3.8-8.8,1.3-14.9,6.4-57.3,18.7-75.1,25.2v14c0,21.6,30.7,25,43.4,11.5l43.9-45.6c1.3-1.4,2.8-6.3.9-6.3h0Z"/>
            <path class="st163" d="M88.1,65.7h-4.3c-1.1.4-7.3.8-8.8,1.3-14.9,6.4-57.3,18.7-75.1,25.1v13.9c0,21.6,30.7,25,43.4,11.5l43.8-45.5c1.3-1.4,2.8-6.3.9-6.3Z"/>
            <path class="st9" d="M88.1,65.7h-4.3c-1.1.4-7.2.8-8.8,1.3-14.9,6.4-57.3,18.7-75,25.1v13.9c0,21.6,30.6,25,43.4,11.5l43.8-45.5c1.3-1.4,2.8-6.2.9-6.2Z"/>
            <path class="st9" d="M88.1,65.7h-4.3c-1.1.4-7.2.8-8.8,1.3-15,6.4-57.3,18.6-75,25.1v13.8c0,21.6,30.6,25,43.3,11.5l43.8-45.4c1.3-1.4,2.9-6.2,1-6.2h0Z"/>
            <path class="st179" d="M88,65.7h-4.3c-1.1.4-7.2.8-8.8,1.3-15,6.4-57.3,18.6-75,25.1v13.8c0,21.7,30.6,25,43.3,11.5l43.7-45.4c1.3-1.4,2.9-6.2,1-6.2h0Z"/>
            <path class="st179" d="M88,65.7h-4.3c-1.1.4-7.2.8-8.7,1.3-15,6.4-57.3,18.6-75,25.1v13.7c0,21.7,30.6,25,43.3,11.5l43.7-45.4c1.3-1.4,2.9-6.2,1-6.2h0Z"/>
            <path class="st116" d="M88,65.7h-4.3c-1.1.4-7.2.8-8.7,1.3-15.1,6.4-57.2,18.6-74.9,25.1v13.6c0,21.7,30.6,25,43.3,11.5l43.6-45.3c1.3-1.3,2.9-6.2,1-6.2Z"/>
            <path class="st116" d="M87.9,65.7h-4.3c-1.1.4-7.2.8-8.7,1.3-15.1,6.4-57.2,18.6-74.9,25.1v13.6c0,21.7,30.6,25,43.3,11.5l43.6-45.3c1.3-1.3,2.9-6.2,1.1-6.2Z"/>
            <path class="st73" d="M87.9,65.7h-4.3c-1.1.4-7.1.8-8.7,1.3-15.1,6.4-57.2,18.6-74.9,25.1v13.5c0,21.7,30.6,25,43.3,11.5l43.6-45.2c1.3-1.3,2.9-6.2,1.1-6.2h0Z"/>
            <path class="st73" d="M87.9,65.7h-4.3c-1.1.4-7.1.8-8.7,1.3-15.2,6.4-57.2,18.6-74.9,25.1v13.5c0,21.7,30.6,25,43.2,11.5l43.5-45.2c1.3-1.3,2.9-6.2,1.1-6.2Z"/>
            <path class="st41" d="M87.8,65.7h-4.3c-1.1.4-7.1.8-8.7,1.4-15.2,6.4-57.2,18.6-74.8,25.1v13.4c0,21.8,30.5,25,43.2,11.5l43.5-45.1c1.3-1.3,3-6.2,1.2-6.2Z"/>
            <path class="st203" d="M87.8,65.7h-4.3c-1.1.4-7.1.8-8.7,1.4-15.2,6.4-57.2,18.6-74.8,25.1v13.4c0,21.8,30.5,25,43.2,11.5l43.4-45.1c1.2-1.3,3-6.2,1.2-6.2Z"/>
            <path class="st203" d="M87.8,65.7h-4.3c-1.1.4-7.1.9-8.7,1.4-15.3,6.4-57.2,18.6-74.8,25.1v13.3c0,21.8,30.5,25,43.2,11.5l43.4-45c1.2-1.3,3-6.2,1.2-6.2h0Z"/>
            <path class="st203" d="M87.7,65.7h-4.3c-1.2.4-7.1.9-8.7,1.4-15.3,6.4-57.2,18.6-74.8,25v13.3c0,21.8,30.5,25,43.2,11.5l43.3-45c1.2-1.3,3-6.2,1.2-6.2Z"/>
            <path class="st169" d="M87.7,65.7h-4.3c-1.2.4-7.1.9-8.7,1.4-15.3,6.4-57.2,18.6-74.7,25v13.2c0,21.8,30.5,25,43.1,11.5l43.3-45c1.2-1.3,3-6.2,1.3-6.2h0Z"/>
            <path class="st169" d="M87.7,65.7h-4.3c-1.2.4-7,.9-8.7,1.4-15.4,6.4-57.2,18.6-74.7,25v13.2c0,21.8,30.5,24.9,43.1,11.5l43.3-44.9c1.2-1.3,3-6.2,1.3-6.2Z"/>
            <path class="st169" d="M87.7,65.7h-4.3c-1.2.4-7,.9-8.7,1.4-15.4,6.4-57.2,18.6-74.7,25v13.1c0,21.9,30.5,25,43.1,11.5l43.2-44.9c1.2-1.3,3.1-6.2,1.3-6.2h0Z"/>
            <path class="st84" d="M87.6,65.7h-4.3c-1.2.4-7,.9-8.7,1.4-15.4,6.4-57.2,18.6-74.6,25v13.1c0,21.9,30.5,24.9,43.1,11.5l43.2-44.8c1.2-1.2,3.1-6.1,1.3-6.1Z"/>
            <path class="st199" d="M87.6,65.7h-4.3c-1.2.4-7,.9-8.7,1.4-15.5,6.4-57.2,18.5-74.6,25v13c0,21.9,30.5,25,43.1,11.5l43.1-44.8c1.2-1.2,3.1-6.1,1.4-6.1h0Z"/>
            <path class="st50" d="M87.6,65.7h-4.3c-1.2.4-7,.9-8.7,1.4-15.5,6.4-57.2,18.5-74.6,25v13c0,21.9,30.4,24.9,43.1,11.5l43.1-44.7c1.2-1.2,3.1-6.1,1.4-6.1Z"/>
            <path class="st49" d="M87.5,65.7h-4.3c-1.2.4-7,.9-8.7,1.4-15.6,6.4-57.2,18.5-74.6,25v12.9c0,21.9,30.4,24.9,43,11.5l43.1-44.7c1.2-1.2,3.1-6.1,1.4-6.1Z"/>
            <path class="st48" d="M87.5,65.7h-4.3c-1.2.4-7,.9-8.7,1.5-15.6,6.4-57.2,18.5-74.5,25v12.9c0,21.9,30.4,24.9,43,11.5l43-44.6c1.2-1.2,3.1-6.1,1.5-6.1h0Z"/>
            <path class="st48" d="M87.5,65.7h-4.3c-1.2.4-6.9.9-8.7,1.5-15.6,6.4-57.2,18.5-74.5,25v12.8c0,21.9,30.4,24.9,43,11.5l43-44.6c1.1-1.2,3.1-6.1,1.5-6.1h0Z"/>
            <path class="st64" d="M87.4,65.7h-4.3c-1.2.4-6.9.9-8.7,1.5-15.7,6.4-57.2,18.5-74.5,25v12.8c0,22,30.4,24.9,43,11.5l42.9-44.5c1.1-1.2,3.2-6.1,1.5-6.1h0Z"/>
            <path class="st63" d="M87.4,65.7h-4.3c-1.2.4-6.9.9-8.7,1.5-15.7,6.4-57.2,18.5-74.5,24.9v12.7c0,22,30.4,24.9,43,11.5l42.9-44.5c1.1-1.2,3.2-6.1,1.5-6.1h0Z"/>
            <path class="st63" d="M87.4,65.7h-4.3c-1.2.4-6.9.9-8.7,1.5-15.7,6.4-57.2,18.5-74.4,24.9v12.7c0,22,30.4,24.9,42.9,11.5l42.8-44.5c1.1-1.2,3.2-6.1,1.6-6.1Z"/>
            <path class="st120" d="M87.3,65.7h-4.3c-1.2.4-6.9.9-8.7,1.5-15.8,6.4-57.2,18.5-74.4,24.9v12.6c0,22,30.4,24.9,42.9,11.5l42.8-44.4c1.1-1.2,3.2-6.1,1.6-6.1Z"/>
            <path class="st92" d="M87.3,65.7h-4.3c-1.3.4-6.9.9-8.6,1.5-15.8,6.4-57.2,18.5-74.4,24.9v12.6c0,22,30.3,24.9,42.9,11.5l42.8-44.4c1.1-1.2,3.2-6.1,1.6-6.1Z"/>
            <path class="st93" d="M87.3,65.7h-4.3c-1.3.4-6.8.9-8.6,1.5-15.8,6.4-57.2,18.5-74.3,24.9v12.5c0,22,30.3,24.9,42.9,11.5l42.7-44.3c1.1-1.1,3.2-6.1,1.6-6.1h0Z"/>
            <path class="st16" d="M87.2,65.7h-4.3c-1.3.4-6.8.9-8.6,1.5-15.9,6.4-57.1,18.5-74.3,24.9v12.5c0,22.1,30.3,24.9,42.9,11.5l42.7-44.3c1.1-1.1,3.2-6.1,1.7-6.1h0Z"/>
            <path class="st188" d="M87.2,65.7h-4.3c-1.3.4-6.8.9-8.6,1.5-15.9,6.4-57.1,18.5-74.3,24.9v12.4c0,22.1,30.3,24.9,42.9,11.5l42.6-44.2c1.1-1.1,3.3-6.1,1.7-6.1Z"/>
            <path class="st4" d="M87.2,65.7h-4.3c-1.3.4-6.8,1-8.6,1.5-15.9,6.4-57.1,18.5-74.3,24.9v12.3c0,22.1,30.3,24.9,42.8,11.5l42.6-44.2c1.1-1.1,3.3-6.1,1.7-6.1Z"/>
            <path class="st29" d="M87.1,65.7h-4.3c-1.3.4-6.8,1-8.6,1.6-16,6.4-57.1,18.5-74.2,24.9v12.3c0,22.1,30.3,24.9,42.8,11.5l42.5-44.1c1.1-1.1,3.3-6.1,1.8-6.1Z"/>
            <path class="st29" d="M87.1,65.7h-4.3c-1.3.4-6.8,1-8.6,1.6-16,6.4-57.1,18.4-74.2,24.9v12.2c0,22.1,30.3,24.9,42.8,11.5l42.5-44.1c1.1-1.1,3.3-6,1.8-6Z"/>
            <path class="st28" d="M87.1,65.7h-4.3c-1.3.4-6.8,1-8.6,1.6-16,6.4-57.1,18.4-74.2,24.9v12.2c0,22.1,30.3,24.9,42.8,11.5l42.5-44c1-1.1,3.3-6,1.8-6h0Z"/>
            <path class="st185" d="M87,65.7h-4.3c-1.3.4-6.7,1-8.6,1.6-16.1,6.4-57.1,18.4-74.2,24.9v12.1c0,22.2,30.2,24.9,42.8,11.5l42.4-44c1-1.1,3.3-6,1.8-6h0Z"/>
            <path class="st52" d="M87,65.7h-4.3c-1.3.4-6.7,1-8.6,1.6-16.1,6.4-57.1,18.4-74.1,24.8v12.1c0,22.2,30.2,24.9,42.7,11.5l42.4-44c1-1.1,3.3-6,1.9-6h0Z"/>
            <path class="st52" d="M87,65.7h-4.2c-1.3.4-6.7,1-8.6,1.6-16.1,6.4-57.1,18.4-74.1,24.8v12c0,22.2,30.2,24.9,42.7,11.5l42.3-43.9c1-1.1,3.4-6,1.9-6h0Z"/>
            <path class="st43" d="M86.9,65.7h-4.2c-1.3.5-6.7,1-8.6,1.6-16.2,6.4-57.1,18.4-74.1,24.8v12c0,22.2,30.2,24.9,42.7,11.5l42.3-43.9c1-1.1,3.4-6,1.9-6Z"/>
            <path class="st43" d="M86.9,65.7h-4.2c-1.3.5-6.7,1-8.6,1.6-16.2,6.4-57.1,18.4-74.1,24.8v11.9c0,22.2,30.2,24.9,42.7,11.5l42.3-43.8c1-1,3.4-6,1.9-6Z"/>
            <path class="st103" d="M86.9,65.7h-4.2c-1.3.5-6.7,1-8.6,1.6-16.2,6.4-57.1,18.4-74,24.8v11.9c0,22.2,30.2,24.9,42.7,11.5l42.2-43.8c1-1,3.4-6,2-6h0Z"/>
            <path class="st161" d="M86.8,65.7h-4.2c-1.4.5-6.7,1-8.6,1.6-16.3,6.4-57.1,18.4-74,24.8v11.8c0,22.3,30.2,24.9,42.7,11.5l42.2-43.7c1-1,3.4-6,2-6Z"/>
            <path class="st10" d="M86.8,65.7h-4.2c-1.4.5-6.6,1-8.6,1.6-16.3,6.4-57.1,18.4-74,24.8v11.8c0,22.3,30.2,24.9,42.6,11.5l42.1-43.7c1-1,3.4-6,2-6Z"/>
            <path class="st10" d="M86.8,65.7h-4.2c-1.4.5-6.6,1-8.6,1.6-16.3,6.4-57.1,18.4-73.9,24.8v11.7c0,22.3,30.1,24.9,42.6,11.5l42.1-43.6c1-1,3.5-6,2.1-6h0Z"/>
            <path class="st142" d="M86.7,65.7h-4.2c-1.4.5-6.6,1-8.6,1.7-16.4,6.4-57.1,18.4-73.9,24.8v11.7c0,22.3,30.1,24.9,42.6,11.5l42-43.6c1-1,3.5-6,2.1-6h0Z"/>
            <path class="st142" d="M86.7,65.7h-4.2c-1.4.5-6.6,1-8.6,1.7-16.4,6.4-57.1,18.4-73.9,24.8v11.6c0,22.3,30.1,24.9,42.6,11.5l42-43.5c1-1,3.5-6,2.1-6Z"/>
            <path class="st142" d="M86.7,65.7h-4.2c-1.4.5-6.6,1-8.6,1.7-16.4,6.4-57.1,18.4-73.9,24.8v11.6c0,22.3,30.1,24.9,42.6,11.5l42-43.5c.9-1,3.5-6,2.1-6h0Z"/>
            <path class="st175" d="M86.6,65.7h-4.2c-1.4.5-6.6,1-8.6,1.7-16.5,6.4-57.1,18.4-73.8,24.7v11.5c0,22.3,30.1,24.9,42.5,11.5l41.9-43.5c.9-1,3.5-6,2.2-6Z"/>
            <path class="st55" d="M86.6,65.7h-4.2c-1.4.5-6.5,1-8.6,1.7-16.5,6.4-57.1,18.3-73.8,24.7v11.5c0,22.4,30.1,24.9,42.5,11.5l41.9-43.4c.9-1,3.5-6,2.2-6Z"/>
            <path class="st55" d="M86.6,65.7h-4.2c-1.4.5-6.5,1.1-8.5,1.7-16.5,6.4-57.1,18.3-73.8,24.7v11.4c0,22.4,30.1,24.9,42.5,11.5l41.8-43.4c.9-1,3.5-5.9,2.2-5.9h0Z"/>
            <path class="st165" d="M86.5,65.7h-4.2c-1.4.5-6.5,1.1-8.5,1.7-16.6,6.4-57.1,18.3-73.8,24.7v11.4c0,22.4,30.1,24.9,42.5,11.5l41.8-43.3c.9-.9,3.6-5.9,2.2-5.9h0Z"/>
            <path class="st166" d="M86.5,65.7h-4.2c-1.4.5-6.5,1.1-8.5,1.7-16.6,6.4-57.1,18.3-73.7,24.7v11.3c0,22.4,30,24.9,42.5,11.5l41.8-43.3c.9-.9,3.6-5.9,2.3-5.9h0Z"/>
            <path class="st166" d="M86.5,65.7h-4.2c-1.4.5-6.5,1.1-8.5,1.7-16.6,6.4-57,18.3-73.7,24.7v11.3c0,22.4,30,24.9,42.5,11.5l41.7-43.2c.9-.9,3.6-5.9,2.3-5.9h0Z"/>
            <path class="st20" d="M86.4,65.7h-4.2c-1.4.5-6.5,1.1-8.5,1.7-16.7,6.4-57,18.3-73.7,24.7v11.2c0,22.4,30,24.9,42.4,11.5l41.7-43.2c.9-.9,3.6-5.9,2.3-5.9h0Z"/>
            <path class="st193" d="M86.4,65.7h-4.2c-1.5.5-6.5,1.1-8.5,1.7-16.7,6.4-57,18.3-73.7,24.7v11.1c0,22.5,30,24.9,42.4,11.5l41.6-43.1c.9-.9,3.6-5.9,2.4-5.9Z"/>
            <path class="st193" d="M86.4,65.7h-4.2c-1.5.5-6.4,1.1-8.5,1.8-16.7,6.4-57,18.3-73.6,24.7v11.1c0,22.5,30,24.9,42.4,11.5l41.6-43.1c.9-.9,3.6-5.9,2.4-5.9Z"/>
            <path class="st173" d="M86.3,65.7h-4.2c-1.5.5-6.4,1.1-8.5,1.8-16.8,6.4-57,18.3-73.6,24.7v11c0,22.5,30,24.9,42.4,11.5l41.5-43c.9-.9,3.6-5.9,2.4-5.9h0Z"/>
            <path class="st99" d="M86.3,65.7h-4.2c-1.5.5-6.4,1.1-8.5,1.8-16.8,6.4-57,18.3-73.6,24.7v11c0,22.5,30,24.9,42.4,11.5l41.5-43c.8-.9,3.7-5.9,2.4-5.9Z"/>
            <path class="st98" d="M86.3,65.7h-4.2c-1.5.5-6.4,1.1-8.5,1.8-16.8,6.4-57,18.3-73.5,24.7v10.9c0,22.5,30,24.9,42.3,11.5l41.5-43c.8-.9,3.7-5.9,2.5-5.9h0Z"/>
            <path class="st105" d="M86.2,65.7h-4.2c-1.5.5-6.4,1.1-8.5,1.8-16.9,6.4-57,18.3-73.5,24.6v10.9c0,22.5,29.9,24.9,42.3,11.5l41.4-42.9c.8-.9,3.7-5.9,2.5-5.9Z"/>
            <path class="st105" d="M86.2,65.7h-4.2c-1.5.5-6.4,1.1-8.5,1.8-16.9,6.4-57,18.3-73.5,24.6v10.8c0,22.6,29.9,24.9,42.3,11.5l41.4-42.9c.8-.9,3.7-5.9,2.5-5.9h0Z"/>
            <path class="st192" d="M86.2,65.7h-4.2c-1.5.5-6.4,1.1-8.5,1.8-16.9,6.4-57,18.3-73.5,24.6v10.8c0,22.6,29.9,24.9,42.3,11.5l41.3-42.8c.8-.8,3.7-5.9,2.5-5.9h0Z"/>
            <path class="st109" d="M86.1,65.7h-4.2c-1.5.5-6.3,1.1-8.5,1.8-17,6.4-57,18.3-73.4,24.6v10.7c0,22.6,29.9,24.9,42.3,11.5l41.3-42.8c.8-.8,3.7-5.9,2.6-5.9h0Z"/>
            <path class="st109" d="M86.1,65.7h-4.2c-1.5.5-6.3,1.1-8.5,1.8-17,6.4-57,18.3-73.4,24.6v10.7c0,22.6,29.9,24.9,42.3,11.5l41.3-42.7c.8-.8,3.7-5.9,2.6-5.9Z"/>
            <path class="st109" d="M86.1,65.7h-4.2c-1.5.5-6.3,1.1-8.5,1.8-17,6.4-57,18.2-73.4,24.6v10.6c0,22.6,29.9,24.9,42.2,11.5l41.2-42.7c.8-.8,3.8-5.9,2.6-5.9h0Z"/>
            <path class="st135" d="M86,65.7h-4.2c-1.5.5-6.3,1.1-8.5,1.8-17.1,6.4-57,18.2-73.4,24.6v10.6c0,22.6,29.9,24.9,42.2,11.5l41.2-42.6c.8-.8,3.8-5.8,2.7-5.8Z"/>
            <path class="st21" d="M86,65.7h-4.2c-1.5.5-6.3,1.1-8.5,1.8-17.1,6.4-57,18.2-73.3,24.6v10.5c0,22.7,29.9,24.9,42.2,11.5l41.1-42.6c.8-.8,3.8-5.8,2.7-5.8Z"/>
            <path class="st21" d="M86,65.7h-4.2c-1.5.5-6.3,1.1-8.5,1.9-17.1,6.4-57,18.2-73.3,24.6v10.5c0,22.7,29.8,24.9,42.2,11.5l41.1-42.5c.8-.8,3.8-5.8,2.7-5.8h0Z"/>
            <path class="st88" d="M85.9,65.7h-4.2c-1.6.5-6.2,1.2-8.5,1.9-17.2,6.4-57,18.2-73.3,24.6v10.4c0,22.7,29.8,24.9,42.2,11.5l41-42.5c.8-.8,3.8-5.8,2.7-5.8h0Z"/>
            <path class="st88" d="M85.9,65.7h-4.2c-1.6.5-6.2,1.2-8.5,1.9-17.2,6.4-57,18.2-73.3,24.6v10.4c0,22.7,29.8,24.9,42.1,11.5l41-42.5c.7-.8,3.8-5.8,2.8-5.8h0Z"/>
            <path class="st128" d="M85.9,65.7h-4.2c-1.6.5-6.2,1.2-8.5,1.9-17.2,6.4-57,18.2-73.2,24.5v10.3c0,22.7,29.8,24.9,42.1,11.5l41-42.4c.7-.8,3.8-5.8,2.8-5.8Z"/>
            <path class="st14" d="M85.8,65.7h-4.2c-1.6.5-6.2,1.2-8.4,1.9-17.3,6.4-57,18.2-73.2,24.5v10.3c0,22.7,29.8,24.9,42.1,11.5l40.9-42.4c.7-.8,3.9-5.8,2.8-5.8Z"/>
            <path class="st14" d="M85.8,65.7h-4.2c-1.6.5-6.2,1.2-8.4,1.9-17.3,6.4-57,18.2-73.2,24.5v10.2c0,22.8,29.8,24.9,42.1,11.5l40.9-42.3c.7-.8,3.9-5.8,2.8-5.8h0Z"/>
            <path class="st14" d="M85.8,65.7h-4.2c-1.6.5-6.2,1.2-8.4,1.9-17.3,6.4-57,18.2-73.1,24.5v10.2c0,22.8,29.8,24.9,42.1,11.5l40.8-42.3c.7-.7,3.9-5.8,2.9-5.8Z"/>
            <path class="st12" d="M85.7,65.7h-4.2c-1.6.5-6.2,1.2-8.4,1.9-17.4,6.4-56.9,18.2-73.1,24.5v10.1c0,22.8,29.8,24.9,42.1,11.5l40.8-42.2c.7-.7,3.9-5.8,2.9-5.8h0Z"/>
            <path class="st11" d="M85.7,65.7h-4.2c-1.6.5-6.1,1.2-8.4,1.9-17.4,6.4-56.9,18.2-73.1,24.5v10.1c0,22.8,29.7,24.9,42,11.5l40.8-42.2c.7-.7,3.9-5.8,2.9-5.8Z"/>
            <path class="st11" d="M85.7,65.7h-4.2c-1.6.5-6.1,1.2-8.4,1.9-17.4,6.4-56.9,18.2-73.1,24.5v10c0,22.8,29.7,24.9,42,11.5l40.7-42.1c.7-.7,3.9-5.8,2.9-5.8Z"/>
            <path class="st141" d="M85.6,65.7h-4.2c-1.6.5-6.1,1.2-8.4,1.9-17.5,6.4-56.9,18.2-73,24.5v9.9c0,22.8,29.7,24.9,42,11.5l40.7-42.1c.7-.7,4-5.8,3-5.8Z"/>
            <path class="st121" d="M85.6,65.7h-4.2c-1.6.5-6.1,1.2-8.4,2-17.5,6.4-56.9,18.2-73,24.5v9.9c0,22.8,29.7,24.9,42,11.5l40.6-42c.7-.7,4-5.8,3-5.8h0Z"/>
            <path class="st121" d="M85.6,65.7h-4.2c-1.6.6-6.1,1.2-8.4,2-17.5,6.4-56.9,18.1-73,24.5v9.8c0,22.9,29.7,24.9,42,11.5l40.6-42c.7-.7,4-5.8,3-5.8h0Z"/>
            <path class="st134" d="M85.5,65.7h-4.2c-1.6.6-6.1,1.2-8.4,2-17.6,6.4-56.9,18.1-73,24.5v9.8c0,22.9,29.7,24.9,41.9,11.5l40.5-42c.7-.7,4-5.8,3.1-5.8Z"/>
            <path class="st133" d="M85.5,65.7h-4.2c-1.6.6-6.1,1.2-8.4,2-17.6,6.4-56.9,18.1-72.9,24.4v9.7c0,22.9,29.7,24.9,41.9,11.5l40.5-41.9c.6-.7,4-5.7,3.1-5.7h0Z"/>
            <path class="st158" d="M85.5,65.7h-4.2c-1.7.6-6,1.2-8.4,2-17.6,6.4-56.9,18.1-72.9,24.4v9.7c0,22.9,29.7,24.9,41.9,11.5l40.5-41.9c.6-.7,4-5.7,3.1-5.7h0Z"/>
            <path class="st90" d="M85.4,65.7h-4.2c-1.7.6-6,1.2-8.4,2-17.7,6.4-56.9,18.1-72.9,24.4v9.6c0,22.9,29.6,24.9,41.9,11.5l40.4-41.8c.6-.7,4-5.7,3.1-5.7h0Z"/>
            <path class="st90" d="M85.4,65.7h-4.2c-1.7.6-6,1.2-8.4,2-17.7,6.4-56.9,18.1-72.9,24.4v9.6c0,22.9,29.6,24.9,41.9,11.5l40.4-41.8c.6-.6,4.1-5.7,3.2-5.7h0Z"/>
            <path class="st91" d="M85.4,65.7h-4.2c-1.7.6-6,1.2-8.4,2-17.7,6.4-56.9,18.1-72.8,24.4v9.5c0,23,29.6,24.9,41.9,11.5l40.3-41.7c.6-.6,4.1-5.7,3.2-5.7Z"/>
            <path class="st108" d="M85.3,65.7h-4.2c-1.7.6-6,1.3-8.4,2-17.8,6.4-56.9,18.1-72.8,24.4v9.5c0,23,29.6,24.9,41.8,11.5l40.3-41.7c.6-.6,4.1-5.7,3.2-5.7Z"/>
            <path class="st38" d="M85.3,65.7h-4.2c-1.7.6-6,1.3-8.4,2-17.8,6.5-56.9,18.1-72.8,24.4v9.4c0,23,29.6,24.9,41.8,11.5l40.2-41.6c.6-.6,4.1-5.7,3.2-5.7h0Z"/>
            <path class="st39" d="M85.3,65.7h-4.2c-1.7.6-5.9,1.3-8.4,2-17.8,6.5-56.9,18.1-72.7,24.4v9.4c0,23,29.6,24.9,41.8,11.5l40.2-41.6c.6-.6,4.1-5.7,3.3-5.7h0Z"/>
            <path class="st19" d="M85.2,65.7h-4.2c-1.7.6-5.9,1.3-8.4,2-17.9,6.5-56.9,18.1-72.7,24.4v9.3c0,23,29.6,24.9,41.8,11.5l40.2-41.5c.6-.6,4.1-5.7,3.3-5.7Z"/>
            <path class="st171" d="M85.2,65.7h-4.2c-1.7.6-5.9,1.3-8.4,2.1-17.9,6.5-56.9,18.1-72.7,24.4v9.3c0,23,29.6,24.9,41.8,11.5l40.1-41.5c.6-.6,4.1-5.7,3.3-5.7h0Z"/>
            <path class="st156" d="M85.2,65.7h-4.2c-1.7.6-5.9,1.3-8.4,2.1-17.9,6.5-56.9,18.1-72.7,24.4v9.2c0,23.1,29.5,24.9,41.7,11.5l40.1-41.5c.6-.6,4.2-5.7,3.4-5.7Z"/>
            <path class="st56" d="M85.1,65.7h-4.2c-1.7.6-5.9,1.3-8.3,2.1-18,6.5-56.9,18.1-72.6,24.4v9.2c0,23.1,29.5,24.9,41.7,11.5l40-41.4c.5-.6,4.2-5.7,3.4-5.7h0Z"/>
            <path class="st56" d="M85.1,65.7h-4.2c-1.7.6-5.9,1.3-8.3,2.1-18,6.5-56.9,18.1-72.6,24.3v9.1c0,23.1,29.5,24.9,41.7,11.5l40-41.4c.5-.6,4.2-5.7,3.4-5.7Z"/>
            <path class="st56" d="M85.1,65.7h-4.2c-1.7.6-5.9,1.3-8.3,2.1-18,6.5-56.9,18-72.6,24.3v9.1c0,23.1,29.5,24.9,41.7,11.5l40-41.3c.5-.6,4.2-5.7,3.4-5.7Z"/>
            <path class="st6" d="M85.1,65.7h-4.2c-1.7.6-5.8,1.3-8.3,2.1-18.1,6.5-56.9,18-72.6,24.3v9c0,23.1,29.5,24.9,41.7,11.5l39.9-41.3c.5-.5,4.2-5.7,3.5-5.7h0Z"/>
            <path class="st6" d="M85,65.7h-4.2c-1.8.6-5.8,1.3-8.3,2.1-18.1,6.5-56.9,18-72.5,24.3v9c0,23.1,29.5,24.9,41.7,11.5l39.9-41.2c.5-.5,4.2-5.7,3.5-5.7h0Z"/>
            <path class="st6" d="M85,65.7h-4.2c-1.8.6-5.8,1.3-8.3,2.1-18.1,6.5-56.8,18-72.5,24.3v8.9c0,23.2,29.5,24.9,41.6,11.5l39.8-41.2c.5-.5,4.2-5.6,3.5-5.6Z"/>
            <path class="st107" d="M85,65.7h-4.2c-1.8.6-5.8,1.3-8.3,2.1-18.2,6.5-56.8,18-72.5,24.3v8.9c0,23.2,29.5,24.9,41.6,11.5l39.8-41.1c.5-.5,4.3-5.6,3.5-5.6Z"/>
            <path class="st53" d="M84.9,65.7h-4.2c-1.8.6-5.8,1.3-8.3,2.1-18.2,6.5-56.8,18-72.4,24.3v8.8c0,23.2,29.4,24.9,41.6,11.5l39.7-41.1c.5-.5,4.3-5.6,3.6-5.6Z"/>
            <path class="st53" d="M84.9,65.7h-4.2c-1.8.6-5.8,1.3-8.3,2.1-18.2,6.5-56.8,18-72.4,24.3v8.8c0,23.2,29.4,24.9,41.6,11.5l39.7-41c.5-.5,4.3-5.6,3.6-5.6h0Z"/>
            <path class="st139" d="M84.9,65.7h-4.2c-1.8.6-5.8,1.3-8.3,2.2-18.3,6.5-56.8,18-72.4,24.3v8.7c0,23.2,29.4,24.9,41.6,11.5l39.7-41c.5-.5,4.3-5.6,3.6-5.6h0Z"/>
            <path class="st42" d="M84.8,65.7h-4.1c-1.8.6-5.7,1.3-8.3,2.2-18.3,6.5-56.8,18-72.4,24.3v8.6c0,23.2,29.4,24.9,41.5,11.5l39.6-41c.5-.5,4.3-5.6,3.7-5.6Z"/>
            <path class="st42" d="M84.8,65.7h-4.1c-1.8.6-5.7,1.3-8.3,2.2-18.3,6.5-56.8,18-72.3,24.3v8.6c0,23.2,29.4,24.9,41.5,11.5l39.6-40.9c.5-.5,4.3-5.6,3.7-5.6Z"/>
            <path class="st95" d="M84.8,65.7h-4.1c-1.8.6-5.7,1.3-8.3,2.2-18.4,6.5-56.8,18-72.3,24.2v8.5c0,23.3,29.4,24.9,41.5,11.5l39.5-40.9c.4-.5,4.4-5.6,3.7-5.6Z"/>
            <path class="st94" d="M84.7,65.7h-4.1c-1.8.6-5.7,1.4-8.3,2.2-18.4,6.5-56.8,18-72.3,24.2v8.5c0,23.3,29.4,24.9,41.5,11.5l39.5-40.8c.4-.5,4.4-5.6,3.7-5.6Z"/>
            <path class="st94" d="M84.7,65.7h-4.1c-1.8.6-5.7,1.4-8.3,2.2-18.4,6.5-56.8,18-72.3,24.2v8.4c0,23.3,29.4,24.9,41.5,11.5l39.5-40.8c.4-.4,4.4-5.6,3.8-5.6h0Z"/>
            <path class="st172" d="M84.7,65.7h-4.1c-1.8.6-5.7,1.4-8.3,2.2-18.5,6.5-56.8,18-72.2,24.2v8.4c0,23.3,29.4,24.9,41.5,11.5l39.4-40.7c.4-.4,4.4-5.6,3.8-5.6Z"/>
            <path class="st183" d="M84.6,65.7h-4.1c-1.8.6-5.6,1.4-8.3,2.2-18.5,6.5-56.8,18-72.2,24.2v8.3c0,23.3,29.3,24.9,41.4,11.5l39.4-40.7c.4-.4,4.4-5.6,3.8-5.6h0Z"/>
            <path class="st183" d="M84.6,65.7h-4.1c-1.9.6-5.6,1.4-8.3,2.2-18.5,6.5-56.8,17.9-72.2,24.2v8.3c0,23.3,29.3,24.9,41.4,11.5l39.3-40.6c.4-.4,4.4-5.6,3.8-5.6Z"/>
            <path class="st124" d="M84.6,65.7h-4.1c-1.9.6-5.6,1.4-8.3,2.2-18.6,6.5-56.8,17.9-72.2,24.2v8.2c0,23.4,29.3,24.9,41.4,11.5l39.3-40.6c.4-.4,4.4-5.6,3.9-5.6h0Z"/>
            <path class="st125" d="M84.5,65.7h-4.1c-1.9.6-5.6,1.4-8.3,2.2-18.6,6.5-56.8,17.9-72.1,24.2v8.2c0,23.4,29.3,24.9,41.4,11.5l39.2-40.5c.4-.4,4.5-5.6,3.9-5.6Z"/>
            <path class="st164" d="M84.5,65.7h-4.1c-1.9.6-5.6,1.4-8.3,2.3-18.6,6.5-56.8,17.9-72.1,24.2v8.1c0,23.4,29.3,24.9,41.4,11.5l39.2-40.5c.4-.4,4.5-5.6,3.9-5.6h0Z"/>
            <path class="st148" d="M84.5,65.7h-4.1c-1.9.6-5.6,1.4-8.3,2.3-18.7,6.5-56.8,17.9-72.1,24.2v8.1c0,23.4,29.3,24.9,41.3,11.5l39.2-40.5c.4-.4,4.5-5.5,4-5.5Z"/>
            <path class="st129" d="M84.4,65.7h-4.1c-1.9.6-5.6,1.4-8.2,2.3-18.7,6.5-56.8,17.9-72,24.2v8c0,23.4,29.3,24.9,41.3,11.5l39.1-40.4c.4-.4,4.5-5.5,4-5.5Z"/>
            <path class="st130" d="M84.4,65.7h-4.1c-1.9.6-5.5,1.4-8.2,2.3-18.7,6.5-56.8,17.9-72,24.2v8c0,23.4,29.3,24.9,41.3,11.5l39.1-40.4c.4-.4,4.5-5.5,4-5.5Z"/>
            <path class="st153" d="M84.4,65.7h-4.1c-1.9.6-5.5,1.4-8.2,2.3-18.8,6.5-56.8,17.9-72,24.1v7.9c0,23.5,29.2,24.9,41.3,11.5l39-40.3c.3-.4,4.5-5.5,4-5.5h0Z"/>
            <path class="st153" d="M84.3,65.7h-4.1c-1.9.6-5.5,1.4-8.2,2.3-18.8,6.5-56.8,17.9-72,24.1v7.9c0,23.5,29.2,24.9,41.3,11.5l39-40.3c.3-.3,4.5-5.5,4.1-5.5Z"/>
            <path class="st154" d="M84.3,65.7h-4.1c-1.9.6-5.5,1.4-8.2,2.3-18.8,6.5-56.8,17.9-71.9,24.1v7.8c0,23.5,29.2,24.9,41.3,11.5l39-40.2c.3-.3,4.6-5.5,4.1-5.5h0Z"/>
            <path class="st37" d="M84.3,65.7h-4.1c-1.9.6-5.5,1.4-8.2,2.3-18.9,6.5-56.7,17.9-71.9,24.1v7.8c0,23.5,29.2,24.9,41.2,11.5l38.9-40.2c.3-.3,4.6-5.5,4.1-5.5h0Z"/>
            <path class="st113" d="M84.2,65.7h-4.1c-1.9.7-5.5,1.4-8.2,2.3-18.9,6.5-56.7,17.9-71.9,24.1v7.7c0,23.5,29.2,24.9,41.2,11.5l38.9-40.1c.3-.3,4.6-5.5,4.1-5.5Z"/>
            <path class="st112" d="M84.2,65.7h-4.1c-1.9.7-5.5,1.4-8.2,2.3-18.9,6.5-56.7,17.9-71.9,24.1v7.7c0,23.5,29.2,24.9,41.2,11.5l38.8-40.1c.3-.3,4.6-5.5,4.2-5.5h0Z"/>
            <path class="st189" d="M84.2,65.7h-4.1c-1.9.7-5.4,1.4-8.2,2.3-19,6.5-56.7,17.9-71.8,24.1v7.6c0,23.6,29.2,24.9,41.2,11.5l38.8-40c.3-.3,4.6-5.5,4.2-5.5h0Z"/>
            <path class="st189" d="M84.1,65.7h-4.1c-2,.7-5.4,1.5-8.2,2.3-19,6.5-56.7,17.9-71.8,24.1v7.6c0,23.6,29.2,24.9,41.2,11.5l38.7-40c.3-.3,4.6-5.5,4.2-5.5h0Z"/>
            <path class="st189" d="M84.1,65.7h-4.1c-2,.7-5.4,1.5-8.2,2.4-19,6.5-56.7,17.8-71.8,24.1v7.5c0,23.6,29.1,24.9,41.1,11.5l38.7-40c.3-.3,4.6-5.5,4.2-5.5h0Z"/>
            <path class="st152" d="M84.1,65.7h-4.1c-2,.7-5.4,1.5-8.2,2.4-19.1,6.5-56.7,17.8-71.8,24.1v7.4c0,23.6,29.1,24.9,41.1,11.5l38.7-39.9c.3-.3,4.7-5.5,4.3-5.5Z"/>
            <path class="st13" d="M84,65.7h-4.1c-2,.7-5.4,1.5-8.2,2.4-19.1,6.5-56.7,17.8-71.7,24.1v7.4c0,23.6,29.1,24.9,41.1,11.5l38.6-39.9c.3-.3,4.7-5.5,4.3-5.5Z"/>
            <path class="st13" d="M84,65.7h-4.1c-2,.7-5.4,1.5-8.2,2.4-19.1,6.5-56.7,17.8-71.7,24v7.3c0,23.6,29.1,24.9,41.1,11.5l38.6-39.8c.2-.3,4.7-5.5,4.3-5.5Z"/>
            <path class="st202" d="M84,65.7h-4.1c-2,.7-5.3,1.5-8.2,2.4-19.2,6.5-56.7,17.8-71.7,24v7.3c0,23.7,29.1,24.9,41.1,11.5l38.5-39.8c.2-.3,4.7-5.5,4.4-5.5h0Z"/>
            <path class="st117" d="M83.9,65.7h-4.1c-2,.7-5.3,1.5-8.2,2.4-19.2,6.5-56.7,17.8-71.6,24v7.2c0,23.7,29.1,24.9,41.1,11.5l38.5-39.7c.2-.2,4.7-5.4,4.4-5.4h0Z"/>
            <path class="st117" d="M83.9,65.7h-4.1c-2,.7-5.3,1.5-8.2,2.4-19.2,6.5-56.7,17.8-71.6,24v7.2c0,23.7,29.1,24.9,41,11.5l38.5-39.7c.2-.2,4.7-5.4,4.4-5.4h0Z"/>
            <path class="st138" d="M83.9,65.7h-4.1c-2,.7-5.3,1.5-8.2,2.4-19.3,6.5-56.7,17.8-71.6,24v7.1c0,23.7,29.1,24.9,41,11.5l38.4-39.6c.2-.2,4.7-5.4,4.4-5.4h0Z"/>
            <path class="st138" d="M83.8,65.7h-4.1c-2,.7-5.3,1.5-8.2,2.4-19.3,6.5-56.7,17.8-71.6,24v7.1c0,23.7,29,24.9,41,11.5l38.4-39.6c.2-.2,4.8-5.4,4.5-5.4Z"/>
            <path class="st194" d="M83.8,65.7h-4.1c-2,.7-5.3,1.5-8.2,2.4-19.3,6.5-56.7,17.8-71.5,24v7c0,23.7,29,24.9,41,11.5l38.3-39.6c.2-.2,4.8-5.4,4.5-5.4Z"/>
            <path class="st8" d="M83.8,65.7h-4.1c-2,.7-5.3,1.5-8.2,2.4-19.4,6.5-56.7,17.8-71.5,24v7c0,23.7,29,24.9,41,11.5l38.3-39.5c.2-.2,4.8-5.4,4.5-5.4h0Z"/>
            <path class="st7" d="M83.7,65.7h-4.1c-2,.7-5.2,1.5-8.2,2.5-19.4,6.5-56.7,17.8-71.5,24v6.9c0,23.8,29,24.9,40.9,11.5l38.2-39.5c.2-.2,4.8-5.4,4.5-5.4Z"/>
            <path class="st7" d="M83.7,65.7h-4.1c-2,.7-5.2,1.5-8.1,2.5-19.4,6.5-56.7,17.8-71.5,24v6.9c0,23.8,29,24.9,40.9,11.5l38.2-39.4c.2-.2,4.8-5.4,4.6-5.4Z"/>
            <path class="st104" d="M83.7,65.7h-4.1c-2.1.7-5.2,1.5-8.1,2.5-19.5,6.5-56.7,17.8-71.4,24v6.8c0,23.8,29,24.9,40.9,11.5l38.2-39.4c.2-.2,4.8-5.4,4.6-5.4Z"/>
            <path class="st74" d="M83.6,65.7h-4.1c-2.1.7-5.2,1.5-8.1,2.5-19.5,6.5-56.7,17.8-71.4,23.9v6.8c0,23.8,29,24.9,40.9,11.5l38.1-39.3c.2-.2,4.9-5.4,4.6-5.4h0Z"/>
            <path class="st74" d="M83.6,65.7h-4.1c-2.1.7-5.2,1.5-8.1,2.5-19.5,6.5-56.7,17.8-71.4,23.9v6.7c0,23.8,29,24.9,40.9,11.5l38.1-39.3c.1-.2,4.9-5.4,4.7-5.4h0Z"/>
            <path class="st181" d="M83.6,65.7h-4.1c-2.1.7-5.2,1.5-8.1,2.5-19.6,6.5-56.7,17.7-71.4,23.9v6.7c0,23.8,28.9,24.9,40.9,11.5l38-39.2c.1-.1,4.9-5.4,4.7-5.4Z"/>
            <path class="st180" d="M83.5,65.7h-4.1c-2.1.7-5.2,1.6-8.1,2.5-19.6,6.5-56.7,17.7-71.3,23.9v6.6c0,23.9,28.9,24.9,40.8,11.5l38-39.2c.1-.1,4.9-5.4,4.7-5.4h0Z"/>
            <path class="st26" d="M83.5,65.7h-4.1c-2.1.7-5.1,1.6-8.1,2.5-19.6,6.5-56.6,17.7-71.3,23.9v6.6c0,23.9,28.9,24.9,40.8,11.5l38-39.1c.1-.1,4.9-5.4,4.7-5.4Z"/>
            <path class="st151" d="M83.5,65.7h-4.1c-2.1.7-5.1,1.6-8.1,2.5-19.7,6.5-56.6,17.7-71.3,23.9v6.5c0,23.9,28.9,24.9,40.8,11.5l37.9-39.1c.1-.1,4.9-5.4,4.8-5.4h0Z"/>
            <path class="st151" d="M83.4,65.7h-4.1c-2.1.7-5.1,1.6-8.1,2.5-19.7,6.5-56.6,17.7-71.2,23.9v6.5c0,23.9,28.9,24.9,40.8,11.5l37.9-39.1c.1-.1,4.9-5.3,4.8-5.3h0Z"/>
            <path class="st150" d="M83.4,65.7h-4.1c-2.1.7-5.1,1.6-8.1,2.5-19.7,6.5-56.6,17.7-71.2,23.9v6.4c0,23.9,28.9,24.9,40.8,11.5l37.8-39c0,0,5-5.3,4.8-5.3Z"/>
            <path class="st1" d="M83.4,65.7h-4.1c-2.1.7-5.1,1.6-8.1,2.5-19.8,6.5-56.6,17.7-71.2,23.9v6.4c0,23.9,28.9,24.9,40.7,11.5l37.8-39c0,0,5-5.3,4.8-5.3h0Z"/>
            <path class="st1" d="M83.3,65.7h-4.1c-2.1.7-5.1,1.6-8.1,2.6-19.8,6.5-56.6,17.7-71.2,23.9v6.3c0,24,28.9,24.9,40.7,11.5l37.7-38.9c0,0,5-5.3,4.9-5.3h0Z"/>
            <path class="st2" d="M83.3,65.7h-4.1c-2.1.7-5,1.6-8.1,2.6-19.8,6.5-56.6,17.7-71.1,23.9v6.2c0,24,28.8,24.9,40.7,11.5l37.7-38.9c0,0,5-5.3,4.9-5.3h0Z"/>
            <path class="st62" d="M83.3,65.7h-4.1c-2.1.7-5,1.6-8.1,2.6-19.9,6.5-56.6,17.7-71.1,23.9v6.2c0,24,28.8,24.9,40.7,11.5l37.7-38.8c0,0,5-5.3,4.9-5.3Z"/>
            <path class="st86" d="M83.2,65.7h-4.1c-2.1.7-5,1.6-8.1,2.6-19.9,6.5-56.6,17.7-71.1,23.8v6.1c0,24,28.8,24.9,40.7,11.5l37.6-38.8c0,0,5-5.3,5-5.3h0Z"/>
            <path class="st85" d="M83.2,65.7h-4.1c-2.2.7-5,1.6-8.1,2.6-19.9,6.5-56.6,17.7-71.1,23.8v6.1c0,24,28.8,24.9,40.7,11.5l37.6-38.7s5-5.3,5-5.3h0Z"/>
            <path class="st137" d="M83.2,65.7h-4.1c-2.2.7-5,1.6-8.1,2.6-20,6.5-56.6,17.7-71,23.8v6c0,24,28.8,24.9,40.6,11.5l37.5-38.7s5.1-5.3,5-5.3h0Z"/>
            <path class="st137" d="M83.1,65.7h-4.1c-2.2.7-5,1.6-8.1,2.6-20,6.5-56.6,17.7-71,23.8v6c0,24.1,28.8,24.9,40.6,11.5l37.5-38.6s5.1-5.3,5-5.3Z"/>
            <path class="st22" d="M83.1,65.7h-4.1c-2.2.7-5,1.6-8.1,2.6-20.1,6.5-56.6,17.7-71,23.8v5.9c0,24.1,28.8,24.9,40.6,11.5l37.4-38.6s5.1-5.3,5.1-5.3h0Z"/>
            <path class="st213" d="M83.1,65.7h-4.1c-2.2.7-4.9,1.6-8.1,2.6-20.1,6.5-56.6,17.6-71,23.8v5.9c0,24.1,28.8,24.9,40.6,11.5l37.4-38.6s5.1-5.3,5.1-5.3h0Z"/>
            <path class="st213" d="M40.6,109.4l42.5-43.8h-4.1c-16.3,5.5-62.4,19.3-79,26.4v5.8c0,24.1,28.7,24.9,40.6,11.5Z"/>
          </g>
          <path class="st210" d="M36.8,108l42.2-42.3H26.4c-14.6,0-26.4,11.8-26.4,26.4v.6c0,19.3,23.2,28.9,36.8,15.3h0Z"/>
        </g>
      </g>
      <path class="st214" d="M168.1,55l-4.4-11.6h-22.3l-4.4,11.6h-7.3l18.8-47.1h8.1l18.7,47.1h-7.1ZM143.6,37.5h17.8l-8.9-23.3-8.9,23.3ZM199.5,17.3h-5.7c1.1-2.9.4-4.7-1.6-4.7s-3,1.5-3,4.2v4.6h10.2v5.6h-10.2v28h-6.3v-28h-6.1v-5.6h6.1v-4.6c0-6.1,3.3-9.7,9.4-9.7s8.9,4.2,7.1,10.2ZM219.4,20.5c5,0,8.2,3.9,8.2,8.9s-.6,4.2-1.4,6h-6.6c1-1.6,1.4-3.2,1.4-4.6,0-2.8-1.5-4.6-4-4.6-4,0-6.7,4.9-6.7,12.3v16.4h-6.3V21.4h6.3v5.7c1.9-4.2,5-6.6,9-6.6ZM236.9,16.1c-2.5,0-4.4-2-4.4-4.4s1.9-4.4,4.4-4.4,4.3,1.9,4.3,4.4-1.9,4.4-4.3,4.4ZM233.7,55V21.4h6.3v33.6h-6.3ZM263.5,55.9c-10,0-16.6-7.1-16.6-17.7s6.6-17.7,16.9-17.7,16.1,7.1,14.1,16.9h-6.5c1.2-7-1.8-11.3-7.8-11.3s-10.2,4.8-10.2,12.1,4,12.1,10.1,12.1,7.9-2.9,9.3-7.3h6.8c-1.4,6.7-6.7,12.9-16.1,12.9ZM299,20.5c9.4,0,14.1,6.1,14.1,15.3v19.2h-5.9v-5.9c-2.4,4.3-6.6,6.8-12,6.8s-11.6-4-11.6-10,5.9-10.9,15.3-10.9,5.5.3,8,1h0c0-5.8-1.9-9.9-7.9-9.9s-7.5,2.4-6.5,6.9h-6.5c-1.8-7.3,4.4-12.4,13-12.4ZM296.1,50.6c5.5,0,10-3.6,11-9.4-2.3-.7-5.1-1.1-7.7-1.1-6,0-9.3,2.4-9.3,5.9s2.3,4.6,6.1,4.6ZM166.6,69.8h-25.1v14.9h21.5v5.9h-21.5v20.4h-6.7v-47.1h31.7v5.9ZM176.1,72.1c-2.5,0-4.4-2-4.4-4.4s1.9-4.4,4.4-4.4,4.3,1.9,4.3,4.4-1.9,4.4-4.3,4.4ZM172.9,111v-33.6h6.3v33.6h-6.3ZM205.7,76.5c10.8,0,10.8,10.6,10.8,16.1v18.4h-6.3v-18.2c0-4.4,0-10.6-6.5-10.6s-9.8,5-9.8,12.4v16.3h-6.3v-33.6h6.3v6.4c2.4-4.6,6.6-7.3,11.8-7.3ZM242.5,83h-9.5v17.9c0,3.1.5,5.4,4.6,5.4s3-.4,4.2-1v5.7c-1.4.5-3.3.9-5.4.9-9.5,0-9.7-7.9-9.7-11v-18h-6.2v-5.6h6.2v-8.8h6.3v8.8h9.5v5.6ZM272.1,100.6h6.8c-2,6.9-7.7,11.2-15.7,11.2s-16.7-7.1-16.7-17.7,6.5-17.7,16.9-17.7,17,8.6,14.1,19.7h-24.3c.7,6.3,4.2,10.1,10,10.1s7.6-2.2,8.9-5.7ZM263.3,81.9c-5.6,0-9.1,3.4-10,9.1h18.5c.5-5.7-2.6-9.1-8.5-9.1ZM300.5,111.9c-10,0-16.6-7.1-16.6-17.7s6.6-17.7,17-17.7,16.1,7.1,14.1,16.9h-6.5c1.2-7-1.8-11.3-7.8-11.3s-10.2,4.8-10.2,12.1,4,12.1,10.1,12.1,7.9-2.9,9.3-7.3h6.8c-1.4,6.7-6.7,12.9-16.1,12.9ZM340.4,76.5c7.5,0,11,5.7,11,14.3v20.2h-6.3v-20.2c0-5.1-2-8.5-6.7-8.5s-9.6,5-9.6,12.4v16.3h-6.3v-47.1h6.3v19.8c2.1-4.5,6.3-7.3,11.5-7.3ZM168.1,167l-4.4-11.6h-22.3l-4.4,11.6h-7.3l18.8-47.1h8.1l18.7,47.1h-7.1ZM143.6,149.5h17.8l-8.9-23.3-8.9,23.3ZM194.2,167.9c-10,0-16.6-7.1-16.6-17.7s6.6-17.7,16.9-17.7,16.1,7.1,14.1,16.9h-6.5c1.2-7-1.8-11.3-7.8-11.3s-10.2,4.8-10.2,12.1,4,12.1,10.1,12.1,7.9-2.9,9.3-7.3h6.8c-1.4,6.7-6.7,12.9-16.1,12.9ZM229.7,132.5c9.4,0,14.1,6.1,14.1,15.3v19.2h-5.9v-5.9c-2.4,4.3-6.6,6.8-12,6.8s-11.6-4-11.6-10,5.9-10.9,15.3-10.9,5.5.3,8,1h0c0-5.8-2-9.9-7.9-9.9s-7.5,2.4-6.5,6.9h-6.5c-1.8-7.3,4.4-12.4,13-12.4ZM226.8,162.6c5.5,0,10-3.6,11-9.4-2.3-.7-5.1-1.1-7.7-1.1-6,0-9.3,2.4-9.3,5.9s2.3,4.6,6.1,4.6ZM276.5,119.9h6.3v47.1h-6.3v-5.3c-2.6,3.9-6.6,6.2-11.6,6.2-8.9,0-15.1-7.1-15.1-17.7s6.1-17.7,15.1-17.7,9.1,2.3,11.6,6.2v-18.8ZM266.6,162.3c6.1,0,10.2-4.9,10.2-12.1s-4-12.1-10.2-12.1-10.2,4.9-10.2,12.1,4.1,12.1,10.2,12.1ZM314.9,156.6h6.8c-1.9,6.9-7.7,11.2-15.7,11.2s-16.7-7.1-16.7-17.7,6.5-17.7,17-17.7,17,8.6,14.1,19.7h-24.3c.7,6.3,4.2,10.1,10,10.1s7.6-2.2,8.9-5.7ZM306.1,137.9c-5.6,0-9.1,3.4-10,9.1h18.5c.5-5.6-2.6-9.1-8.5-9.1ZM366.3,132.5c6.9,0,10.4,4.9,10.4,12.6v21.9h-6.3v-20.8c0-4.7-2-7.9-6.1-7.9s-8.7,4.9-8.7,12.4v16.3h-6.3v-20.8c0-4.8-2-8-6.1-8s-8.7,4.9-8.7,12.5v16.3h-6.3v-33.6h6.3v5.9c1.7-3.7,5.4-6.8,10.7-6.8s8.5,2.8,9.8,7.3c2-4.5,6.2-7.3,11.2-7.3ZM405,133.4h6.5l-12.3,36.3c-2.2,6.3-5.7,11.4-12.8,11.4s-3.8-.3-5.4-1v-5.5c1.7.6,3.2.9,4.8.9,4.7,0,6.4-3.4,7.5-6.6h0c0,0-13.4-35.5-13.4-35.5h6.6l9.6,28,9-28Z"/>
    </g>
  </g>
</svg>